<svg id="Capa_1" enable-background="new 0 0 512 512" height="512" viewBox="0 0 512 512" width="512" xmlns="http://www.w3.org/2000/svg" xmlns:xlink="http://www.w3.org/1999/xlink"><linearGradient id="SVGID_1_" gradientUnits="userSpaceOnUse" x1="56.637" x2="427.065" y1="418.703" y2="48.275"><stop offset="0" stop-color="#ffdbed"/><stop offset="1" stop-color="#dcfdee"/></linearGradient><g><g><path d="m507.842 299.468c-.892-59.11-49.072-87.106-95.16-113.424-20.926-11.949-20.438-29.101-9.685-48.676 34.212-62.279 16.823-142.581-66.677-137.102-46.414 3.045-78.477 40.894-116.254 63.227-41.658 24.628-67.16 14.112-104.434-4.685-46.027-23.21-103.663 12.833-110.941 62.751-10.402 71.34 128.961 85.202 85.334 195.219-26.621 67.13-2.54 179.571 86.319 193.557 80.398 12.654 148.433-48.861 185.275-114.665 7.821-13.969 15.912-29.662 30.642-35.934 44.107-18.783 117.126 42.142 115.581-60.268z" fill="url(#SVGID_1_)"/></g><g><g><g><path d="m460.276 217.127c18.112-18.112 17.925-47.593-.56-65.471-18.095-17.501-47.095-16.716-64.896 1.084l-30.923 30.923v-56.933c0-16.56-13.43-30-30-30h-265.619c-16.57 0-30 13.44-30 30v24.437c0 5.523 4.477 10 10 10h50v288.103c0 16.568 13.431 30 30 30h265.62c16.57 0 30-13.44 30-30v-24.437c0-5.523-4.477-10-10-10h-50v-101.329z" fill="#2626bc" opacity=".1"/><g><g><path d="m131.657 72.73h-63.379c-16.57 0-30 13.44-30 30v24.437c0 5.523 4.477 10 10 10h83.378v-64.437z" fill="#9fb0fe"/><path d="m98.28 126.73v10.44h-50c-5.52 0-10-4.48-10-10v-.44c0-16.56 13.43-30 30-30s30 13.44 30 30z" fill="#b7c5ff"/></g><g><path d="m363.901 102.73v352.54h-235.62c-16.57 0-30-13.43-30-30v-322.54c0-16.56-13.43-30-30-30h265.62c16.57 0 30 13.44 30 30z" fill="#fff"/><g><g><g><path d="m334.413 111.381h-73.413c-2.761 0-5-2.238-5-5s2.239-5 5-5h73.413c2.761 0 5 2.238 5 5s-2.239 5-5 5z" fill="#ffa8cf"/></g><g><path d="m334.413 133.113h-73.413c-2.761 0-5-2.238-5-5s2.239-5 5-5h73.413c2.761 0 5 2.238 5 5s-2.239 5-5 5z" fill="#ffa8cf"/></g><g><path d="m334.413 154.844h-73.413c-2.761 0-5-2.238-5-5s2.239-5 5-5h73.413c2.761 0 5 2.238 5 5s-2.239 5-5 5z" fill="#ffa8cf"/></g><g><path d="m334.413 176.575h-73.413c-2.761 0-5-2.238-5-5s2.239-5 5-5h73.413c2.761 0 5 2.238 5 5s-2.239 5-5 5z" fill="#01eca5"/></g><g><path d="m334.413 197.788h-73.413c-2.761 0-5-2.238-5-5s2.239-5 5-5h73.413c2.761 0 5 2.238 5 5s-2.239 5-5 5z" fill="#01eca5"/></g><g><path d="m334.413 219.001h-73.413c-2.761 0-5-2.238-5-5s2.239-5 5-5h73.413c2.761 0 5 2.238 5 5s-2.239 5-5 5z" fill="#01eca5"/></g></g></g><g><path d="m363.901 183.66v129.84l-24.3 24.3c-3.14 3.14-7.51 4.73-11.93 4.33l-46.15-4.1-26.88 26.88c-.97.97-2.25 1.46-3.53 1.46s-2.56-.49-3.54-1.46c-1.95-1.95-1.95-5.12 0-7.07l26.88-26.88-4.1-46.15c-.4-4.42 1.19-8.79 4.33-11.93z" fill="#d2deff"/><g><g><g><path d="m239.661 303.894h-89.413c-2.761 0-5-2.238-5-5s2.239-5 5-5h89.413c2.761 0 5 2.238 5 5s-2.239 5-5 5z" fill="#8399fe"/></g><g><path d="m239.661 325.625h-107.413c-2.761 0-5-2.238-5-5s2.239-5 5-5h107.413c2.761 0 5 2.238 5 5s-2.239 5-5 5z" fill="#8399fe"/></g><g><path d="m239.661 347.357h-107.413c-2.761 0-5-2.238-5-5s2.239-5 5-5h107.413c2.761 0 5 2.238 5 5s-2.239 5-5 5z" fill="#8399fe"/></g><g><path d="m239.661 369.088h-107.413c-2.761 0-5-2.238-5-5s2.239-5 5-5h107.413c2.761 0 5 2.238 5 5s-2.239 5-5 5z" fill="#8399fe"/></g></g></g></g></g><path d="m158.278 425.27v-24.437c0-5.523 4.477-10 10-10h245.62c5.523 0 10 4.477 10 10v24.437c0 16.56-13.43 30-30 30h-265.62c16.57 0 30-13.44 30-30z" fill="#d2deff"/></g><g><path d="m460.276 193.127c18.112-18.112 17.926-47.593-.56-65.471-18.095-17.501-47.095-16.716-64.896 1.085l-120.137 120.137c-3.141 3.141-4.728 7.512-4.334 11.936l4.685 52.634 52.634 4.685c4.424.394 8.796-1.194 11.936-4.334z" fill="#ff7eb8"/><path d="m345.795 260.352 13.727 2.284c1.592.265 3.215-.255 4.356-1.397l41.423-41.423c1.953-1.953 1.953-5.118 0-7.071l-4.717-4.717c-2.063-2.063-.265-5.56 2.614-5.081l13.727 2.284c1.592.265 3.215-.255 4.356-1.397l6.414-6.414c10.1-10.1 10.1-26.537-.001-36.638l-.32-.315c-10.091-9.759-26.622-9.378-36.85.85l-34.852 34.852c-1.141 1.141-1.662 2.764-1.397 4.356l2.284 13.727c.479 2.879-3.017 4.677-5.081 2.614l-4.717-4.717c-1.953-1.953-5.118-1.953-7.071 0l-67.654 67.654 2.995 33.642 33.642 2.994 39.222-39.222c1.953-1.953 1.953-5.118 0-7.071l-4.717-4.717c-2.06-2.06-.261-5.556 2.617-5.077z" fill="#02ffb3"/><path d="m247.574 340.907c.977.977 2.256 1.465 3.536 1.465s2.559-.488 3.536-1.465l22.271-22.271 50.309 4.478c.598.053 1.193.079 1.787.079 5.284 0 10.354-2.084 14.128-5.859l120.672-120.672c9.729-9.729 15.023-22.664 14.908-36.424-.115-13.756-5.629-26.604-15.527-36.177-19.836-19.185-52.093-18.67-71.907 1.144l-22.387 22.385v-44.86c0-19.299-15.701-35-35-35h-265.62c-19.298 0-34.999 15.701-34.999 35v24.439c0 8.271 6.729 15 15 15h45v283.1c0 19.298 15.7 34.999 34.998 35h265.62c19.299 0 35-15.701 35-35v-24.437c0-8.271-6.729-15-15-15h-44.999v-67.042c0-2.762-2.239-5-5-5s-5 2.238-5 5v67.043h-120.127c-2.761 0-5 2.238-5 5s2.239 5 5 5h175.125c2.757 0 5 2.243 5 5v24.437c0 13.785-11.215 25-25 25h-241.148c6.494-6.357 10.528-15.216 10.528-25v-24.437c0-2.757 2.243-5 5-5h41.685c2.761 0 5-2.238 5-5s-2.239-5-5-5h-41.685c-8.271 0-15 6.729-15 15v24.437c0 13.785-11.214 25-24.999 25s-24.999-11.215-24.999-25v-322.54c0-9.784-4.035-18.643-10.528-25h241.148c13.785 0 25 11.215 25 25l.218 54.642-87.97 87.97c-4.2 4.2-6.306 10.001-5.779 15.915l4.477 50.307-22.272 22.272c-1.953 1.953-1.953 5.119 0 7.071zm-154.294-238.177v29.439h-45c-2.757 0-5-2.243-5-5v-24.439c0-13.785 11.215-25 25-25 13.785.001 25 11.215 25 25zm182.049 157.641c-.264-2.957.79-5.857 2.89-7.958l120.138-120.138c15.979-15.979 41.946-16.438 57.884-1.026 7.956 7.694 12.388 18.02 12.48 29.073.092 11.057-4.162 21.451-11.98 29.27l-120.674 120.672c-2.099 2.1-5.006 3.146-7.957 2.89l-41.976-3.736 120.259-120.258c1.953-1.952 1.953-5.118 0-7.07-1.953-1.953-5.118-1.953-7.071 0l-120.257 120.256z" fill="#2626bc"/></g></g><g><path d="m244.358 219.624c-.416-1.483-2.154-2.161-3.446-1.322-2.382 1.549-4.491 2.322-6.327 2.322-2.139 0-3.576-.821-4.316-2.466-.74-1.641-1.109-4.439-1.109-8.384v-62.474c0-9.04-.617-16.191-1.849-21.454-1.233-5.26-3.661-9.698-7.275-13.316-3.946-3.945-8.878-6.739-14.796-8.384-12.852-3.573-26.577-3.494-39.593-.837-10.807 2.205-22.768 6.274-29.332 15.757-8.379 12.106-.678 30.702 14.671 30.702 19.074.001 26.567-24.57 10.106-34.765 4.478-1.796 13.002-4.277 21.455-1.63 6.575 2.059 11.086 8.195 11.102 15.085v.103 19.235c0 4.439-2.096 7.934-6.288 10.481-17.339 10.534-41.636 11.343-54.992 28.112-6.64 8.337-7.66 20.573-3.854 30.429 4.864 12.595 16.485 17.535 29.377 17.535 15.944 0 28.028-6.658 36.25-19.975.162 6.084 2.053 10.935 5.671 14.55 3.615 3.618 9.945 5.425 18.988 5.425 10.092 0 18.719-2.712 25.878-8.139.757-.574 1.089-1.551.833-2.465zm-50.709-20.37c-4.77 6.743-9.008 10.632-16.029 12.127-5.021 1.069-16.029-.69-16.029-12.542 0-11.385 13.07-16.771 19.481-20.883 6.412-3.945 10.604-7.56 12.577-10.85z" fill="#01eca5"/></g><path d="m240.599 280.596h-109.289c-2.761 0-5-2.239-5-5v-23.191c0-2.761 2.239-5 5-5h109.289c2.761 0 5 2.239 5 5v23.191c0 2.761-2.239 5-5 5z" fill="#ffa8cf"/><g fill="#ff7eb8"><circle cx="340.751" cy="364.088" r="5"/><circle cx="321.984" cy="364.088" r="5"/><circle cx="303.217" cy="364.088" r="5"/><circle cx="132.248" cy="298.894" r="5"/></g></g><g><path d="m419.822 83.582c-1.031 0-2.062-.318-2.939-.955l-3.859-2.804-3.859 2.804c-1.752 1.273-4.125 1.273-5.878 0-1.752-1.273-2.486-3.53-1.816-5.59l1.474-4.537-3.859-2.805c-1.752-1.273-2.486-3.53-1.816-5.59.669-2.061 2.589-3.455 4.755-3.455h4.771l1.474-4.537c.669-2.061 2.589-3.455 4.755-3.455s4.086 1.395 4.755 3.455l1.474 4.537h4.771c2.166 0 4.086 1.395 4.755 3.455s-.064 4.316-1.816 5.59l-3.859 2.805 1.474 4.537c.669 2.06-.064 4.316-1.816 5.59-.879.637-1.91.955-2.941.955z" fill="#ff7eb8"/></g><g><path d="m79.099 470.925c-1.031 0-2.062-.318-2.939-.955l-3.859-2.804-3.859 2.804c-1.752 1.273-4.125 1.273-5.878 0-1.752-1.273-2.486-3.53-1.816-5.59l1.474-4.536-3.859-2.805c-1.752-1.273-2.486-3.53-1.816-5.59.669-2.061 2.589-3.455 4.755-3.455h4.771l1.474-4.537c.669-2.061 2.589-3.455 4.755-3.455s4.086 1.395 4.755 3.455l1.474 4.537h4.771c2.166 0 4.086 1.395 4.755 3.455s-.064 4.316-1.816 5.59l-3.859 2.805 1.474 4.536c.669 2.06-.064 4.316-1.816 5.59-.878.636-1.91.955-2.941.955z" fill="#ff7eb8"/></g><g><path d="m363.094 49.12c-1.031 0-2.062-.318-2.939-.955l-3.859-2.804-3.859 2.804c-1.752 1.273-4.125 1.273-5.878 0-1.752-1.273-2.486-3.53-1.816-5.59l1.474-4.537-3.859-2.805c-1.752-1.273-2.486-3.53-1.816-5.59.669-2.061 2.589-3.455 4.755-3.455h4.771l1.474-4.537c.669-2.061 2.589-3.455 4.755-3.455s4.086 1.395 4.755 3.455l1.474 4.537h4.771c2.166 0 4.086 1.395 4.755 3.455s-.064 4.316-1.816 5.59l-3.859 2.805 1.474 4.537c.669 2.06-.064 4.316-1.816 5.59-.878.637-1.91.955-2.941.955z" fill="#01eca5"/></g><g><path d="m68.278 229.501c-1.28 0-2.559-.488-3.536-1.465l-10.5-10.5c-1.953-1.952-1.953-5.118 0-7.07l10.5-10.5c1.953-1.953 5.118-1.953 7.071 0l10.5 10.5c1.953 1.952 1.953 5.118 0 7.07l-10.5 10.5c-.976.977-2.255 1.465-3.535 1.465zm-3.428-15.5 3.429 3.429 3.429-3.429-3.429-3.429z" fill="#8399fe"/></g><g><path d="m441.073 370.245c-1.28 0-2.559-.488-3.536-1.465l-10.5-10.5c-1.953-1.952-1.953-5.118 0-7.07l10.5-10.5c1.953-1.953 5.118-1.953 7.071 0l10.5 10.5c1.953 1.952 1.953 5.118 0 7.07l-10.5 10.5c-.976.977-2.255 1.465-3.535 1.465zm-3.428-15.5 3.429 3.429 3.429-3.429-3.429-3.429z" fill="#ff7eb8"/></g></g></g></svg>