<svg id="Capa_1" enable-background="new 0 0 512 512" height="512" viewBox="0 0 512 512" width="512" xmlns="http://www.w3.org/2000/svg" xmlns:xlink="http://www.w3.org/1999/xlink"><linearGradient id="SVGID_1_" gradientUnits="userSpaceOnUse" x1="109.214" x2="475.492" y1="468.778" y2="32.266"><stop offset="0" stop-color="#ffd9d9" stop-opacity="0"/><stop offset=".9981" stop-color="#ffb3b3"/></linearGradient><g><g><path d="m482.78 48.101c-17.871-56.187-72.42.267-104.338-13.089-29.982-12.546-76.39-67.516-87.741-7.451-30.667 162.283-294.892 54.411-265.924 268.85 10.297 76.226 52.209 171.863 130.662 199.069 102.755 35.634 245.361 17.552 298.262-93.047 49.761-104.033-83.315-217.352 16.209-303.96 13.696-11.918 18.371-33.077 12.87-50.372z" fill="url(#SVGID_1_)"/></g><g><g><path d="m423.574 430.158c21.539-10.12 35.222-30.182 38.152-52.135.26-1.947-.645-3.874-2.31-4.917-12.623-7.911-27.69-11.522-42.756-9.968 4.967-20.291.104-41.131-11.969-56.924-1.193-1.561-3.195-2.283-5.11-1.844-3.645.836-7.201 1.986-10.643 3.405-7.875-14.938-27.411-23.066-36.997-26.268-5.944-1.985-12.789-4.147-20.035-6.436-2.021-.638-4.099-1.295-6.217-1.966l-14.88-31.632v-115.971h13.014c5.772 0 10.45-4.679 10.45-10.45v-16.216c0-5.772-4.679-10.45-10.451-10.45h-114.076c-5.772 0-10.451 4.679-10.451 10.45v16.216c0 5.771 4.679 10.45 10.451 10.45h11.655v26.005c-.274 0-.549.008-.828.055-8.955 1.503-24.323 7.593-31.939 20.647-5.835-1.517-11.862-2.264-17.916-2.185-1.964.026-3.739 1.201-4.529 3-7.996 18.199-7.794 39.598 1.83 58.14-15.006 2.052-28.792 9.123-39.187 19.794-1.371 1.407-1.794 3.493-1.082 5.323 8.038 20.637 26.077 36.895 49.398 41.636 6.112 1.242 12.199 1.615 18.133 1.202l-8.615 19.011h-102.908c-5.52 0-10 4.47-10 10v31.815c-.208 0-.414-.01-.626.017-2.371.301-23.371 3.288-30.356 15.313-1.93 3.323-3.604 8.801-.617 16.022 3.378 8.167 14.015 13.638 31.6 17.695v72.617c0 5.53 4.48 10 10 10h66.064c.037 0 .072.005.109.005h236.35c5.52 0 10-4.48 10-10v-24.888c21.071 9.943 34.039 22.066 39.27 36.583.734 2.038 2.656 3.307 4.704 3.306.562 0 1.136-.096 1.695-.297 2.598-.937 3.944-3.801 3.009-6.399-6.486-18-22.555-32.594-48.678-44.094v-9.278c9.17-.179 18.453-2.235 27.292-6.389zm-74.799-139.165c19.297 6.446 27.633 14.669 31.142 21.31-9.856 5.91-18.26 14.349-24.111 24.821l-24.319-51.696c6.244 1.973 12.13 3.843 17.288 5.565zm-140.424-124.355c5.53-3.178 11.021-4.594 13.05-5.044v30.348c-6.579-7.216-14.492-12.734-23.102-16.43 2.367-3.421 5.723-6.387 10.052-8.874zm-156.952 220.838c-1.543-3.732-.728-5.88.021-7.171 3.656-6.31 17.056-9.538 22.339-10.332v28.739c-15.861-3.928-21.065-8.104-22.36-11.236z" fill="#00c" opacity=".1"/><g><g><g><g><g><path d="m423.574 406.158c-22.569 10.604-48.036 7.601-67.142-5.663 1.981-23.182 15.926-44.703 38.495-55.307 21.539-10.12 45.717-7.847 64.49 3.918 1.664 1.043 2.569 2.97 2.31 4.917-2.931 21.953-16.614 42.015-38.153 52.135z" fill="#ff6c6c"/><path d="m414.578 370.06c-6.83 18.93-21.25 32.92-38.6 39.78-6.95-2.04-13.56-5.19-19.55-9.34 1.99-23.19 15.93-44.71 38.5-55.31 7.51-3.53 15.34-5.55 23.16-6.19 1.26 10.16.21 20.77-3.51 31.06z" fill="#ff4d4d"/></g></g><g><g><path d="m414.579 346.058c-8.461 23.457-28.592 39.342-51.481 43.473-14.991-17.793-20.348-42.871-11.888-66.328 8.074-22.387 26.778-37.876 48.372-42.831 1.915-.439 3.917.283 5.11 1.844 13.451 17.594 17.962 41.456 9.887 63.842z" fill="#ffab66"/><path d="m392.348 321.68c-.13 14.64-11.51 27.64-28.97 33.12-.5.16-1.01.23-1.5.23-2.13 0-4.1-1.36-4.77-3.5-.83-2.64.64-5.44 3.27-6.27 13.05-4.09 21.88-13.61 21.97-23.68.04-4.4-1.77-13.86-15.93-22.63 2.39-2.46 4.97-4.71 7.7-6.75 9.78 6.64 18.35 16.25 18.23 29.48z" fill="#ff9d33"/></g></g></g><g><g><g><path d="m177.147 273.917c24.437 4.967 48.472-3.972 63.899-21.377-7.406-22.056-26.044-39.67-50.481-44.637-23.321-4.741-46.276 3.185-61.735 19.055-1.371 1.407-1.794 3.493-1.082 5.324 8.039 20.637 26.078 36.894 49.399 41.635z" fill="#ff6c6c"/><g><path d="m241.048 252.54c-5.34 6.02-11.71 11.03-18.77 14.8-19.83-1.66-38.75-12.05-50.6-29.95-5.95-8.98-9.46-18.86-10.7-28.87 9.4-2.35 19.46-2.68 29.59-.62 24.43 4.97 43.07 22.58 50.48 44.64z" fill="#ff4d4d"/></g></g></g><g><g><path d="m171.677 213.394c13.767 20.792 37.083 31.466 60.3 30.068 10.359-20.833 9.635-46.466-4.132-67.258-13.139-19.843-34.974-30.47-57.127-30.179-1.964.026-3.739 1.201-4.529 3-8.91 20.275-7.651 44.527 5.488 64.369z" fill="#ffc599"/><path d="m234.678 237.25c-.79 2.11-1.69 4.18-2.7 6.21-2.19.13-4.39.16-6.58.07-25.52-15.15-43.24-33.82-41.18-57.31 1.36-15.58 12.27-25.09 22.79-30.2 3.31 2.03 6.46 4.36 9.41 6.99-2.37.81-5.21 1.98-8.07 3.63-8.65 4.97-13.42 11.85-14.17 20.45-1.73 19.79 15.85 36.39 40.5 50.16z" fill="#ffab66"/></g></g></g><g><g><g><g><path d="m396.281 403.635v53.98c0 5.52-4.48 10-10 10h-236.35c-5.52 0-10-4.48-10-10v-56.03c0-2.85.61-5.66 1.78-8.25l79.69-175.86v-134.53h89.41v134.53l83.57 177.65c1.25 2.66 1.9 5.57 1.9 8.51z" fill="#d9d9ff"/><g><path d="m344.768 289.67c-4.88-1.59-10.25-3.29-15.87-5.06-36.78-11.62-85.21-26.91-115.69-49.06l4.24-9.35c29.21 21.95 79.58 37.86 114.46 48.87 2.4.76 4.75 1.5 7.04 2.23z" fill="#b3b3ff"/></g><g><path d="m396.278 445.81v10.92c-14.37-6.79-32.52-12.55-54.56-17.38-48.34-10.57-107.6-14.81-159.88-18.56-15.15-1.08-29.13-2.11-41.91-3.19v-9.99c13.51 1.13 27.89 2.16 42.62 3.21 52.62 3.77 112.26 8.03 161.31 18.76 20.58 4.5 38.03 9.9 52.42 16.23z" fill="#b3b3ff"/></g><path d="m221.401 82.945h89.41v42.56h-89.41z" fill="#b3b3ff"/><path d="m323.825 101.502h-114.079c-5.772 0-10.451-4.679-10.451-10.451v-16.216c0-5.772 4.679-10.451 10.451-10.451h114.079c5.772 0 10.451 4.679 10.451 10.451v16.216c0 5.772-4.679 10.451-10.451 10.451z" fill="#fff"/></g></g></g><g><g><path d="m298.571 329.373c0 22.555-12.254 42.248-30.461 52.786-18.215-10.539-30.469-30.232-30.469-52.786 0-22.555 12.254-42.248 30.469-52.786 18.207 10.539 30.461 30.231 30.461 52.786z" fill="#ff4d4d"/><g><path d="m311.201 379.406c-15.949 15.949-38.538 21.209-58.865 15.787-5.428-20.332-.168-42.922 15.781-58.871s38.538-21.209 58.871-15.78c5.422 20.325.162 42.915-15.787 58.864z" fill="#ff8b00"/><path d="m225.01 379.406c15.949 15.949 38.538 21.209 58.865 15.787 5.428-20.332.168-42.922-15.781-58.871s-38.538-21.209-58.87-15.78c-5.422 20.325-.162 42.915 15.786 58.864z" fill="#ffab66"/></g></g></g></g></g><g><g><path d="m203.288 304.13v153.48c0 5.53-4.48 10-10 10h-109.53c-5.52 0-10-4.47-10-10v-153.48c0-5.53 4.48-10 10-10h109.53c5.52 0 10 4.47 10 10z" fill="#fff"/><g><g><path d="m203.288 412.32v10.02c-7.25-.53-14.41-1.05-21.45-1.55-48.14-3.44-84.41-6.34-108.08-11.8v-10.28c4.9 1.22 10.83 2.41 17.98 3.54 24.01 3.79 56.46 6.11 90.81 8.57 6.81.49 13.73.98 20.74 1.5z" fill="#d9d9ff"/></g></g></g><g><g><g><path d="m127.818 334.623h-18.583c-2.761 0-5-2.239-5-5s2.239-5 5-5h18.583c2.761 0 5 2.239 5 5s-2.239 5-5 5z" fill="#ff6c6c"/></g><g><g><path d="m167.818 355.005h-58.583c-2.761 0-5-2.239-5-5s2.239-5 5-5h58.583c2.761 0 5 2.239 5 5s-2.239 5-5 5z" fill="#ffab66"/></g><g><path d="m167.818 375.386h-58.583c-2.761 0-5-2.239-5-5s2.239-5 5-5h58.583c2.761 0 5 2.239 5 5s-2.239 5-5 5z" fill="#ffab66"/></g></g></g><g><path d="m167.818 416.556h-40.583c-2.761 0-5-2.239-5-5s2.239-5 5-5h40.583c2.761 0 5 2.239 5 5s-2.239 5-5 5z" fill="#ffab66"/><circle cx="109.235" cy="411.556" fill="#ff6c6c" r="5"/><path d="m114.238 411.56c0 1.35-.54 2.58-1.41 3.48-2.7-.3-5.33-.6-7.88-.91-.45-.75-.71-1.63-.71-2.57 0-2.77 2.24-5 5-5s5 2.23 5 5z" fill="#ff4d4d"/><circle cx="109.235" cy="431.938" fill="#ff6c6c" r="5"/></g><g><path d="m167.818 436.938h-40.583c-2.761 0-5-2.239-5-5s2.239-5 5-5h40.583c2.761 0 5 2.239 5 5s-2.239 5-5 5z" fill="#ffab66"/></g></g></g><path d="m462.073 344.873c-11.76-7.371-25.488-11.204-39.268-11.071 2.874-19.179-2.057-38.821-14.133-54.604-2.371-3.127-6.376-4.579-10.214-3.701-4.241.975-8.345 2.344-12.291 4.033-5.468-7.608-15.604-15.802-34.225-22.021-5.87-1.96-12.62-4.094-19.765-6.35l-16.369-34.795v-86.174c0-2.762-2.238-5-5-5s-5 2.238-5 5v87.29c0 .736.162 1.463.476 2.129l12.902 27.426c-29.934-9.59-66.839-22.301-92.788-38.699v-101.834h97.428c8.52 0 15.45-6.932 15.45-15.451v-16.216c0-8.52-6.931-15.45-15.45-15.45h-114.08c-8.52 0-15.45 6.931-15.45 15.45v16.216c0 8.52 6.931 15.451 15.45 15.451h6.652v21.992c-7.758 2.109-17.91 6.908-24.753 15.36-6.454-1.852-13.19-2.84-20.038-2.84-.32 0-.645.002-.966.007-3.906.06-7.449 2.407-9.031 5.988-8 18.21-8.145 38.466-.823 56.417-13.425 3.133-25.859 10.104-35.531 20.036-2.737 2.796-3.589 6.967-2.167 10.633 8.99 23.079 28.827 39.799 53.064 44.726 3.753.762 7.544 1.214 11.338 1.377l-4.047 8.931h-36.408c-2.762 0-5 2.238-5 5s2.238 5 5 5h46.252c2.757 0 5 2.243 5 5v83.825c-5.301-.386-10.553-.762-15.735-1.133-34.354-2.459-66.803-4.781-90.819-8.573-4.872-.769-9.169-1.567-12.97-2.382v-71.736c0-2.757 2.243-5 5-5h34.463c2.762 0 5-2.238 5-5s-2.238-5-5-5h-34.463c-8.271 0-15 6.729-15 15v32.581c-7.14 1.468-20.651 5.377-25.988 14.565-1.93 3.323-3.604 8.801-.617 16.022 3.045 7.362 11.991 12.533 26.605 16.453v73.865c0 8.271 6.729 15 15 15l302.515.005c8.271 0 15-6.729 15-15v-22.402c18.13 9.458 29.47 20.765 34.272 34.093.734 2.038 2.656 3.307 4.704 3.306.562 0 1.136-.096 1.695-.297 2.598-.937 3.944-3.801 3.009-6.399-6.062-16.823-20.494-30.67-43.681-41.798v-6.844c8.439-.739 16.637-2.935 24.427-6.592 22.385-10.522 37.704-31.458 40.979-56.002.519-3.88-1.29-7.731-4.611-9.813zm-257.778-253.822v-16.216c0-3.005 2.445-5.45 5.45-5.45h114.08c3.005 0 5.45 2.445 5.45 5.45v16.216c0 3.006-2.445 5.451-5.45 5.451h-114.08c-3.005 0-5.45-2.445-5.45-5.451zm196.423 194.207c12.971 16.953 16.395 39.049 9.157 59.105-4.094 11.343-11.157 20.999-20.572 28.225l-20.596-43.779c14.411-6.268 23.519-18.043 23.638-31.133.021-2.271-.273-5.504-1.541-9.25 3.192-1.317 6.502-2.388 9.914-3.168zm-18.371 12.327c-.082 8.979-7.126 17.508-17.906 22.155l-2.987-6.35c5.121-8.333 12.125-15.284 20.358-20.365.368 1.498.549 3.02.535 4.56zm-33.572-30.592c13.218 4.415 22.931 10.345 28.417 17.119-8.023 4.842-15.055 11.219-20.679 18.774l-18.536-39.401c3.833 1.223 7.47 2.397 10.798 3.508zm-154.596-103.899c.231-2.641.836-5.02 1.716-7.164 7.65 3.219 14.637 7.96 20.503 14.012v31.442c-14.494-11.167-23.48-23.879-22.219-38.29zm22.219-24.114v17.515c-4.547-3.575-9.496-6.572-14.729-8.952 4.631-4.493 10.453-7.119 14.729-8.563zm-45.614 12.04c5.311-.068 10.554.553 15.621 1.786-1.118 2.859-1.888 5.988-2.188 9.417-1.803 20.607 11.625 37.51 32.181 51.577v2.6l-8.545 18.859c-13.074-4.417-24.335-13.038-32.006-24.63-11.77-17.771-13.669-40.051-5.063-59.609zm7.36 118.001c-20.889-4.246-37.986-18.659-45.733-38.572 8.899-9.138 20.493-15.365 32.941-17.772.686 1.172 1.401 2.333 2.157 3.475 8.717 13.17 21.427 23.042 36.198 28.26l-11.708 25.84c-4.624.105-9.271-.301-13.855-1.231zm-126.745 94.455c-1.543-3.732-.728-5.88.021-7.171 2.773-4.786 11.152-7.798 17.345-9.321v26.385c-11.996-3.518-16.218-7.116-17.366-9.893zm27.365 94.139v-71.542c23.657 4.777 58.21 7.51 103.075 10.721 5.414.387 10.906.781 16.449 1.186v59.635c0 2.757-2.243 5-5 5h-109.524c-2.757 0-5-2.243-5-5zm312.514.005c0 2.757-2.243 5-5 5h-178.867c.557-1.568.877-3.248.877-5.005v-58.895c45.148 3.394 93.089 7.807 133.43 16.632 19.563 4.28 36.045 9.311 49.561 15.131v27.137zm-47.423-52.037c-41.194-9.011-89.861-13.465-135.566-16.891v-84.563c0-7.897-6.137-14.372-13.89-14.944l31.443-69.397c28.941 17.076 67.747 29.656 99.149 39.587l64.862 137.872c.933 1.985 1.426 4.192 1.426 6.384v16.074c-13.379-5.431-29.164-10.127-47.424-14.122zm77.598-3.949c-6.446 3.026-13.214 4.888-20.175 5.597v-3.601c0-3.651-.821-7.329-2.376-10.639l-5.258-11.177c11.81-8.514 20.635-20.199 25.637-34.056.465-1.288.886-2.585 1.275-3.887 12.659-.605 25.397 2.701 36.215 9.487-2.823 21.161-16.026 39.208-35.318 48.276z" fill="#00c"/></g><g fill="#8383ff"><circle cx="268.106" cy="151.018" r="5"/><circle cx="268.106" cy="170.642" r="5"/><circle cx="268.106" cy="190.265" r="5"/></g><path d="m172.818 411.56c0 2.76-2.24 5-5 5h-40.58c-.49 0-.95-.07-1.4-.2 0 0-.01 0-.02 0-2.07-.62-3.58-2.53-3.58-4.8 0-2.77 2.24-5 5-5h.86c13.88 1.29 28.92 2.42 44.51 3.55.14.46.21.95.21 1.45z" fill="#ff9d33"/></g><g><path d="m80.444 273.772c-2.762 0-5-2.238-5-5 0-3.492-2.842-6.333-6.334-6.333-2.762 0-5-2.238-5-5s2.238-5 5-5c3.492 0 6.334-2.841 6.334-6.333 0-2.762 2.238-5 5-5s5 2.238 5 5c0 3.492 2.841 6.333 6.333 6.333 2.762 0 5 2.238 5 5s-2.238 5-5 5c-3.492 0-6.333 2.841-6.333 6.333 0 2.762-2.238 5-5 5z" fill="#ff6c6c"/></g><g><path d="m138.523 97.635c-2.762 0-5-2.238-5-5 0-3.492-2.841-6.333-6.333-6.333-2.762 0-5-2.238-5-5s2.238-5 5-5c3.492 0 6.333-2.842 6.333-6.334 0-2.762 2.238-5 5-5s5 2.238 5 5c0 3.492 2.842 6.334 6.334 6.334 2.762 0 5 2.238 5 5s-2.238 5-5 5c-3.492 0-6.334 2.841-6.334 6.333 0 2.761-2.239 5-5 5z" fill="#ff6c6c"/></g><g><path d="m473.104 448.542c-2.762 0-5-2.238-5-5 0-3.492-2.841-6.333-6.333-6.333-2.762 0-5-2.238-5-5s2.238-5 5-5c3.492 0 6.333-2.842 6.333-6.334 0-2.762 2.238-5 5-5s5 2.238 5 5c0 3.492 2.842 6.334 6.334 6.334 2.762 0 5 2.238 5 5s-2.238 5-5 5c-3.492 0-6.334 2.841-6.334 6.333 0 2.762-2.239 5-5 5z" fill="#ffab66"/></g><g><path d="m113.235 126.516c-1.279 0-2.56-.488-3.535-1.465l-5.465-5.464-5.465 5.464c-1.951 1.953-5.119 1.953-7.07 0-1.953-1.952-1.953-5.118 0-7.07l9-9c1.951-1.953 5.119-1.953 7.07 0l9 9c1.953 1.952 1.953 5.118 0 7.07-.976.976-2.256 1.465-3.535 1.465z" fill="#8383ff"/></g><g><path d="m405.278 244.272c-1.279 0-2.56-.488-3.535-1.465l-5.465-5.464-5.465 5.464c-1.951 1.953-5.119 1.953-7.07 0-1.953-1.952-1.953-5.118 0-7.07l9-9c1.951-1.953 5.119-1.953 7.07 0l9 9c1.953 1.952 1.953 5.118 0 7.07-.975.977-2.255 1.465-3.535 1.465z" fill="#8383ff"/></g></g></g></svg>