<svg id="Capa_1" enable-background="new 0 0 512 512" height="512" viewBox="0 0 512 512" width="512" xmlns="http://www.w3.org/2000/svg" xmlns:xlink="http://www.w3.org/1999/xlink"><linearGradient id="SVGID_1_" gradientUnits="userSpaceOnUse" x1="123.318" x2="497.13" y1="431.382" y2="57.57"><stop offset="0" stop-color="#fff" stop-opacity="0"/><stop offset="1" stop-color="#b6c4ff"/></linearGradient><g><g><path d="m495.348 57.773c-74.529-101.929-182.648 53.345-259.319 87.966-32.294 14.582-59.67-47.055-119.087 1.693-11.576 9.497-21.487 20.814-31.421 32.022-62.467 70.481-103.469 103.581-77.7 135.861 35.919 44.994 104.084 11.258 151.014 30.186 73.994 29.844 81.013 169.553 185.626 138.39 105.905-31.548 33.769-140.317 61.901-209.906 7.348-18.176 24.611-30.18 39.58-42.84 48.581-41.089 90.448-117.241 49.406-173.372z" fill="url(#SVGID_1_)"/></g><g><path d="m447.026 359.489h-40.644c-2.761 0-5 2.239-5 5v19.051h-60.029c-1.905 0-3.542 1.08-4.386 2.648l-47.411-47.411v-51.082l74.249 74.249c1.995 1.995 5.255 1.954 7.183-.105 56.403-60.247 55.208-154.825-3.584-213.618-22.125-22.125-49.321-36.089-77.848-41.898v-15.384c0-5.523-4.477-10-10-10h-83.651c-5.523 0-10 4.477-10 10v30.609c-11.42 6.152-22.23 13.844-32.112 23.095-2.059 1.928-2.1 5.189-.105 7.183l32.217 32.217v51.082l-117.034-117.033c-3.282-3.282-8.894-.958-8.894 3.684v311.256c0 5.755 4.665 10.42 10.42 10.42h115.508v25.608c0 5.523 4.477 10 10 10h83.651c5.523 0 10-4.477 10-10v-25.608h46.798v6.657c0 2.76 2.24 5 5 5h96.12c2.76 0 5-2.24 5-5v-39.977h4.553c2.761 0 5-2.239 5-5v-40.644c-.001-2.761-2.239-4.999-5.001-4.999zm-104.046-186.845c29.387 29.387 39.69 70.378 30.398 106.285l-83.823-83.823v-52.872c19.395 4.838 38.007 14.993 53.425 30.41zm-181.881 215.843c-25.071 0-45.397-20.326-45.397-45.406 0-25.071 20.326-45.397 45.397-45.397 9.157 0 17.674 2.721 24.806 7.385v76.033c-7.132 4.665-15.649 7.385-24.806 7.385z" fill="#2626bc" opacity=".1"/><g><g><g><path d="m367.403 124.221c-58.786-58.786-153.364-59.98-213.611-3.577-2.059 1.928-2.1 5.189-.105 7.183l210.117 210.117c1.995 1.995 5.255 1.954 7.183-.105 56.404-60.247 55.209-154.826-3.584-213.618zm-130.701-5.968c35.9-9.298 76.891 1.004 106.278 30.391s39.69 70.378 30.399 106.285z" fill="#9eaffd"/><g><g><path d="m346.89 288.483 13.572-13.572c1.952-1.952 1.952-5.119 0-7.071s-5.119-1.952-7.071 0l-13.572 13.572c-1.952 1.952-1.952 5.119 0 7.071s5.118 1.953 7.071 0z" fill="#d1ddff"/></g><g><path d="m329.805 271.399 5.087-5.087c1.952-1.952 1.952-5.119 0-7.071s-5.119-1.952-7.071 0l-5.087 5.087c-1.952 1.952-1.952 5.119 0 7.071s5.119 1.952 7.071 0z" fill="#d1ddff"/></g><g><path d="m312.721 254.314 5.087-5.087c1.952-1.952 1.952-5.119 0-7.071s-5.119-1.952-7.071 0l-5.087 5.087c-1.952 1.952-1.952 5.119 0 7.071 1.952 1.953 5.118 1.953 7.071 0z" fill="#d1ddff"/></g><g><path d="m295.636 237.23 5.087-5.087c1.952-1.952 1.952-5.119 0-7.071s-5.119-1.952-7.071 0l-5.087 5.087c-1.952 1.952-1.952 5.119 0 7.071s5.119 1.952 7.071 0z" fill="#d1ddff"/></g><g><path d="m278.552 220.145 13.572-13.572c1.952-1.952 1.952-5.119 0-7.071s-5.119-1.952-7.071 0l-13.572 13.572c-1.952 1.952-1.952 5.119 0 7.071s5.119 1.953 7.071 0z" fill="#d1ddff"/></g><g><path d="m261.468 203.061 5.087-5.087c1.952-1.952 1.952-5.119 0-7.071s-5.119-1.952-7.071 0l-5.087 5.087c-1.952 1.952-1.952 5.119 0 7.071s5.118 1.952 7.071 0z" fill="#d1ddff"/></g><g><path d="m244.383 185.977 5.087-5.087c1.952-1.952 1.952-5.119 0-7.071s-5.119-1.952-7.071 0l-5.087 5.087c-1.952 1.952-1.952 5.119 0 7.071s5.119 1.952 7.071 0z" fill="#d1ddff"/></g><g><path d="m227.299 168.892 5.087-5.087c1.952-1.952 1.952-5.119 0-7.071s-5.119-1.952-7.071 0l-5.087 5.087c-1.952 1.952-1.952 5.119 0 7.071s5.118 1.953 7.071 0z" fill="#d1ddff"/></g><g><path d="m210.214 151.808 13.572-13.572c1.952-1.952 1.952-5.119 0-7.071s-5.119-1.952-7.071 0l-13.572 13.572c-1.952 1.952-1.952 5.119 0 7.071s5.119 1.952 7.071 0z" fill="#d1ddff"/></g></g></g><g><g><g><path d="m59.98 125.78v283.25c0 5.76 4.66 10.42 10.42 10.42h283.25l-1.765-7.765-282.731-282.731zm101.12 238.71c-25.07 0-45.4-20.33-45.4-45.41 0-25.07 20.33-45.4 45.4-45.4s45.4 20.33 45.4 45.4c0 25.08-20.33 45.41-45.4 45.41z" fill="#02ffb2"/><path d="m381.652 419.456h-27.989l-293.689-293.688v-27.99c0-4.647 5.617-6.971 8.899-3.689l316.467 316.468c3.283 3.282.959 8.899-3.688 8.899z" fill="#01eba4"/></g><g><g><path d="m85.663 185.087h19.194c2.761 0 5 2.239 5 5s-2.239 5-5 5h-19.194c-2.761 0-5-2.239-5-5s2.238-5 5-5z" fill="#dbfced"/></g><g><path d="m85.663 209.248h7.194c2.761 0 5 2.239 5 5s-2.239 5-5 5h-7.194c-2.761 0-5-2.239-5-5s2.238-5 5-5z" fill="#dbfced"/></g><g><path d="m85.663 233.409h7.194c2.761 0 5 2.239 5 5s-2.239 5-5 5h-7.194c-2.761 0-5-2.239-5-5s2.238-5 5-5z" fill="#dbfced"/></g><g><path d="m85.663 257.57h7.194c2.761 0 5 2.239 5 5s-2.239 5-5 5h-7.194c-2.761 0-5-2.239-5-5s2.238-5 5-5z" fill="#dbfced"/></g><g><path d="m85.663 281.731h19.194c2.761 0 5 2.239 5 5s-2.239 5-5 5h-19.194c-2.761 0-5-2.239-5-5s2.238-5 5-5z" fill="#dbfced"/></g><g><path d="m85.663 305.892h7.194c2.761 0 5 2.239 5 5s-2.239 5-5 5h-7.194c-2.761 0-5-2.239-5-5s2.238-5 5-5z" fill="#dbfced"/></g><g><path d="m85.663 330.053h7.194c2.761 0 5 2.239 5 5s-2.239 5-5 5h-7.194c-2.761 0-5-2.239-5-5s2.238-5 5-5z" fill="#dbfced"/></g><g><path d="m85.663 354.214h7.194c2.761 0 5 2.239 5 5s-2.239 5-5 5h-7.194c-2.761 0-5-2.239-5-5s2.238-5 5-5z" fill="#dbfced"/></g><g><path d="m85.663 378.375h19.194c2.761 0 5 2.239 5 5s-2.239 5-5 5h-19.194c-2.761 0-5-2.239-5-5s2.238-5 5-5z" fill="#dbfced"/></g></g></g><g><g><g><path d="m260.49 56.94 5 205.63-5 192.49h-64.59c-5.52 0-10-4.48-10-10v-378.12c0-5.52 4.48-10 10-10z" fill="#ff7eb7"/><path d="m260.489 455.061h19.066c5.523 0 10-4.477 10-10v-378.122c0-5.523-4.477-10-10-10h-19.066z" fill="#ff5ba7"/></g><g><g><path d="m209.577 425.333h19.194c2.761 0 5-2.239 5-5s-2.239-5-5-5h-19.194c-2.761 0-5 2.239-5 5s2.239 5 5 5z" fill="#ffc3de"/></g><g><path d="m209.577 401.172h7.194c2.761 0 5-2.239 5-5s-2.239-5-5-5h-7.194c-2.761 0-5 2.239-5 5s2.239 5 5 5z" fill="#ffc3de"/></g><g><path d="m209.577 377.011h7.194c2.761 0 5-2.239 5-5s-2.239-5-5-5h-7.194c-2.761 0-5 2.239-5 5s2.239 5 5 5z" fill="#ffc3de"/></g><g><path d="m209.577 352.85h7.194c2.761 0 5-2.239 5-5s-2.239-5-5-5h-7.194c-2.761 0-5 2.239-5 5s2.239 5 5 5z" fill="#ffc3de"/></g><g><path d="m209.577 328.689h19.194c2.761 0 5-2.239 5-5s-2.239-5-5-5h-19.194c-2.761 0-5 2.239-5 5s2.239 5 5 5z" fill="#ffc3de"/></g><g><path d="m209.577 304.528h7.194c2.761 0 5-2.239 5-5s-2.239-5-5-5h-7.194c-2.761 0-5 2.239-5 5s2.239 5 5 5z" fill="#ffc3de"/></g><g><path d="m209.577 280.367h7.194c2.761 0 5-2.239 5-5s-2.239-5-5-5h-7.194c-2.761 0-5 2.239-5 5s2.239 5 5 5z" fill="#ffc3de"/></g><g><path d="m209.577 256.206h7.194c2.761 0 5-2.239 5-5s-2.239-5-5-5h-7.194c-2.761 0-5 2.239-5 5s2.239 5 5 5z" fill="#ffc3de"/></g><g><path d="m209.577 232.044h19.194c2.761 0 5-2.239 5-5s-2.239-5-5-5h-19.194c-2.761 0-5 2.239-5 5s2.239 5 5 5z" fill="#ffc3de"/></g><g><path d="m209.577 207.883h7.194c2.761 0 5-2.239 5-5s-2.239-5-5-5h-7.194c-2.761 0-5 2.239-5 5s2.239 5 5 5z" fill="#ffc3de"/></g><g><path d="m209.577 183.722h7.194c2.761 0 5-2.239 5-5s-2.239-5-5-5h-7.194c-2.761 0-5 2.239-5 5s2.239 5 5 5z" fill="#ffc3de"/></g><g><path d="m209.577 159.561h7.194c2.761 0 5-2.239 5-5s-2.239-5-5-5h-7.194c-2.761 0-5 2.239-5 5s2.239 5 5 5z" fill="#ffc3de"/></g><g><path d="m209.577 135.4h19.194c2.761 0 5-2.239 5-5s-2.239-5-5-5h-19.194c-2.761 0-5 2.239-5 5 0 2.762 2.239 5 5 5z" fill="#ffc3de"/></g></g></g><circle cx="219.174" cy="91.885" fill="#4369fc" r="11"/></g></g></g><g><g><path d="m442.473 364.54v61.57c0 2.76-2.24 5-5 5h-96.12c-2.76 0-5-2.24-5-5v-61.57c0-2.76 2.24-5 5-5h96.12c2.76 0 5 2.24 5 5z" fill="#9eaffd"/><path d="m442.473 364.54v45.59h-36.09c-2.76 0-5-2.24-5-5v-45.59h36.09c2.76 0 5 2.24 5 5z" fill="#8298fd"/><g><path d="m418.704 410.13h-58.583c-2.761 0-5-2.239-5-5s2.239-5 5-5h58.583c2.761 0 5 2.239 5 5s-2.239 5-5 5z" fill="#fff"/></g><g><g><path d="m378.704 389.749h-18.583c-2.761 0-5-2.239-5-5s2.239-5 5-5h18.583c2.761 0 5 2.239 5 5s-2.239 5-5 5z" fill="#fff"/></g><path d="m423.704 405.13c0-2.761-2.239-5-5-5h-17.321v5c0 2.76 2.24 5 5 5h12.321c2.761 0 5-2.239 5-5z" fill="#d1ddff"/></g></g><g><path d="m447.026 386.133h-40.644c-2.761 0-5-2.239-5-5v-40.644c0-2.761 2.239-5 5-5h40.644c2.761 0 5 2.239 5 5v40.644c0 2.761-2.238 5-5 5z" fill="#02ffb2"/><path d="m447.026 330.489h-40.645c-5.514 0-10 4.486-10 10v14.051h-55.021c-1.454 0-2.832.319-4.079.879l-42.725-42.725v-36.927l65.718 65.717c1.871 1.861 4.442 2.92 7.079 2.92.058 0 .115 0 .173-.001 2.727-.048 5.253-1.168 7.115-3.155 28.211-30.132 43.393-69.497 42.75-110.844-.644-41.44-17.142-80.406-46.455-109.719-21.125-21.125-47.465-35.703-76.38-42.364v-11.382c0-8.271-6.729-15-15-15h-83.651c-8.271 0-15 6.729-15 15v27.668c-10.997 6.197-21.263 13.706-30.533 22.385-1.993 1.866-3.112 4.399-3.153 7.133-.041 2.698 1.033 5.337 2.936 7.231l30.75 30.75v110.633c-6.221-2.662-12.939-4.049-19.805-4.049-27.791 0-50.4 22.605-50.4 50.39 0 27.791 22.609 50.4 50.4 50.4 6.866 0 13.584-1.388 19.805-4.049v49.02h-110.505c-2.989 0-5.42-2.432-5.42-5.42v-311.261c0-.105 0-.138.126-.19.129-.054.153-.028.229.045l92.38 92.37c1.952 1.953 5.119 1.953 7.071 0 1.953-1.953 1.953-5.118 0-7.071l-92.38-92.37c-2.93-2.93-7.297-3.799-11.126-2.213-3.827 1.585-6.299 5.286-6.299 9.429v311.26c0 8.503 6.917 15.42 15.42 15.42h110.505v20.611c0 8.271 6.729 15 15 15h83.651c8.271 0 15-6.729 15-15v-20.611h36.804v1.66c0 5.514 4.486 10 10 10h96.11c5.514 0 10-4.486 10-10v-35c5.308-.234 9.557-4.613 9.557-9.978v-40.644c-.002-5.513-4.487-9.999-10.002-9.999zm-40.644 10h40.645l.006 40.644h-4.538c-.008 0-.016-.002-.025-.002s-.016.002-.025.002h-36.063zm-111.826-215.645c16.772 5.278 32.188 14.641 44.889 27.343 24.9 24.892 36.334 59.7 30.94 92.687l-75.829-75.838zm69.308 2.911c57.041 57.04 58.567 147.815 3.471 206.649l-72.78-72.78v-78.447l75.279 75.288c.95.951 2.227 1.465 3.536 1.465.438 0 .88-.058 1.313-.176 1.731-.472 3.077-1.834 3.526-3.571 10.073-38.896-2.072-81.456-31.695-111.069-14.595-14.595-32.492-25.162-51.96-30.721v-25.804c26.205 6.466 50.064 19.92 69.31 39.166zm-206.656-3.465c7.291-6.827 15.241-12.881 23.697-18.086v41.766zm3.892 235.19c-22.276 0-40.4-18.124-40.4-40.4 0-22.271 18.124-40.39 40.4-40.39 6.987 0 13.778 1.793 19.805 5.193v70.404c-6.027 3.4-12.818 5.193-19.805 5.193zm133.456 54.97v-21.158c0-2.761-2.239-5-5-5s-5 2.239-5 5v51.769c0 2.757-2.243 5-5 5h-83.651c-2.757 0-5-2.243-5-5v-378.122c0-2.757 2.243-5 5-5h83.651c2.757 0 5 2.243 5 5v296.671c0 2.761 2.239 5 5 5s5-2.239 5-5v-36.773l36.848 36.848c-.024.283-.043.567-.043.856v49.91h-36.805zm46.804 11.66v-61.57h55.022v16.593c0 5.514 4.486 10 10 10h31.088v34.977z" fill="#2626bc"/></g><path d="m424.596 373.165-9.519-9.519c-1.164-1.164-1.164-3.051 0-4.215l9.519-9.519c1.164-1.164 3.051-1.164 4.215 0l9.519 9.519c1.164 1.164 1.164 3.051 0 4.215l-9.519 9.519c-1.163 1.164-3.051 1.164-4.215 0z" fill="#ff5ba7"/></g></g><g><path d="m453.343 246.044c-7.72 0-14-6.28-14-14s6.28-14 14-14 14 6.28 14 14-6.281 14-14 14zm0-18c-2.206 0-4 1.794-4 4s1.794 4 4 4 4-1.794 4-4-1.795-4-4-4z" fill="#ff5ba7"/></g><g><path d="m143.77 477.024c-7.72 0-14-6.28-14-14s6.28-14 14-14 14 6.28 14 14-6.281 14-14 14zm0-18c-2.206 0-4 1.794-4 4s1.794 4 4 4 4-1.794 4-4-1.795-4-4-4z" fill="#6582fd"/></g><g><path d="m452.026 305.731c-7.72 0-14-6.28-14-14s6.28-14 14-14 14 6.28 14 14-6.28 14-14 14zm0-18c-2.206 0-4 1.794-4 4s1.794 4 4 4 4-1.794 4-4-1.794-4-4-4z" fill="#01eba4"/></g><g><path d="m126.092 92.018c-2.761 0-5-2.239-5-5 0-3.492-2.841-6.333-6.333-6.333-2.761 0-5-2.239-5-5s2.239-5 5-5c3.492 0 6.333-2.841 6.333-6.333 0-2.761 2.239-5 5-5s5 2.239 5 5c0 3.492 2.841 6.333 6.333 6.333 2.761 0 5 2.239 5 5s-2.239 5-5 5c-3.492 0-6.333 2.841-6.333 6.333 0 2.761-2.239 5-5 5z" fill="#6582fd"/></g><g><path d="m401.382 103.351c-2.761 0-5-2.239-5-5 0-3.492-2.841-6.333-6.333-6.333-2.761 0-5-2.239-5-5s2.239-5 5-5c3.492 0 6.333-2.841 6.333-6.333 0-2.761 2.239-5 5-5s5 2.239 5 5c0 3.492 2.841 6.333 6.333 6.333 2.761 0 5 2.239 5 5s-2.239 5-5 5c-3.492 0-6.333 2.841-6.333 6.333 0 2.761-2.239 5-5 5z" fill="#ff5ba7"/></g></g></g></svg>