<svg id="Capa_1" enable-background="new 0 0 512 512" height="512" viewBox="0 0 512 512" width="512" xmlns="http://www.w3.org/2000/svg" xmlns:xlink="http://www.w3.org/1999/xlink"><linearGradient id="SVGID_1_" gradientUnits="userSpaceOnUse" x1="141.121" x2="514.929" y1="486.209" y2="112.402"><stop offset="0" stop-color="#ffdbed"/><stop offset="1" stop-color="#dcfdee"/></linearGradient><g><g><path d="m500.232 408.626c-22.727-30.158-64.915-53.759-64.561-95.661.185-21.915 13.118-41.294 22.546-61.079 31.104-65.266 38.868-163.195-17.178-213.121-22.628-20.158-72.025-27.587-101.049-19.692-75.041 20.413-16.158 70.286-30.04 104.178-45.058 110-292.932 92.458-308.846 174.437-9.376 48.302 40.633 137.822 163.722 81.126 91.981-42.367 187.226 147.747 291.785 112.924 41.212-13.726 73.762-43.115 43.621-83.112z" fill="url(#SVGID_1_)"/></g><g><g><path d="m391.581 75.354h-265.648c-14.091 0-25.514 11.423-25.514 25.514v354.265c0 14.091 11.423 25.514 25.514 25.514h265.649c5.523 0 10-4.477 10-10v-385.293c-.001-5.523-4.478-10-10.001-10z" fill="#2626bc" opacity=".1"/><g><g><path d="m391.581 431.133h-291.162v-354.266c0-14.091 11.423-25.514 25.514-25.514h265.649c5.523 0 10 4.477 10 10v359.779c-.001 5.523-4.478 10.001-10.001 10.001z" fill="#4369fd"/><path d="m401.581 158.147-25.796-6.166c-4.501-1.076-7.675-5.099-7.675-9.726v-45.216c0-4.627 3.175-8.65 7.675-9.726l25.796-6.166z" fill="#01eca5"/><path d="m401.581 229.913-25.796-6.166c-4.501-1.076-7.675-5.099-7.675-9.726v-45.217c0-4.627 3.175-8.65 7.675-9.726l25.796-6.166z" fill="#ffa8cf"/><path d="m100.419 431.133v-354.266c0-14.091 11.423-25.514 25.514-25.514v379.779h-25.514z" fill="#ff7eb8"/><path d="m391.581 456.647h-265.648c-14.091 0-25.514-11.423-25.514-25.514 0-14.091 11.423-25.514 25.514-25.514h265.649c5.523 0 10 4.477 10 10v31.028c-.001 5.522-4.478 10-10.001 10z" fill="#fff"/><path d="m401.581 425.212h-100.053c-2.761 0-5 2.239-5 5 0 2.761 2.239 5 5 5h100.053z" fill="#d2deff"/><g fill="#2626bc"><path d="m401.581 336.142c-2.762 0-5 2.238-5 5v105.505c0 2.757-2.243 5-5 5h-265.648c-11.312 0-20.514-9.202-20.514-20.514v-354.266c0-11.312 9.202-20.514 20.514-20.514h55.84c2.762 0 5-2.238 5-5s-2.238-5-5-5h-55.84c-16.825 0-30.514 13.688-30.514 30.514v354.266c0 16.825 13.688 30.514 30.514 30.514h265.648c8.271 0 15-6.729 15-15v-105.505c0-2.762-2.238-5-5-5z"/><path d="m391.581 46.354h-180.999c-2.762 0-5 2.238-5 5s2.238 5 5 5h180.999c2.757 0 5 2.243 5 5v250.979c0 2.762 2.238 5 5 5s5-2.238 5-5v-250.979c0-8.272-6.728-15-15-15z"/></g></g><g><path d="m341.678 377.313h-171.356c-5.523 0-10-4.477-10-10v-47.542c0-5.523 4.477-10 10-10h171.355c5.523 0 10 4.477 10 10v47.542c.001 5.523-4.476 10-9.999 10z" fill="#d2deff"/><g><g><path d="m278.37 213.389c-.416-1.483-2.154-2.161-3.446-1.322-2.383 1.549-4.491 2.322-6.327 2.322-2.139 0-3.576-.821-4.316-2.466-.74-1.641-1.109-4.439-1.109-8.384v-62.474c0-9.04-.617-16.191-1.849-21.454-1.233-5.26-3.661-9.698-7.275-13.316-3.946-3.945-8.878-6.739-14.796-8.384-12.852-3.573-26.577-3.494-39.593-.837-10.807 2.205-22.768 6.274-29.332 15.757-8.379 12.106-.678 30.702 14.671 30.702 19.074.001 26.567-24.569 10.106-34.765 4.478-1.796 13.002-4.277 21.455-1.63 6.575 2.059 11.086 8.195 11.102 15.085v.103 19.235c0 4.439-2.096 7.934-6.288 10.481-17.339 10.534-41.636 11.343-54.992 28.112-6.64 8.337-7.66 20.573-3.854 30.429 4.864 12.595 16.485 17.535 29.377 17.535 15.944 0 28.028-6.658 36.25-19.975.162 6.084 2.053 10.935 5.671 14.55 3.615 3.618 9.945 5.425 18.988 5.425 10.092 0 18.719-2.712 25.878-8.139.757-.574 1.089-1.551.833-2.465zm-50.709-20.369c-4.77 6.743-9.008 10.632-16.029 12.127-5.021 1.069-16.029-.69-16.029-12.542 0-11.385 13.07-16.771 19.481-20.883 6.412-3.945 10.604-7.56 12.577-10.85z" fill="#fff"/></g><circle cx="272.111" cy="91.482" fill="#fff" r="7.5"/></g></g><path d="m266.486 425.212h-104.093c-2.761 0-5 2.239-5 5 0 2.761 2.239 5 5 5h104.093c2.761 0 5-2.239 5-5 0-2.761-2.239-5-5-5z" fill="#d2deff"/><g><g><g><path d="m165.322 272h12.583c2.761 0 5-2.239 5-5s-2.239-5-5-5h-12.583c-2.761 0-5 2.239-5 5s2.239 5 5 5z" fill="#ffa8cf"/></g><g><path d="m165.322 292.381h28.583c2.761 0 5-2.239 5-5s-2.239-5-5-5h-28.583c-2.761 0-5 2.239-5 5s2.239 5 5 5z" fill="#fff"/></g></g></g></g></g><g><path d="m51.559 133.192c-1.031 0-2.062-.318-2.938-.955-1.753-1.272-2.486-3.529-1.816-5.59l1.474-4.537-3.859-2.805c-1.753-1.273-2.486-3.53-1.816-5.59.669-2.061 2.589-3.455 4.755-3.455h4.771l1.475-4.537c.669-2.061 2.589-3.455 4.755-3.455s4.086 1.395 4.755 3.455l1.475 4.537h4.771c2.166 0 4.086 1.395 4.755 3.455.67 2.06-.063 4.316-1.815 5.59l-3.859 2.805 1.474 4.537c.67 2.06-.063 4.316-1.816 5.59-1.752 1.273-4.125 1.273-5.877 0l-3.86-2.804-3.858 2.804c-.884.637-1.915.955-2.946.955z" fill="#ff7eb8"/></g><g><path d="m51.559 72.244c-1.031 0-2.062-.318-2.938-.955-1.753-1.272-2.486-3.529-1.816-5.59l1.474-4.537-3.859-2.805c-1.753-1.273-2.486-3.53-1.816-5.59.669-2.061 2.589-3.455 4.755-3.455h4.771l1.475-4.537c.669-2.061 2.589-3.455 4.755-3.455s4.086 1.395 4.755 3.455l1.475 4.537h4.771c2.166 0 4.086 1.395 4.755 3.455.67 2.06-.063 4.316-1.815 5.59l-3.859 2.805 1.474 4.537c.67 2.06-.063 4.316-1.816 5.59-1.752 1.273-4.125 1.273-5.877 0l-3.86-2.804-3.858 2.804c-.884.637-1.915.955-2.946.955z" fill="#8399fe"/></g><g><path d="m447.308 227.444c-1.031 0-2.062-.318-2.938-.955l-3.86-2.804-3.858 2.804c-1.754 1.273-4.126 1.273-5.878 0-1.753-1.273-2.486-3.53-1.816-5.59l1.474-4.536-3.859-2.805c-1.753-1.273-2.486-3.53-1.816-5.59.669-2.061 2.589-3.455 4.755-3.455h4.771l1.475-4.537c.669-2.061 2.589-3.455 4.755-3.455s4.086 1.395 4.755 3.455l1.475 4.537h4.771c2.166 0 4.086 1.395 4.755 3.455.67 2.06-.063 4.316-1.815 5.59l-3.859 2.804 1.474 4.537c.67 2.06-.063 4.316-1.815 5.59-.884.637-1.915.955-2.946.955z" fill="#01eca5"/></g><g><path d="m449.951 285.5c-1.279 0-2.56-.488-3.535-1.465l-10.5-10.5c-1.953-1.952-1.953-5.118 0-7.07l10.5-10.5c1.951-1.953 5.119-1.953 7.07 0l10.5 10.5c1.953 1.952 1.953 5.118 0 7.07l-10.5 10.5c-.975.977-2.256 1.465-3.535 1.465zm-3.429-15.5 3.429 3.429 3.429-3.429-3.429-3.429z" fill="#8399fe"/></g><g><path d="m440.509 469.966c-1.279 0-2.56-.488-3.535-1.465l-10.5-10.5c-1.953-1.952-1.953-5.118 0-7.07l10.5-10.5c1.951-1.953 5.119-1.953 7.07 0l10.5 10.5c1.953 1.952 1.953 5.118 0 7.07l-10.5 10.5c-.976.977-2.256 1.465-3.535 1.465zm-3.429-15.5 3.429 3.429 3.429-3.429-3.429-3.429z" fill="#ff7eb8"/></g></g></g></svg>