<svg xmlns="http://www.w3.org/2000/svg" viewBox="0 0 1050.06 744.97"><g id="Layer_2" data-name="Layer 2"><g id="Ñëîé_1" data-name="Ñëîé 1"><path d="M241.39,368.08a213.17,213.17,0,0,1-30.1-2.29c-38.29-5.52-67-19-65.29-30.63h0c1.68-11.66,33-16.46,71.29-10.94,18.07,2.61,34.77,7.13,47,12.75,12.61,5.77,19.09,12.12,18.26,17.89C281.37,363.24,264.83,368.08,241.39,368.08ZM148,335.44c-1.47,10.2,27.65,23.19,63.6,28.37s67.55,1,69-9.24c.69-4.74-5.55-10.49-17.12-15.79-12.09-5.53-28.59-10-46.48-12.58-35.94-5.18-67.55-.95-69,9.24Z" fill="#ccc2ff"/><path d="M237.2,409.58c-5.14,0-11.75-4.86-19-14.06-8.33-10.59-16.65-25.77-23.43-42.72s-11.21-33.67-12.48-47.1c-1.3-13.8,1-22.6,6.36-24.76,6.86-2.74,17.13,5.54,28.17,22.72a1,1,0,0,1-1.69,1.08c-10.16-15.82-20-24.23-25.73-21.94-4.45,1.77-6.31,10.06-5.12,22.72,1.26,13.23,5.64,29.76,12.35,46.54s14.93,31.78,23.14,42.23c7.87,10,14.93,14.71,19.37,12.93s6.31-10.06,5.12-22.72c-1.26-13.24-5.64-29.77-12.35-46.55a1,1,0,1,1,1.86-.74c6.78,17,11.21,33.68,12.48,47.1,1.3,13.81-1,22.6-6.37,24.77A7.36,7.36,0,0,1,237.2,409.58Z" fill="#ccc2ff"/><path d="M176.81,400.83a8.2,8.2,0,0,1-5.2-1.6c-5.43-4.28-3.93-16.25,4.14-32.84a1,1,0,1,1,1.79.88c-7.5,15.43-9.25,26.79-4.69,30.38,8.09,6.38,33.91-12.35,56.37-40.89s34.6-58,26.51-64.4-33.91,12.36-56.37,40.9a1,1,0,0,1-1.57-1.24c23.93-30.4,49.93-48.51,59.18-41.23s-2.25,36.8-26.18,67.21C210.43,383.86,188.57,400.83,176.81,400.83Z" fill="#ccc2ff"/><circle cx="214.29" cy="345.01" r="12.67" fill="#ccc2ff"/><path d="M252.1,291a4.29,4.29,0,1,0,4.86-3.63A4.28,4.28,0,0,0,252.1,291Z" fill="#ccc2ff"/><path d="M235.28,407.54a4.29,4.29,0,1,0,4.87-3.64A4.3,4.3,0,0,0,235.28,407.54Z" fill="#ccc2ff"/><path d="M142.74,334.69a4.29,4.29,0,1,0,4.86-3.64A4.29,4.29,0,0,0,142.74,334.69Z" fill="#ccc2ff"/><path d="M267.65,216.19a1.09,1.09,0,0,1-1.09-1.1c0-24.62,12.47-32.1,24.53-39.34s23.47-14.08,23.47-37.46a1.1,1.1,0,1,1,2.19,0c0,24.62-12.47,32.11-24.53,39.35s-23.47,14.07-23.47,37.45A1.1,1.1,0,0,1,267.65,216.19Z" fill="#8b77e8"/><path d="M315.65,216.19a1.09,1.09,0,0,1-1.09-1.1c0-23.38-11.4-30.21-23.47-37.45s-24.53-14.73-24.53-39.35a1.1,1.1,0,1,1,2.19,0c0,23.38,11.4,30.22,23.47,37.46s24.53,14.72,24.53,39.34A1.1,1.1,0,0,1,315.65,216.19Z" fill="#8b77e8"/><path d="M306.06,144.19H277.25a1.1,1.1,0,0,1,0-2.2h28.81a1.1,1.1,0,0,1,0,2.2Z" fill="#8b77e8"/><path d="M304.85,153.79h-26.4a1.1,1.1,0,1,1,0-2.2h26.4a1.1,1.1,0,0,1,0,2.2Z" fill="#8b77e8"/><path d="M298.85,163.39h-14.4a1.1,1.1,0,1,1,0-2.2h14.4a1.1,1.1,0,0,1,0,2.2Z" fill="#8b77e8"/><path d="M306.06,211.39H277.25a1.1,1.1,0,0,1,0-2.2h28.81a1.1,1.1,0,0,1,0,2.2Z" fill="#8b77e8"/><path d="M304.85,201.79h-26.4a1.1,1.1,0,1,1,0-2.2h26.4a1.1,1.1,0,0,1,0,2.2Z" fill="#8b77e8"/><path d="M298.85,192.19h-14.4a1.1,1.1,0,1,1,0-2.2h14.4a1.1,1.1,0,0,1,0,2.2Z" fill="#8b77e8"/><path d="M582.34,310.71H568.63a1.65,1.65,0,0,1-1.65-1.64V295.35a1.65,1.65,0,0,1,1.65-1.65h13.71a1.65,1.65,0,0,1,1.65,1.65v13.72A1.65,1.65,0,0,1,582.34,310.71Zm-12.07-3.29H580.7V297H570.27Z" fill="#8b77e8"/><path d="M582.34,338.48H568.63a1.64,1.64,0,0,1-1.65-1.64V323.12a1.64,1.64,0,0,1,1.65-1.64h13.71a1.64,1.64,0,0,1,1.65,1.64v13.72A1.64,1.64,0,0,1,582.34,338.48Zm-12.07-3.29H580.7V324.77H570.27Z" fill="#8b77e8"/><path d="M582.34,366.26H568.63a1.65,1.65,0,0,1-1.65-1.65V350.89a1.65,1.65,0,0,1,1.65-1.64h13.71a1.65,1.65,0,0,1,1.65,1.64v13.72A1.65,1.65,0,0,1,582.34,366.26ZM570.27,363H580.7V352.54H570.27Z" fill="#8b77e8"/><path d="M659.34,297H602.28a1.65,1.65,0,0,1,0-3.3h57.06a1.65,1.65,0,0,1,0,3.3Z" fill="#8b77e8"/><path d="M637.39,308.52H602.28a1.65,1.65,0,1,1,0-3.29h35.11a1.65,1.65,0,1,1,0,3.29Z" fill="#8b77e8"/><path d="M690.8,297H672.87a1.65,1.65,0,0,1,0-3.3H690.8a1.65,1.65,0,0,1,0,3.3Z" fill="#8b77e8"/><path d="M645.08,324.77h-42.8a1.65,1.65,0,1,1,0-3.29h42.8a1.65,1.65,0,0,1,0,3.29Z" fill="#8b77e8"/><path d="M665.56,336.29H602.28a1.65,1.65,0,1,1,0-3.29h63.28a1.65,1.65,0,0,1,0,3.29Z" fill="#8b77e8"/><path d="M690.8,324.77H658.61a1.65,1.65,0,1,1,0-3.29H690.8a1.65,1.65,0,0,1,0,3.29Z" fill="#8b77e8"/><path d="M659.34,352.54H602.28a1.65,1.65,0,1,1,0-3.29h57.06a1.65,1.65,0,1,1,0,3.29Z" fill="#8b77e8"/><path d="M637.39,364.06H602.28a1.65,1.65,0,1,1,0-3.29h35.11a1.65,1.65,0,1,1,0,3.29Z" fill="#8b77e8"/><path d="M690.8,352.54H672.87a1.65,1.65,0,0,1,0-3.29H690.8a1.65,1.65,0,0,1,0,3.29Z" fill="#8b77e8"/><path d="M618.37,226.82H604.66a1.65,1.65,0,0,1-1.65-1.65V211.46a1.65,1.65,0,0,1,1.65-1.65h13.71a1.65,1.65,0,0,1,1.65,1.65v13.71A1.65,1.65,0,0,1,618.37,226.82Zm-12.07-3.29h10.43V213.1H606.3Z" fill="#8b77e8"/><path d="M618.37,254.59H604.66A1.65,1.65,0,0,1,603,253V239.23a1.65,1.65,0,0,1,1.65-1.65h13.71a1.65,1.65,0,0,1,1.65,1.65V253A1.65,1.65,0,0,1,618.37,254.59ZM606.3,251.3h10.43V240.88H606.3Z" fill="#8b77e8"/><path d="M670.61,213.1h-32.3a1.65,1.65,0,1,1,0-3.29h32.3a1.65,1.65,0,0,1,0,3.29Z" fill="#8b77e8"/><path d="M701.89,224.62H638.31a1.65,1.65,0,1,1,0-3.29h63.58a1.65,1.65,0,1,1,0,3.29Z" fill="#8b77e8"/><path d="M764,213.1H684.14a1.65,1.65,0,0,1,0-3.29H764a1.65,1.65,0,1,1,0,3.29Z" fill="#8b77e8"/><path d="M691,240.88h-52.7a1.65,1.65,0,1,1,0-3.3H691a1.65,1.65,0,0,1,0,3.3Z" fill="#8b77e8"/><path d="M666.92,252.4H638.31a1.65,1.65,0,1,1,0-3.29h28.61a1.65,1.65,0,1,1,0,3.29Z" fill="#8b77e8"/><path d="M736.73,240.88H704.54a1.65,1.65,0,1,1,0-3.3h32.19a1.65,1.65,0,0,1,0,3.3Z" fill="#8b77e8"/><path d="M576.15,128.5H534.84a10.61,10.61,0,0,1-10.59-10.6V97.7a10.6,10.6,0,0,1,10.59-10.59h41.31a10.61,10.61,0,0,1,10.6,10.59v20.2A10.62,10.62,0,0,1,576.15,128.5ZM534.84,89.61a8.1,8.1,0,0,0-8.09,8.09v20.2a8.1,8.1,0,0,0,8.09,8.1h41.31a8.11,8.11,0,0,0,8.1-8.1V97.7a8.11,8.11,0,0,0-8.1-8.09Z" fill="#8b77e8"/><path d="M564.82,108.72l-15.24,8.8a1.05,1.05,0,0,1-1.58-.91V99a1.05,1.05,0,0,1,1.58-.91l15.24,8.81A1.05,1.05,0,0,1,564.82,108.72Z" fill="#8b77e8"/><path d="M927.26,542.83a1.37,1.37,0,0,0,1.37-1.37V522.15a1.37,1.37,0,1,0-2.74,0v19.31A1.37,1.37,0,0,0,927.26,542.83Z" fill="#ccc2ff"/><path d="M937.7,553.27H947a1.37,1.37,0,0,0,0-2.74H937.7a1.37,1.37,0,0,0,0,2.74Z" fill="#ccc2ff"/><path d="M927.26,583a1.37,1.37,0,0,0,1.37-1.37V562.33a1.37,1.37,0,1,0-2.74,0v19.31A1.37,1.37,0,0,0,927.26,583Z" fill="#ccc2ff"/><path d="M907.51,553.27h9.32a1.37,1.37,0,0,0,0-2.74h-9.32a1.37,1.37,0,0,0,0,2.74Z" fill="#ccc2ff"/><path d="M282.28,29.5a1.37,1.37,0,0,0,1.37-1.37V8.82a1.37,1.37,0,1,0-2.74,0V28.13A1.37,1.37,0,0,0,282.28,29.5Z" fill="#ccc2ff"/><path d="M292.71,39.94H302a1.37,1.37,0,1,0,0-2.74h-9.31a1.37,1.37,0,0,0,0,2.74Z" fill="#ccc2ff"/><path d="M282.28,69.68a1.37,1.37,0,0,0,1.37-1.37V49a1.37,1.37,0,0,0-2.74,0V68.31A1.37,1.37,0,0,0,282.28,69.68Z" fill="#ccc2ff"/><path d="M262.53,39.94h9.31a1.37,1.37,0,1,0,0-2.74h-9.31a1.37,1.37,0,0,0,0,2.74Z" fill="#ccc2ff"/><path d="M1034.69,132.72a.92.92,0,0,0,.92-.91v-12.9a.92.92,0,0,0-1.83,0v12.9A.91.91,0,0,0,1034.69,132.72Z" fill="#ccc2ff"/><path d="M1041.66,139.69h6.22a.92.92,0,0,0,0-1.83h-6.22a.92.92,0,1,0,0,1.83Z" fill="#ccc2ff"/><path d="M1034.69,159.55a.92.92,0,0,0,.92-.92V145.74a.92.92,0,1,0-1.83,0v12.89A.92.92,0,0,0,1034.69,159.55Z" fill="#ccc2ff"/><path d="M1021.51,139.69h6.22a.92.92,0,0,0,0-1.83h-6.22a.92.92,0,1,0,0,1.83Z" fill="#ccc2ff"/><path d="M14.1,614.56a.91.91,0,0,0,.91-.91v-12.9a.92.92,0,0,0-1.83,0v12.9A.92.92,0,0,0,14.1,614.56Z" fill="#ccc2ff"/><path d="M21.06,621.53h6.22a.92.92,0,1,0,0-1.83H21.06a.92.92,0,0,0,0,1.83Z" fill="#ccc2ff"/><path d="M14.1,641.39a.92.92,0,0,0,.91-.92V627.58a.92.92,0,0,0-1.83,0v12.89A.92.92,0,0,0,14.1,641.39Z" fill="#ccc2ff"/><path d="M.91,621.53H7.13a.92.92,0,1,0,0-1.83H.91a.92.92,0,0,0,0,1.83Z" fill="#ccc2ff"/><path d="M735.13,353.81a.91.91,0,0,0,.91-.91V340a.92.92,0,0,0-1.83,0v12.9A.92.92,0,0,0,735.13,353.81Z" fill="#ccc2ff"/><path d="M742.09,360.78h6.22a.92.92,0,1,0,0-1.83h-6.22a.92.92,0,0,0,0,1.83Z" fill="#ccc2ff"/><path d="M735.13,380.64a.92.92,0,0,0,.91-.92V366.83a.92.92,0,1,0-1.83,0v12.89A.92.92,0,0,0,735.13,380.64Z" fill="#ccc2ff"/><path d="M721.94,360.78h6.22a.92.92,0,1,0,0-1.83h-6.22a.92.92,0,0,0,0,1.83Z" fill="#ccc2ff"/><path d="M909.82,57.1C852.46,44,804.69,39.08,803.1,46c-1.23,5.38,25.4,16.28,64,27h0c11.42,3.17,23.89,6.32,37,9.31,39.91,9.1,75.18,14.26,93.48,14.21,1.92,0,3.65-.07,5.18-.19,4.85-.38,7.69-1.36,8-3s-1.71-3.64-5.77-6h0C991.19,79.2,954.14,67.2,909.82,57.1Zm-5.05,22.15c-15.15-3.45-29.28-7.12-41.48-10.7h0c-26.16-7.68-43.42-14.9-42.6-18.5,1.2-5.26,40.79-.73,88.43,10.12,29,6.62,54.34,14.06,69.42,20.06h0c9.65,3.84,15.12,7.09,14.65,9.14-.27,1.19-2.49,1.87-6.29,2.11-5.54.34-14.47-.29-25.7-1.76C945.82,87.71,926.11,84.12,904.77,79.25Z" fill="#ddd6ff"/><path d="M1049.2,99.22C1041.57,87.43,983.58,66.48,911.43,50c-79-18-145.06-23.79-147.53-12.92-2.19,9.59,45.85,28.94,111.45,45.73,8.75,2.24,17.81,4.44,27.11,6.55,60.36,13.76,113.16,20.39,135.82,17.9a32.56,32.56,0,0,0,7.79-1.65h0c2.24-.85,3.6-2,3.92-3.32A4.11,4.11,0,0,0,1049.2,99.22Zm-28.59-3.6c-.42,1.85-3.52,3-8.8,3.53l-.25,0c-17.82,1.64-59.82-3.89-107.95-14.86-12-2.73-23.46-5.6-34.2-8.51h0c-45.56-12.35-77.63-25.47-76.14-32,1.84-8.07,54.22-3,117,11.31C962.18,67,1004.92,81.39,1017.13,90.6,1019.68,92.52,1020.93,94.23,1020.61,95.62Z" fill="#ddd6ff"/><circle cx="908.91" cy="61.07" r="61.05" transform="translate(223.03 660.58) rotate(-45)" fill="#f8f7ff"/><path d="M897.89,106a67.85,67.85,0,0,1-27.63,2.32A61,61,0,1,0,938.07,7.43,68.18,68.18,0,0,1,897.89,106Z" fill="#ddd6ff"/><path d="M932.13,85l-2.66-.51-1-.19-2.67-.52-.68-.14-4.69-1-1.82-.38-1.89-.4-2.2-.47-1.71-.37-2.6-.57-1.42-.31-4.07-.92c-15.15-3.45-29.28-7.12-41.48-10.7h0l-2.54-.76-.75-.22L858.22,67l-.74-.22-1.74-.54-.67-.21-1.75-.55-.6-.19-1.8-.58-.46-.15L848.57,64l-.32-.11-2-.67-.17-.06-2.1-.72h0c-15-5.22-23.89-9.75-23.3-12.36.41-1.8,5.33-2.45,13.53-2.1l-5.6-4.53C813.32,42.23,803.79,43,803.1,46c-1.06,4.64,18.62,13.39,48.81,22.57l.66.21,1.94.58,1.21.36,1.73.51,1.56.46,1.54.45,2,.56,1.24.35,3.31.93h0c11.42,3.17,23.89,6.32,37,9.31l4.43,1,1.48.32,2.91.64,1.75.38,2.58.55,1.89.4,2.38.49,2,.41,2.21.45,2.06.41,2.07.41,2.12.41,1.9.36,2.21.42,1.64.31,2,.37h0c8.94,1.63,17.36,3,25,4l2.11-3.3C957.18,89.32,945.31,87.47,932.13,85Z" fill="#ddd6ff"/><path d="M939.52,91.72h0c-3.13-.58-6.32-1.18-9.55-1.82l-.78-.15L925,88.92l-.69-.14-4.91-1-.07,0-4.62-1-1.32-.28-3.59-.79-1.39-.31-4.83-1.08c-12-2.73-23.46-5.6-34.2-8.51h0l-3-.81-.59-.16-3-.83h0l-3.12-.89-.11,0c-5.26-1.5-10.3-3-15.08-4.5h0c-31.89-10-52.5-19.52-51.3-24.77.87-3.8,13-4.68,32-3.06l-9-7.3c-30.86-3.24-51-2.26-52.39,3.66-2.1,9.19,41.91,27.33,103.29,43.61l.76.19c.94.26,1.89.5,2.85.75l.94.25,3.61.93c8.75,2.24,17.81,4.44,27.11,6.55q3.69.85,7.35,1.65l2.27.5,5,1.08,2.6.55,4.62,1,2.62.53,4.51.91,2.56.5,4.49.87,2.43.46,4.52.84,2.28.41,4.55.81,2.12.37,1.88.33,0,0,4,.67,3.28-5.12c-6.16-.91-12.69-2-19.49-3.17Z" fill="#ddd6ff"/><path d="M904.65,19.16c3.76,6.52-2.44,17.14-13.85,23.72s-23.7,6.65-27.47.13,2.44-17.14,13.85-23.73S900.88,12.64,904.65,19.16Z" fill="#fff"/><path d="M243.63,585.26H591.45V501.68H243.63a17.77,17.77,0,0,0-17.77,17.77v48A17.77,17.77,0,0,0,243.63,585.26Z" fill="#ff819f"/><path d="M755.64,576.31V510.63H578.34a8.83,8.83,0,0,0-8.81,8.82v48a8.83,8.83,0,0,0,8.81,8.82Z" fill="#fff"/><path d="M569.53,523.92v43.57a8.82,8.82,0,0,0,8.81,8.82H759.88a4.65,4.65,0,0,1,4.66,3.72,4.48,4.48,0,0,1-4.42,5.23H578.34a17.76,17.76,0,0,1-17.76-17.77V523.92a4.47,4.47,0,0,1,4.47-4.47h0A4.47,4.47,0,0,1,569.53,523.92Z" fill="#f26183"/><path d="M578.34,501.68H759.88a4.65,4.65,0,0,1,4.66,3.73,4.48,4.48,0,0,1-4.42,5.22H578.34a8.82,8.82,0,0,0-8.81,8.82v17.43a4.48,4.48,0,0,1-4.48,4.48h0a4.48,4.48,0,0,1-4.47-4.48V519.44A17.76,17.76,0,0,1,578.34,501.68Z" fill="#f26183"/><rect x="487.09" y="527.83" width="41.33" height="10" fill="#fff"/><rect x="422.87" y="527.83" width="41.33" height="10" fill="#fff"/><rect x="248.69" y="527.83" width="157.32" height="10" fill="#fff"/><rect x="438.8" y="549.11" width="89.63" height="10" fill="#fff"/><rect x="301.36" y="549.11" width="114.69" height="10" fill="#fff"/><path d="M778.38,668.84H415.65V585.26H778.38A17.76,17.76,0,0,1,796.14,603v48.05A17.77,17.77,0,0,1,778.38,668.84Z" fill="#ccc2ff"/><path d="M257.42,659.88V594.21H428.76a8.83,8.83,0,0,1,8.82,8.81v48.05a8.83,8.83,0,0,1-8.82,8.81Z" fill="#fff"/><path d="M437.58,607.5v43.57a8.81,8.81,0,0,1-8.82,8.81H253.19a4.66,4.66,0,0,0-4.66,3.73,4.49,4.49,0,0,0,4.42,5.23H428.76a17.77,17.77,0,0,0,17.77-17.77V607.5a4.48,4.48,0,0,0-4.48-4.48h0A4.48,4.48,0,0,0,437.58,607.5Z" fill="#ddd6ff"/><rect x="764.6" y="606.38" width="10" height="41.33" fill="#fff"/><rect x="472.39" y="606.38" width="22.78" height="41.33" fill="#fff"/><rect x="536.43" y="606.39" width="188.41" height="41.33" fill="#fff"/><path d="M428.77,585.26H253.19a4.65,4.65,0,0,0-4.66,3.72,4.48,4.48,0,0,0,4.42,5.23H428.76a8.82,8.82,0,0,1,8.82,8.81v17.44a4.47,4.47,0,0,0,4.47,4.47h0a4.47,4.47,0,0,0,4.48-4.47V603A17.76,17.76,0,0,0,428.77,585.26Z" fill="#ddd6ff"/><path d="M179.56,745H681.9V668.84H179.56a17.76,17.76,0,0,0-17.77,17.76v40.6A17.77,17.77,0,0,0,179.56,745Z" fill="#8b77e8"/><path d="M203.54,668.84h30a17.76,17.76,0,0,0-17.76,17.76v40.6A17.77,17.77,0,0,0,233.54,745h-30a17.77,17.77,0,0,1-17.76-17.77V686.6A17.76,17.76,0,0,1,203.54,668.84Z" fill="#ccc2ff"/><path d="M593.37,668.84h30a17.76,17.76,0,0,0-17.76,17.76v40.6A17.77,17.77,0,0,0,623.37,745h-30a17.77,17.77,0,0,1-17.76-17.77V686.6A17.76,17.76,0,0,1,593.37,668.84Z" fill="#ccc2ff"/><path d="M840.13,736V677.79H668.79A8.82,8.82,0,0,0,660,686.6v40.6a8.82,8.82,0,0,0,8.81,8.81Z" fill="#fff"/><path d="M660,691.12V727.2a8.81,8.81,0,0,0,8.81,8.81H844.37a4.64,4.64,0,0,1,4.65,3.73,4.48,4.48,0,0,1-4.41,5.23H668.79A17.77,17.77,0,0,1,651,727.2V691.12a4.48,4.48,0,0,1,4.51-4.47h0A4.47,4.47,0,0,1,660,691.12Z" fill="#614dbf"/><path d="M668.79,668.84H844.61a4.48,4.48,0,0,1,4.48,4.47h0a4.48,4.48,0,0,1-4.48,4.48H668.79A8.82,8.82,0,0,0,660,686.6v3.46a4.48,4.48,0,0,1-4.51,4.48h0a4.48,4.48,0,0,1-4.44-4.48V686.6A17.76,17.76,0,0,1,668.79,668.84Z" fill="#614dbf"/><rect x="434.85" y="691.27" width="99.57" height="10" fill="#fff"/><rect x="254.68" y="691.27" width="157.32" height="10" fill="#fff"/><rect x="306.35" y="712.54" width="228.07" height="10" fill="#fff"/><rect x="379.41" y="441.63" width="96.98" height="36.59" fill="#614dbf"/><path d="M450,309.41l-8.32-27.94H414.12l-8.32,27.94s-9.95,31.52,22.1,31.52S450,309.41,450,309.41Z" fill="#ff95a9"/><path d="M408,302c9.35,14.79,30,13.1,41.56,6l-2.49-8.37-18.45-7.38-19.93,7.38Z" fill="#f27290"/><path d="M377.33,433.43a146,146,0,0,1-42.68-15.93,11.08,11.08,0,0,1-5.22-12.63c7.29-26.21,16.18-50.93,27.34-73.56a23.45,23.45,0,0,1,12.39-11.38,206.45,206.45,0,0,1,36.64-10.52c-3.35,14.88,15.22,27,22.09,27s25.41-12,22.1-27a206.45,206.45,0,0,1,36.64,10.52A23.45,23.45,0,0,1,499,331.31c11.16,22.63,20.05,47.35,27.34,73.56a11.08,11.08,0,0,1-5.22,12.63,146,146,0,0,1-42.68,15.93Z" fill="#ffc359"/><path d="M334.65,417.65a145.51,145.51,0,0,0,38.6,15c1.19-4.85,3.69-19.13-5.12-28.68-2-11-34-12.53-38.7,1A11.1,11.1,0,0,0,334.65,417.65Z" fill="#ff95a9"/><path d="M374,428.54c-17.89-1.15-40.88-11.05-45-20a11.09,11.09,0,0,0,5.61,9.13,145.51,145.51,0,0,0,38.6,15A41.1,41.1,0,0,0,374,428.54Z" fill="#f27290"/><path d="M521.21,417.65a145.51,145.51,0,0,1-38.6,15c-1.19-4.85-3.69-19.13,5.12-28.68,2-11,34-12.53,38.7,1A11.1,11.1,0,0,1,521.21,417.65Z" fill="#ff95a9"/><path d="M481.82,428.54c17.89-1.15,40.88-11.05,45-20a11.09,11.09,0,0,1-5.61,9.13,145.57,145.57,0,0,1-38.61,15C482.37,431.65,482.07,430.23,481.82,428.54Z" fill="#f27290"/><polygon points="384.9 362.38 385.74 374.52 380.66 374.52 384.9 362.38" fill="#3f327a"/><polygon points="470.88 362.38 470.05 374.52 475.13 374.52 470.88 362.38" fill="#3f327a"/><path d="M427.9,333.42c-6.88,0-20.74-8.76-22.1-24q-3.07.6-6,1.24a23.27,23.27,0,0,0,.85,9.29c4.62,14.12,18.09,22.79,27.23,22.79s22.6-8.67,27.22-22.79a23.27,23.27,0,0,0,.85-9.29q-2.91-.64-6-1.24C448.63,324.66,434.77,333.42,427.9,333.42Z" fill="#fff"/><path d="M489.52,373.78H366.27a4,4,0,0,0-3.44,2l-2.15,3.67H495.11L493,375.75A4,4,0,0,0,489.52,373.78Z" fill="#fff"/><path d="M476.67,452H379.12a4.5,4.5,0,0,1-4.41-3.55l-14.41-66a4.58,4.58,0,0,1,4.47-5.55H491a4.58,4.58,0,0,1,4.47,5.55l-14.41,66A4.5,4.5,0,0,1,476.67,452Z" fill="#ccc2ff"/><path d="M478.41,447.88l11-50.64c-17.84,28.4-69.52,54.36-114.91,37.69l2.83,12.95a1.78,1.78,0,0,0,1.74,1.4h97.55A1.78,1.78,0,0,0,478.41,447.88Z" fill="#ddd6ff"/><path d="M436.6,419.75H419.19a5.29,5.29,0,0,1-5.29-5.3h0a5.29,5.29,0,0,1,5.29-5.29H436.6a5.29,5.29,0,0,1,5.29,5.29h0A5.29,5.29,0,0,1,436.6,419.75Z" fill="#fff"/><path d="M471,505.67c35.29,5.7,58.24-1.95,58.24-13.61,0-4.71-7.2-22.67-57.12-1.84Z" fill="#ddd6ff"/><path d="M472.48,502.72c23.18,2.79,34.66-1,34.83-8.77.06-2.8-4.11-10.79-34-.41Z" fill="#ccc2ff"/><path d="M524.75,492.78c0-3.26-3.32-12.66-20.88-11.95,21.55-2.71,25.41,7.79,25.41,11.23,0,6.59-7.34,11.9-20.09,14.24C519.13,503.54,524.75,498.66,524.75,492.78Z" fill="#fff"/><path d="M494.81,486.58a10.17,10.17,0,0,1,7.4,7.34,11.82,11.82,0,0,1-2.41,10.21,26.67,26.67,0,0,0,1.05-5,14,14,0,0,0-.32-4.8,11.77,11.77,0,0,0-2.07-4.29A19.25,19.25,0,0,0,494.81,486.58Z" fill="#fff"/><path d="M487.1,488.63a8.5,8.5,0,0,1,3.9,2.69,9.42,9.42,0,0,1,2,4.44,10.09,10.09,0,0,1-.42,4.85,8.57,8.57,0,0,1-2.68,3.9,15.45,15.45,0,0,0,1.47-4.23,12.2,12.2,0,0,0,.05-4.26,11.09,11.09,0,0,0-1.44-4A14.59,14.59,0,0,0,487.1,488.63Z" fill="#fff"/><path d="M480,490.7a5.66,5.66,0,0,1,3.08,2.51,8.11,8.11,0,0,1,1.17,3.92,8.82,8.82,0,0,1-.79,4,6.52,6.52,0,0,1-2.59,3,11.12,11.12,0,0,0,1.62-3.37,11.75,11.75,0,0,0,.43-3.58A8.83,8.83,0,0,0,480,490.7Z" fill="#fff"/><path d="M477.2,487.18c-18.62-12.26-58.13-31.56-96.51-40.87s-63.8-6.47-66.95,0,2,27.74,19.84,36.61C368,500,472.71,506.6,472.71,506.6,475.21,501.71,476.84,493.19,477.2,487.18Z" fill="#8b77e8"/><path d="M390.26,497.55c39.81,6.38,82.45,9.05,82.45,9.05,2.5-4.89,4.13-13.41,4.49-19.42a255.5,255.5,0,0,0-26-14.6Z" fill="#614dbf"/><path d="M334,472c-21-8.43-21.13-22.35-20.48-25.15-2.62,7.06,2.73,27.42,20.08,36.05,12.28,6.11,33.52,10.88,55.76,14.48l44.32-18-6.58-17C406.79,469.46,363.81,484,334,472Z" fill="#614dbf"/><path d="M384.75,505.67c-35.29,5.7-58.24-1.95-58.24-13.61,0-4.71,7.2-22.67,57.12-1.84Z" fill="#ddd6ff"/><path d="M383.31,502.72c-23.18,2.79-34.66-1-34.83-8.77-.06-2.8,4.11-10.79,34-.41Z" fill="#ccc2ff"/><path d="M331,492.78c0-3.26,3.32-12.66,20.88-11.95-21.55-2.71-25.41,7.79-25.41,11.23,0,6.59,7.34,11.9,20.09,14.24C336.66,503.54,331,498.66,331,492.78Z" fill="#fff"/><path d="M361,486.58a19.25,19.25,0,0,0-3.65,3.48,11.77,11.77,0,0,0-2.07,4.29,14,14,0,0,0-.32,4.8,26.67,26.67,0,0,0,1.05,5,11.82,11.82,0,0,1-2.41-10.21,10.17,10.17,0,0,1,7.4-7.34Z" fill="#fff"/><path d="M368.69,488.63a14.59,14.59,0,0,0-2.88,3.41,11.09,11.09,0,0,0-1.44,4,12.2,12.2,0,0,0,.05,4.26,15.45,15.45,0,0,0,1.47,4.23,8.57,8.57,0,0,1-2.68-3.9,10.09,10.09,0,0,1-.42-4.85,9.42,9.42,0,0,1,2-4.44A8.5,8.5,0,0,1,368.69,488.63Z" fill="#fff"/><path d="M375.8,490.7a8.83,8.83,0,0,0-2.92,6.48,11.45,11.45,0,0,0,.43,3.58,11.12,11.12,0,0,0,1.62,3.37,6.52,6.52,0,0,1-2.59-3,8.82,8.82,0,0,1-.79-4,8.11,8.11,0,0,1,1.17-3.92A5.66,5.66,0,0,1,375.8,490.7Z" fill="#fff"/><path d="M378.59,487.18c18.62-12.26,58.13-31.56,96.51-40.87s63.8-6.47,66.95,0-2,27.74-19.84,36.61C487.8,500,383.08,506.6,383.08,506.6,380.58,501.71,379,493.19,378.59,487.18Z" fill="#8b77e8"/><path d="M542.47,447.46c-11.68,21.59-37,40.82-89.74,48.06-45.07,6.19-66.8,7.57-74-6.19.56,5.76,2.1,12.94,4.31,17.27,0,0,104.72-6.56,139.13-23.68C539.11,474.52,544.62,455,542.47,447.46Z" fill="#614dbf"/><path d="M400.86,261.14c-15.92-7.65-21.42-31.09-13.77-39.57s.33-19.46.33-19.46c20.63,2.66,15.34-13.54,31.47-16.4,11.67-2.06,13.52,9.25,24.33-1.81a14.14,14.14,0,0,1-1.58,12.89c22,2.57,41,24.3,17.59,61.55L430.56,267Z" fill="#3f327a"/><path d="M461.05,245.05c0,36.42-11.17,63.2-33.15,63.2s-33.16-26.78-33.16-63.2c0-21,8.43-41.58,33.16-41.58S461.05,220.43,461.05,245.05Z" fill="#ff95a9"/><path d="M395,244.71C390,242,384.42,246,387.8,258c2.94,10.38,8.23,9.78,9,8C397.61,263.9,395,244.71,395,244.71Z" fill="#ff95a9"/><path d="M460.76,244.71c5-2.74,10.61,1.33,7.23,13.25-2.94,10.38-8.23,9.78-9,8C458.18,263.9,460.76,244.71,460.76,244.71Z" fill="#ff95a9"/><path d="M400.33,233.42c5-10.61,30.8-13.16,39.55.25,0,0,4.07-4.67,3.2-9.65,9.25.77,12.87,10.58,12.87,10.58L463,230l-6.3-21.69-28.85-12.8L393.3,208.57l-.67,24.17Z" fill="#3f327a"/></g></g></svg>