<svg id="Capa_1" enable-background="new 0 0 512 512" height="512" viewBox="0 0 512 512" width="512" xmlns="http://www.w3.org/2000/svg" xmlns:xlink="http://www.w3.org/1999/xlink"><linearGradient id="SVGID_1_" gradientUnits="userSpaceOnUse" x1="17.159" x2="333.388" y1="480.417" y2="164.188"><stop offset="0" stop-color="#fffcff" stop-opacity="0"/><stop offset="1" stop-color="#ffdaec"/></linearGradient><g><g><path d="m508.655 384.737c-10.216-54.127-98.915-80.843-146.65-119.15-36.953-29.655-23.588-69.066-37.482-104.576-19.657-50.239-78.151-7.392-114.518-14.727-21.957-4.429-29.299-31.992-37.62-52.786-22.583-56.436-142.96-132.18-170.753-55.651-9.061 24.949 23.35 53.522 6.202 81.298-24.094 39.025 29.996 72.675 43.586 110.202 29.065 80.257-87.115 180.353-31.023 253.404 48.332 62.946 133.207-18.93 197.771-18.495 97.242.656 323.977 97.911 290.487-79.519z" fill="url(#SVGID_1_)"/></g><g><g><path d="m466.279 194.602h-60.539c-2.761 0-5 2.239-5 5v12.778c0 2.761 2.239 5 5 5h2.172v100.602h-59.625v-76.602l-.055-.003h2.258c2.761 0 5-2.239 5-5v-17.543c0-2.761-2.239-5-5-5h-.987v-3.989c0-11.947-2.246-23.368-6.33-33.871 1.29.1 2.59.166 3.905.166 28.264 0 51.05-23.451 49.963-51.956-.987-25.882-22.054-46.98-47.934-48.003-28.436-1.125-51.853 21.51-52.021 49.656-10.995-5.387-23.2-8.684-36.1-9.362.001-.045.013-.087.013-.133v-16.828c5.461-.806 10.735-3.101 15.127-6.9 4.611-3.989 7.688-9.01 9.236-14.374.401-1.39-1.329-2.363-2.343-1.331-.05.051-.101.102-.152.153-10.012 10.012-26.775 9.184-35.668-2.51-7.202-9.47-6.223-22.555 2.19-30.968.051-.051.101-.101.152-.151 1.034-1.016.055-2.744-1.338-2.342-4.7 1.358-9.136 3.89-12.845 7.599-12.211 12.211-11.687 32.337 1.572 43.869 4.103 3.569 8.984 5.822 14.069 6.769v17.014c0 .045.012.088.013.133-49.322 2.592-88.517 43.403-88.517 93.37v3.989h-.987c-2.761 0-5 2.239-5 5v17.543c0 2.761 2.239 5 5 5h2.207v76.604h-59.63v-100.601h2.172c2.761 0 5-2.239 5-5v-12.778c0-2.761-2.239-5-5-5h-60.536c-2.761 0-5 2.239-5 5v12.778c0 2.761 2.239 5 5 5h2.167v191.506h-7.45c-5.252 0-9.51 4.258-9.51 9.51v78.14c0 5.252 4.258 9.51 9.51 9.51h78.13c5.26 0 9.51-4.26 9.51-9.51v-16.446l331.033.118c2.762.001 5.002-2.238 5.002-5v-257.828h2.167c2.761 0 5-2.239 5-5v-12.778c-.001-2.762-2.239-5-5.001-5z" fill="#2626bc" opacity=".1"/><g><g><g><g><path d="m104.09 314.12h303.821v141.97h-303.821z" fill="#4369fc"/></g><path d="m104.09 314.12h303.821v31.41h-303.821z" fill="#2d58df"/></g><g fill="#ff7eb7"><path d="m138.645 435.887h-8.564c-1.105 0-2-.895-2-2v-91.677c0-1.105.895-2 2-2h8.564c1.105 0 2 .895 2 2v91.678c0 1.104-.896 1.999-2 1.999z"/><path d="m381.919 435.887h-8.564c-1.105 0-2-.895-2-2v-91.677c0-1.105.895-2 2-2h8.564c1.105 0 2 .895 2 2v91.678c0 1.104-.895 1.999-2 1.999z"/></g><g fill="#ff5ba7"><path d="m140.645 356.24v-14.03c0-1.105-.895-2-2-2h-8.564c-1.105 0-2 .895-2 2v14.03z"/><path d="m383.919 356.24v-14.03c0-1.105-.895-2-2-2h-8.564c-1.105 0-2 .895-2 2v14.03z"/></g></g><path d="m410.49 321.525h-308.98c-2.761 0-5-2.239-5-5v-17.544c0-2.761 2.239-5 5-5h308.98c2.761 0 5 2.239 5 5v17.544c0 2.762-2.239 5-5 5z" fill="#02ffb2"/><g><g><path d="m349.503 211.941h-187.006v-26.096c0-51.64 41.863-93.503 93.503-93.503 51.64 0 93.503 41.863 93.503 93.503z" fill="#96ffd1"/><path d="m302.022 104.439c-3.167 6.564-4.943 13.925-4.943 21.701 0 27.614 22.386 50 50 50 .644 0 1.282-.024 1.919-.049-3.189-30.771-21.302-57.106-46.976-71.652z" fill="#02ffb2"/><path d="m256 92.342c-34.871 0-63.139 41.863-63.139 93.503v26.096h126.277v-26.096c.001-51.64-28.267-93.503-63.138-93.503z" fill="#dbfced"/><g fill="#96ffd1"><path d="m298.095 116.162c-.654 3.226-1.016 6.559-1.016 9.978 0 16.679 8.175 31.441 20.728 40.524-2.8-19.883-9.864-37.446-19.712-50.502z"/><path d="m256 92.342c-12.033 0-21.787 41.863-21.787 93.503v26.096h43.574v-26.096c0-51.64-9.754-93.503-21.787-93.503z"/></g></g><path d="m350.49 217.378h-188.98c-2.761 0-5-2.239-5-5v-17.544c0-2.761 2.239-5 5-5h188.98c2.761 0 5 2.239 5 5v17.544c0 2.761-2.239 5-5 5z" fill="#02ffb2"/><g><g><path d="m163.717 217.38h184.57v238.71h-184.57z" fill="#8298fd"/><g><path d="m163.717 217.38h184.57v20h-184.57z" fill="#6582fd"/></g><path d="m183.906 456.09v-110.807l72.093-6.832 72.094 6.832v110.807z" fill="#4369fc"/><path d="m183.906 345.283h144.187v10.961h-144.187z" fill="#2d58df"/><g><path d="m200.417 356.24h16.9v99.85h-16.9z" fill="#b6c4ff"/><path d="m294.677 356.24h16.9v99.85h-16.9z" fill="#b6c4ff"/><g><g><path d="m199.597 441.129h18.545c2.761 0 5 2.239 5 5v9.961h-28.545v-9.961c0-2.762 2.239-5 5-5z" fill="#02ffb2"/></g><g><path d="m293.856 441.129h18.545c2.761 0 5 2.239 5 5v9.961h-28.545v-9.961c0-2.762 2.239-5 5-5z" fill="#02ffb2"/></g></g></g><path d="m328.093 345.283v-13.163c0-3.31-2.69-6-6-6h-4.971c-5.891-28.359-31.016-49.669-61.122-49.669s-55.23 21.311-61.122 49.669h-4.971c-3.31 0-6 2.69-6 6v13.163z" fill="#02ffb2"/><path d="m322.093 326.12h-132.187c-3.31 0-6 2.69-6 6h144.187c0-3.31-2.69-6-6-6z" fill="#96ffd1"/><path d="m301.687 326.12h-91.37c5.64-20.27 24.38-34.67 45.68-34.67 21.31 0 40.05 14.4 45.69 34.67z" fill="#4369fc"/></g><g><g><path d="m199.646 263.548h-13.57c-1.657 0-3-1.343-3-3v-15.465c0-5.404 4.381-9.785 9.785-9.785 5.404 0 9.785 4.381 9.785 9.785v15.465c0 1.657-1.343 3-3 3z" fill="#4369fc"/><path d="m202.642 245.083v9.99c0-2.71-1.1-5.15-2.86-6.92-1.78-1.77-4.22-2.87-6.92-2.87-5.41 0-9.79 4.38-9.79 9.79v-9.99c0-5.4 4.38-9.78 9.79-9.78 2.7 0 5.14 1.1 6.92 2.86 1.76 1.78 2.86 4.22 2.86 6.92z" fill="#2d58df"/></g><g><path d="m231.216 263.548h-13.57c-1.657 0-3-1.343-3-3v-15.465c0-5.404 4.381-9.785 9.785-9.785 5.404 0 9.785 4.381 9.785 9.785v15.465c0 1.657-1.343 3-3 3z" fill="#4369fc"/><path d="m234.212 245.083v9.99c0-2.71-1.1-5.15-2.86-6.92-1.78-1.77-4.22-2.87-6.92-2.87-5.41 0-9.79 4.38-9.79 9.79v-9.99c0-5.4 4.38-9.78 9.79-9.78 2.7 0 5.14 1.1 6.92 2.86 1.76 1.78 2.86 4.22 2.86 6.92z" fill="#2d58df"/></g><g><path d="m262.787 263.548h-13.57c-1.657 0-3-1.343-3-3v-15.465c0-5.404 4.381-9.785 9.785-9.785 5.404 0 9.785 4.381 9.785 9.785v15.465c0 1.657-1.344 3-3 3z" fill="#4369fc"/><path d="m265.782 245.083v9.99c0-2.71-1.1-5.15-2.86-6.92-1.78-1.77-4.22-2.87-6.92-2.87-5.41 0-9.79 4.38-9.79 9.79v-9.99c0-5.4 4.38-9.78 9.79-9.78 2.7 0 5.14 1.1 6.92 2.86 1.76 1.78 2.86 4.22 2.86 6.92z" fill="#2d58df"/></g><g><path d="m292.357 263.548h-11.57c-1.657 0-3-1.343-3-3v-15.465c0-5.404 4.381-9.785 9.785-9.785 5.404 0 9.785 4.381 9.785 9.785v13.465c0 2.761-2.239 5-5 5z" fill="#4369fc"/><path d="m297.353 245.083v9.99c0-2.71-1.1-5.15-2.86-6.92-1.78-1.77-4.22-2.87-6.92-2.87-5.41 0-9.79 4.38-9.79 9.79v-9.99c0-5.4 4.38-9.78 9.79-9.78 2.7 0 5.14 1.1 6.92 2.86 1.76 1.78 2.86 4.22 2.86 6.92z" fill="#2d58df"/></g><g><path d="m325.927 263.548h-13.57c-1.657 0-3-1.343-3-3v-15.465c0-5.404 4.381-9.785 9.785-9.785 5.404 0 9.785 4.381 9.785 9.785v15.465c0 1.657-1.343 3-3 3z" fill="#4369fc"/><path d="m328.923 245.083v9.99c0-2.71-1.1-5.15-2.86-6.92-1.78-1.77-4.22-2.87-6.92-2.87-5.41 0-9.79 4.38-9.79 9.79v-9.99c0-5.4 4.38-9.78 9.79-9.78 2.7 0 5.14 1.1 6.92 2.86 1.76 1.78 2.86 4.22 2.86 6.92z" fill="#2d58df"/></g></g><g><path d="m312.402 356.245h-18.545c-2.761 0-5-2.239-5-5v-5.961h28.545v5.961c0 2.761-2.239 5-5 5z" fill="#d1ddff"/></g><g><path d="m218.143 356.245h-18.545c-2.761 0-5-2.239-5-5v-5.961h28.545v5.961c0 2.761-2.239 5-5 5z" fill="#d1ddff"/></g><g><path d="m294.677 356.24h16.9v10.38h-16.9z" fill="#9eaffd"/></g><g><path d="m200.417 356.24h16.9v10.38h-16.9z" fill="#9eaffd"/></g><path d="m301.687 326.12h-5.63c-8.52-13.37-23.52-22.05-40.06-22.05s-31.53 8.68-40.05 22.05h-5.63c5.64-20.27 24.38-34.67 45.68-34.67 21.31 0 40.05 14.4 45.69 34.67z" fill="#2d58df"/><path d="m316.647 324.08c-10.1-22.19-33.41-37.72-60.57-37.72-27.46 0-50.99 15.89-60.92 38.48 6.37-27.72 31.2-48.39 60.84-48.39 29.38 0 54.01 20.29 60.65 47.63z" fill="#01eba4"/></g></g><g><g><g><g><path d="m47.888 192.049h56.2v264.161h-56.2z" fill="#b6c4ff"/><path d="m47.888 192.049h56.2v21.331h-56.2z" fill="#9eaffd"/></g><path d="m111.26 188.38v-12.778c0-2.761-2.239-5-5-5h-60.539c-2.761 0-5 2.239-5 5v12.778c0 2.761 2.239 5 5 5h60.539c2.761 0 5-2.239 5-5z" fill="#02ffb2"/><g><g><path d="m82.777 371.08h-13.57c-1.657 0-3-1.343-3-3v-15.465c0-5.404 4.381-9.785 9.785-9.785 5.404 0 9.785 4.381 9.785 9.785v15.465c0 1.657-1.343 3-3 3z" fill="#4369fc"/><path d="m85.773 352.615v9.99c0-2.71-1.1-5.15-2.86-6.92-1.78-1.77-4.22-2.87-6.92-2.87-5.41 0-9.79 4.38-9.79 9.79v-9.99c0-5.4 4.38-9.78 9.79-9.78 2.7 0 5.14 1.1 6.92 2.86 1.76 1.78 2.86 4.22 2.86 6.92z" fill="#2d58df"/></g><g><path d="m82.777 309.542h-13.57c-1.657 0-3-1.343-3-3v-15.465c0-5.404 4.381-9.785 9.785-9.785 5.404 0 9.785 4.381 9.785 9.785v15.465c0 1.657-1.343 3-3 3z" fill="#4369fc"/><path d="m85.773 291.077v9.99c0-2.71-1.1-5.15-2.86-6.92-1.78-1.77-4.22-2.87-6.92-2.87-5.41 0-9.79 4.38-9.79 9.79v-9.99c0-5.4 4.38-9.78 9.79-9.78 2.7 0 5.14 1.1 6.92 2.86 1.76 1.78 2.86 4.22 2.86 6.92z" fill="#2d58df"/></g><g><path d="m82.777 248.005h-13.57c-1.657 0-3-1.343-3-3v-15.465c0-5.404 4.381-9.785 9.785-9.785 5.404 0 9.785 4.381 9.785 9.785v15.465c0 1.656-1.343 3-3 3z" fill="#4369fc"/><path d="m85.773 229.54v9.99c0-2.71-1.1-5.15-2.86-6.92-1.78-1.77-4.22-2.87-6.92-2.87-5.41 0-9.79 4.38-9.79 9.79v-9.99c0-5.4 4.38-9.78 9.79-9.78 2.7 0 5.14 1.1 6.92 2.86 1.76 1.78 2.86 4.22 2.86 6.92z" fill="#2d58df"/></g></g><g><path d="m75.993 272.556c-2.762 0-5-2.239-5-5v-4.736c0-2.761 2.238-5 5-5s5 2.239 5 5v4.736c0 2.761-2.239 5-5 5z" fill="#ff7eb7"/></g><g><path d="m75.993 334.093c-2.762 0-5-2.239-5-5v-4.736c0-2.761 2.238-5 5-5s5 2.239 5 5v4.736c0 2.762-2.239 5-5 5z" fill="#ff7eb7"/></g><g><path d="m75.993 395.631c-2.762 0-5-2.239-5-5v-4.736c0-2.761 2.238-5 5-5s5 2.239 5 5v4.736c0 2.761-2.239 5-5 5z" fill="#ff7eb7"/></g></g></g><g><g><g><path d="m407.912 192.049h56.2v264.161h-56.2z" fill="#b6c4ff"/><path d="m407.912 192.049h56.2v21.331h-56.2z" fill="#9eaffd"/></g><path d="m400.74 188.38v-12.778c0-2.761 2.239-5 5-5h60.539c2.761 0 5 2.239 5 5v12.778c0 2.761-2.239 5-5 5h-60.539c-2.761 0-5-2.239-5-5z" fill="#02ffb2"/><g><g><path d="m429.223 371.08h13.57c1.657 0 3-1.343 3-3v-15.465c0-5.404-4.381-9.785-9.785-9.785-5.404 0-9.785 4.381-9.785 9.785v15.465c0 1.657 1.343 3 3 3z" fill="#4369fc"/><path d="m426.227 352.615v9.99c0-2.71 1.1-5.15 2.86-6.92 1.78-1.77 4.22-2.87 6.92-2.87 5.41 0 9.79 4.38 9.79 9.79v-9.99c0-5.4-4.38-9.78-9.79-9.78-2.7 0-5.14 1.1-6.92 2.86-1.76 1.78-2.86 4.22-2.86 6.92z" fill="#2d58df"/></g><g><path d="m429.223 309.542h13.57c1.657 0 3-1.343 3-3v-15.465c0-5.404-4.381-9.785-9.785-9.785-5.404 0-9.785 4.381-9.785 9.785v15.465c0 1.657 1.343 3 3 3z" fill="#4369fc"/><path d="m426.227 291.077v9.99c0-2.71 1.1-5.15 2.86-6.92 1.78-1.77 4.22-2.87 6.92-2.87 5.41 0 9.79 4.38 9.79 9.79v-9.99c0-5.4-4.38-9.78-9.79-9.78-2.7 0-5.14 1.1-6.92 2.86-1.76 1.78-2.86 4.22-2.86 6.92z" fill="#2d58df"/></g><g><path d="m429.223 248.005h13.57c1.657 0 3-1.343 3-3v-15.465c0-5.404-4.381-9.785-9.785-9.785-5.404 0-9.785 4.381-9.785 9.785v15.465c0 1.656 1.343 3 3 3z" fill="#4369fc"/><path d="m426.227 229.54v9.99c0-2.71 1.1-5.15 2.86-6.92 1.78-1.77 4.22-2.87 6.92-2.87 5.41 0 9.79 4.38 9.79 9.79v-9.99c0-5.4-4.38-9.78-9.79-9.78-2.7 0-5.14 1.1-6.92 2.86-1.76 1.78-2.86 4.22-2.86 6.92z" fill="#2d58df"/></g></g><g><path d="m436.007 272.556c2.762 0 5-2.239 5-5v-4.736c0-2.761-2.238-5-5-5s-5 2.239-5 5v4.736c0 2.761 2.239 5 5 5z" fill="#ff7eb7"/></g><g><path d="m436.007 334.093c2.762 0 5-2.239 5-5v-4.736c0-2.761-2.238-5-5-5s-5 2.239-5 5v4.736c0 2.762 2.239 5 5 5z" fill="#ff7eb7"/></g><g><path d="m436.007 395.631c2.762 0 5-2.239 5-5v-4.736c0-2.761-2.238-5-5-5s-5 2.239-5 5v4.736c0 2.761 2.239 5 5 5z" fill="#ff7eb7"/></g></g></g></g><path d="m282.868 53.062c.051-.051.101-.102.152-.153 1.014-1.032 2.744-.059 2.343 1.331-1.548 5.364-4.625 10.385-9.236 14.374-11.173 9.665-28.05 9.64-39.196-.055-13.259-11.532-13.783-31.658-1.572-43.869 3.709-3.709 8.146-6.241 12.846-7.599 1.393-.402 2.372 1.325 1.338 2.341-.051.05-.102.1-.152.151-8.413 8.412-9.391 21.498-2.19 30.968 8.892 11.694 25.655 12.523 35.667 2.511z" fill="#ff7eb7"/></g><g><circle cx="347.079" cy="102.14" fill="#8298fd" r="50"/><g><g><g><path d="m347.08 78.817v73.324c-12.982 0-24.819-4.953-33.706-13.07l12.983-18.8c1.768-2.561 2.894-5.51 3.283-8.597l4.235-33.684c.417-3.315 3.236-5.801 6.577-5.801 3.66-.001 6.628 2.967 6.628 6.628z" fill="#ffa7ce"/><path d="m347.08 129.88v22.261c-7.192 0-14.031-1.519-20.217-4.264l4.765-19.828c.846-3.521 3.996-6.004 7.618-6.004 4.326.001 7.834 3.509 7.834 7.835z" fill="#ffc3de"/></g></g><g><g><path d="m380.786 139.071c-8.887 8.116-20.724 13.07-33.706 13.07v-73.324c0-3.661 2.968-6.628 6.628-6.628 3.341 0 6.16 2.487 6.577 5.801l4.235 33.684c.388 3.088 1.514 6.037 3.283 8.597z" fill="#ff7eb7"/><path d="m367.298 147.877c-6.186 2.745-13.026 4.264-20.217 4.264v-22.261c0-4.327 3.508-7.834 7.834-7.834 3.622 0 6.771 2.482 7.618 6.004z" fill="#ffa7ce"/></g></g></g></g><g><g><path d="m128.078 394.396v78.14c0 5.25-4.25 9.51-9.51 9.51h-78.13c-5.26 0-9.51-4.26-9.51-9.51v-78.14c0-5.25 4.25-9.51 9.51-9.51h78.13c5.26 0 9.51 4.26 9.51 9.51z" fill="#01eba4"/><path d="m466.279 165.602h-60.539c-5.514 0-10 4.486-10 10v12.778c0 4.531 3.031 8.361 7.17 9.586v91.016h-25.664c-2.762 0-5 2.239-5 5s2.238 5 5 5h25.664v152.104h-49.624v-229.114c4.156-1.214 7.203-5.052 7.203-9.594v-17.543c0-4.089-2.469-7.608-5.993-9.156-.016-9.783-1.473-19.379-4.297-28.632 28.881-1.624 51.88-25.626 51.88-54.906 0-30.327-24.673-55-55-55-27.695 0-50.664 20.58-54.443 47.249-10.088-4.06-20.684-6.379-31.636-6.919v-6.904c6.634-.838 13.068-3.559 18.398-8.17 5.168-4.471 8.892-10.269 10.769-16.768.811-2.807-.384-5.795-2.904-7.268-2.537-1.482-5.748-1.052-7.795 1.031l-.135.136c-3.813 3.813-9.091 5.793-14.476 5.425-5.459-.369-10.316-3.007-13.678-7.426-5.671-7.458-4.938-17.723 1.746-24.406.012-.012.111-.11.123-.122 2.097-2.062 2.525-5.272 1.042-7.808-1.475-2.521-4.469-3.714-7.273-2.902-5.638 1.629-10.822 4.695-14.993 8.867-6.835 6.834-10.562 16.297-10.226 25.961.342 9.799 4.621 18.754 12.051 25.216 5.044 4.388 11.085 7.073 17.351 8.069v7.066c-51.946 2.61-93.413 45.65-93.498 98.213-3.522 1.549-5.991 5.067-5.991 9.155v17.543c0 4.542 3.047 8.38 7.202 9.594v67.01h-49.623v-91.016c4.139-1.224 7.17-5.055 7.17-9.586v-12.778c0-5.514-4.486-10-10-10h-60.539c-5.514 0-10 4.486-10 10v12.778c0 4.531 3.031 8.361 7.17 9.586v157.497c0 2.761 2.238 5 5 5s5-2.239 5-5v-157.084h46.199v181.506h-58.656c-8.001 0-14.51 6.509-14.51 14.509v78.139c0 8 6.509 14.509 14.51 14.509h78.139c8 0 14.509-6.509 14.509-14.509v-11.447l331.028.127c1.326 0 2.598-.527 3.535-1.464.938-.938 1.465-2.209 1.465-3.536v-258.248c4.139-1.224 7.17-5.055 7.17-9.586v-12.778c-.001-5.515-4.487-10-10.001-10zm-60.539 10h60.539v12.778l-60.539.006zm-55.251 19.232.007 17.543h-188.985v-17.543zm-181.776 27.543h174.573v228.708h-174.573zm178.366-165.237c24.813 0 45 20.187 45 45s-20.187 45-45 45c-24.811 0-44.996-20.183-45-44.992 0-.003.001-.005.001-.008v-.039c.021-24.795 20.199-44.961 44.999-44.961zm-115.486-10.372c-.235-6.759 2.171-13.126 6.789-18.015-2.317 8.314-.766 17.455 4.839 24.825 5.061 6.654 12.701 10.791 20.962 11.351 3.283.222 6.549-.124 9.653-.99-.318.306-.645.604-.98.894-9.314 8.059-23.347 8.04-32.644-.046-5.315-4.623-8.375-11.022-8.619-18.019zm24.407 50.572c12.634 0 24.781 2.597 36.157 7.71 1.385 26.455 21.555 48.005 47.387 51.562 3.168 9.068 4.826 18.541 4.933 28.223h-176.964c.542-48.338 40.024-87.495 88.487-87.495zm-210.279 78.262h60.539v12.778h-60.539zm77.36 296.931c0 2.486-2.022 4.509-4.509 4.509h-78.138c-2.486 0-4.51-2.022-4.51-4.509v-78.139c0-2.486 2.023-4.509 4.51-4.509h78.139c2.486 0 4.509 2.022 4.509 4.509v78.139zm-4.509-92.647h-9.482v-80.904h49.623v152.104h-25.632v-56.691c0-8-6.509-14.509-14.509-14.509zm294.338 71.327v-252.833h46.199v252.833z" fill="#2626bc"/></g><g fill="#fff"><path d="m106.117 440.026c.05-.05.1-.101.15-.152 1.004-1.022 2.718-.058 2.321 1.319-1.534 5.313-4.581 10.287-9.149 14.238-11.067 9.574-27.784 9.549-38.826-.054-13.133-11.423-13.652-31.359-1.557-43.454 3.674-3.674 8.069-6.182 12.724-7.527 1.379-.399 2.35 1.313 1.325 2.319-.05.05-.101.099-.151.15-8.333 8.333-9.303 21.295-2.169 30.675 8.81 11.583 25.414 12.404 35.332 2.486z"/><path d="m91.4 428.137-4.422 1.572c-1.233.438-2.521-.498-2.485-1.806l.129-4.691-2.862-3.72c-.798-1.037-.306-2.552.949-2.922l4.502-1.327 2.653-3.871c.74-1.079 2.332-1.079 3.072 0l2.653 3.871 4.502 1.327c1.255.37 1.747 1.885.949 2.922l-2.862 3.72.129 4.691c.036 1.308-1.253 2.244-2.485 1.806z"/></g></g></g><g><path d="m467.122 94.3c-7.175 0-13.012-5.837-13.012-13.012s5.837-13.012 13.012-13.012 13.012 5.837 13.012 13.012-5.837 13.012-13.012 13.012zm0-16.024c-1.661 0-3.012 1.351-3.012 3.012s1.351 3.012 3.012 3.012 3.012-1.351 3.012-3.012-1.351-3.012-3.012-3.012z" fill="#01eba4"/></g><g><path d="m181.093 54.043c-7.175 0-13.012-5.837-13.012-13.012s5.837-13.012 13.012-13.012 13.012 5.837 13.012 13.012-5.837 13.012-13.012 13.012zm0-16.023c-1.661 0-3.012 1.351-3.012 3.012s1.351 3.012 3.012 3.012 3.012-1.351 3.012-3.012c-.001-1.661-1.351-3.012-3.012-3.012z" fill="#8298fd"/></g><g><path d="m80.992 138.268c-2.762 0-5-2.239-5-5 0-3.033-2.468-5.5-5.5-5.5-2.762 0-5-2.239-5-5s2.238-5 5-5c3.032 0 5.5-2.467 5.5-5.5 0-2.761 2.238-5 5-5s5 2.239 5 5c0 3.033 2.468 5.5 5.5 5.5 2.762 0 5 2.239 5 5s-2.238 5-5 5c-3.032 0-5.5 2.467-5.5 5.5 0 2.761-2.238 5-5 5z" fill="#ff7eb7"/></g><g><path d="m165.093 502.522c-2.762 0-5-2.239-5-5 0-3.033-2.468-5.5-5.5-5.5-2.762 0-5-2.239-5-5s2.238-5 5-5c3.032 0 5.5-2.467 5.5-5.5 0-2.761 2.238-5 5-5s5 2.239 5 5c0 3.033 2.468 5.5 5.5 5.5 2.762 0 5 2.239 5 5s-2.238 5-5 5c-3.032 0-5.5 2.467-5.5 5.5 0 2.761-2.239 5-5 5z" fill="#8298fd"/></g><g><path d="m436.337 135.744c-2.762 0-5-2.239-5-5 0-3.033-2.468-5.5-5.501-5.5-2.762 0-5-2.239-5-5s2.238-5 5-5c3.033 0 5.501-2.467 5.501-5.5 0-2.761 2.238-5 5-5s5 2.239 5 5c0 3.033 2.467 5.5 5.499 5.5 2.762 0 5 2.239 5 5s-2.238 5-5 5c-3.032 0-5.499 2.467-5.499 5.5 0 2.761-2.238 5-5 5z" fill="#8298fd"/></g></g></g></svg>