<svg width="13" height="13" viewBox="0 0 13 13" fill="none" xmlns="http://www.w3.org/2000/svg">
<path d="M1.08329 -1.52588e-05C0.785376 -1.52588e-05 0.541626 0.243735 0.541626 0.541651V12.4583C0.541626 12.7562 0.785376 13 1.08329 13C1.38121 13 1.62496 12.7562 1.62496 12.4583V7.01456C2.29663 6.59206 3.79704 5.9204 5.97455 6.58123C9.47372 7.6429 12.2741 3.5154 12.3879 3.34207C12.4854 3.20123 12.48 3.01707 12.3825 2.87623C12.285 2.74082 12.1062 2.67582 11.9437 2.72457C11.9166 2.72998 9.12163 3.46665 6.59746 1.70082C4.82621 0.460401 2.72996 0.454984 1.62496 0.568734V0.541651C1.62496 0.243735 1.38121 -1.52588e-05 1.08329 -1.52588e-05V-1.52588e-05Z" fill="white"/>
</svg>
