<svg width="24" height="17" viewBox="0 0 24 17" fill="none" xmlns="http://www.w3.org/2000/svg">
<path d="M12.1652 14.2098C11.7105 14.2105 11.2636 14.1066 10.8688 13.9084L4.47385 10.6638V13.2186C4.47385 13.2186 4.52617 13.2544 4.56105 13.2697L11.0315 16.5347C11.3851 16.7141 11.7861 16.8085 12.1943 16.8085C12.6025 16.8085 13.0035 16.7141 13.357 16.5347L19.8275 13.2697C20.1815 13.09 20.4754 12.8316 20.6795 12.5203C20.8836 12.209 20.9908 11.8559 20.9902 11.4967V10.1222L13.4616 13.9237C13.0652 14.1166 12.6183 14.2152 12.1652 14.2098ZM23.397 5.67173L13.3221 0.587694C12.9686 0.40831 12.5676 0.313873 12.1594 0.313873C11.7512 0.313873 11.3502 0.40831 10.9967 0.587694L0.933385 5.67173C0.762528 5.76282 0.621266 5.89107 0.523229 6.04412C0.425191 6.19717 0.373688 6.36983 0.373688 6.54547C0.373688 6.7211 0.425191 6.89378 0.523229 7.04682C0.621266 7.19987 0.762528 7.32812 0.933385 7.41921L11.5955 12.7996C11.7722 12.8893 11.9727 12.9365 12.1768 12.9365C12.3809 12.9365 12.5814 12.8893 12.7582 12.7996L23.397 7.41921C23.5679 7.32812 23.7091 7.19987 23.8072 7.04682C23.9052 6.89378 23.9567 6.7211 23.9567 6.54547C23.9567 6.36983 23.9052 6.19717 23.8072 6.04412C23.7091 5.89107 23.5679 5.76282 23.397 5.67173Z" fill="white"/>
</svg>
