<svg width="26" height="22" viewBox="0 0 26 22" fill="none" xmlns="http://www.w3.org/2000/svg">
<path d="M3.64063 11.9002H0.791992V15.0733C0.791992 15.3443 0.914491 15.6043 1.13254 15.7959C1.35059 15.9876 1.64633 16.0952 1.9547 16.0952H3.34996C3.42372 16.0941 3.49438 16.0689 3.54813 16.0245C3.60188 15.9801 3.63486 15.9197 3.64063 15.8551C3.74528 14.5317 3.83829 13.3718 3.93131 12.1557C3.93131 12.088 3.90068 12.023 3.84617 11.9751C3.79166 11.9272 3.71773 11.9002 3.64063 11.9002ZM3.91387 8.45127H1.9547C1.64633 8.45127 1.35059 8.55894 1.13254 8.75058C0.914491 8.94223 0.791992 9.20216 0.791992 9.47319V10.6228H3.78017C3.85379 10.6243 3.92518 10.6006 3.97937 10.5568C4.03357 10.513 4.06636 10.4524 4.07085 10.3878C4.11154 9.87685 4.15804 9.31479 4.20455 8.72719C4.21134 8.69038 4.20888 8.65272 4.19735 8.61683C4.18581 8.58095 4.16549 8.54772 4.13779 8.51948C4.11009 8.49124 4.07568 8.46867 4.037 8.45335C3.99832 8.43804 3.95629 8.43035 3.91387 8.43083V8.45127ZM24.3369 8.45127H22.3777C22.3375 8.45116 22.2977 8.45838 22.2609 8.47248C22.224 8.48657 22.1908 8.50724 22.1635 8.53318C22.1362 8.55911 22.1153 8.58974 22.1022 8.62313C22.089 8.65653 22.0839 8.69196 22.0871 8.72719C22.1336 9.31479 22.1801 9.86663 22.2208 10.3878C22.2253 10.4524 22.2581 10.513 22.3122 10.5568C22.3664 10.6006 22.4378 10.6243 22.5115 10.6228H25.4996V9.45275C25.4996 9.18172 25.3771 8.92179 25.1591 8.73015C24.941 8.5385 24.6453 8.43083 24.3369 8.43083V8.45127ZM22.3603 12.1762C22.4533 13.3922 22.5463 14.5521 22.651 15.8755C22.6568 15.9401 22.6897 16.0006 22.7435 16.045C22.7972 16.0894 22.8679 16.1146 22.9417 16.1157H24.3369C24.6453 16.1157 24.941 16.008 25.1591 15.8163C25.3771 15.6247 25.4996 15.3648 25.4996 15.0937V11.9002H22.651C22.6108 11.9001 22.571 11.9074 22.5341 11.9214C22.4972 11.9355 22.4641 11.9562 22.4368 11.9821C22.4094 12.0081 22.3886 12.0387 22.3754 12.0721C22.3622 12.1055 22.3571 12.1409 22.3603 12.1762V12.1762Z" fill="black"/>
<path d="M8.51246 11.4966H17.7793C18.4737 11.4966 19.1401 11.2555 19.6333 10.8259C20.1265 10.3962 20.4067 9.81269 20.4128 9.20236V4.8541C20.4128 4.58307 20.2903 4.32315 20.0723 4.1315C19.8542 3.93985 19.5585 3.83219 19.2501 3.83219H17.2154V3.57671C17.2154 2.62811 16.7866 1.71836 16.0234 1.04759C15.2603 0.376832 14.2252 0 13.1459 0C12.0666 0 11.0315 0.376832 10.2683 1.04759C9.50513 1.71836 9.07638 2.62811 9.07638 3.57671V3.83219H7.04163C6.73326 3.83219 6.43752 3.93985 6.21947 4.1315C6.00141 4.32315 5.87892 4.58307 5.87892 4.8541V9.18192C5.87892 9.7958 6.15638 10.3845 6.65027 10.8186C7.14415 11.2527 7.814 11.4966 8.51246 11.4966V11.4966ZM13.1633 8.68629C12.8751 8.68933 12.5924 8.61701 12.3512 8.4785C12.1099 8.34 11.9209 8.14158 11.8082 7.90845C11.6955 7.67532 11.6642 7.41801 11.7183 7.16922C11.7724 6.92042 11.9094 6.69139 12.112 6.5112C12.3145 6.33102 12.5735 6.20783 12.8559 6.15728C13.1382 6.10674 13.4314 6.13112 13.698 6.22734C13.9645 6.32356 14.1926 6.48726 14.3531 6.69765C14.5135 6.90803 14.5992 7.1556 14.5993 7.4089C14.6023 7.57836 14.567 7.74666 14.4954 7.90401C14.4237 8.06136 14.3172 8.2046 14.1819 8.32539C14.0466 8.44618 13.8853 8.54211 13.7075 8.60758C13.5296 8.67305 13.3387 8.70675 13.1459 8.70673L13.1633 8.68629ZM10.8379 3.57671C10.8379 3.03465 11.0829 2.51479 11.519 2.1315C11.9551 1.74821 12.5466 1.53287 13.1633 1.53287C13.7801 1.53287 14.3715 1.74821 14.8076 2.1315C15.2437 2.51479 15.4887 3.03465 15.4887 3.57671V3.83219H10.8379V3.57671ZM20.907 12.0995C20.9032 12.0519 20.8844 12.0062 20.8526 11.9676C20.8209 11.9289 20.7774 11.8988 20.7272 11.8807C20.677 11.8627 20.622 11.8573 20.5685 11.8653C20.515 11.8732 20.4651 11.8942 20.4244 11.9258C19.6918 12.4751 18.7597 12.7759 17.7967 12.774H8.51246C7.5504 12.7828 6.61639 12.4893 5.87892 11.9462C5.83827 11.9146 5.78837 11.8937 5.73487 11.8857C5.68137 11.8777 5.6264 11.8831 5.57619 11.9012C5.52598 11.9193 5.48252 11.9493 5.45074 11.988C5.41897 12.0267 5.40015 12.0724 5.3964 12.1199C5.23362 14.1638 5.08826 16.0288 4.87316 18.7164C4.84317 19.3032 5.06586 19.8783 5.49685 20.3272C5.92784 20.776 6.53546 21.0657 7.19859 21.1383C11.1505 21.5369 15.1413 21.5369 19.0932 21.1383C19.7563 21.0657 20.3639 20.776 20.7949 20.3272C21.2259 19.8783 21.4486 19.3032 21.4186 18.7164C21.1977 16.0288 21.0523 14.1893 20.8895 12.1199L20.907 12.0995ZM15.4713 18.139H10.8204C10.5892 18.139 10.3674 18.0583 10.2038 17.9145C10.0403 17.7708 9.94841 17.5759 9.94841 17.3726C9.94841 17.1693 10.0403 16.9744 10.2038 16.8306C10.3674 16.6869 10.5892 16.6061 10.8204 16.6061H15.4713C15.7026 16.6061 15.9244 16.6869 16.0879 16.8306C16.2515 16.9744 16.3433 17.1693 16.3433 17.3726C16.3433 17.5759 16.2515 17.7708 16.0879 17.9145C15.9244 18.0583 15.7026 18.139 15.4713 18.139Z" fill="black"/>
</svg>
