<svg width="23" height="28" viewBox="0 0 23 28" fill="none" xmlns="http://www.w3.org/2000/svg">
<g filter="url(#filter0_d_2_3980)">
<path d="M8 22.094V22.3739C8 22.858 8.21883 23.3224 8.60834 23.6647C8.99784 24.007 9.52612 24.1994 10.077 24.1994H10.4231C10.974 24.1994 11.5022 24.007 11.8918 23.6647C12.2813 23.3224 12.5001 22.858 12.5001 22.3739V22.094H8Z" fill="#C4C4C4"/>
<path d="M18.8619 16.9849C17.4898 15.3032 16.7514 13.2859 16.7504 11.2165V9.44579C16.7702 8.07498 16.2627 6.73844 15.3102 5.6528C14.3577 4.56716 13.016 3.79603 11.5026 3.46437V2.21697C11.5026 1.89421 11.3567 1.58467 11.097 1.35644C10.8373 1.12822 10.4852 1 10.1179 1H9.88252C9.51529 1 9.16309 1.12822 8.90342 1.35644C8.64375 1.58467 8.49787 1.89421 8.49787 2.21697V3.43395C7.00771 3.73294 5.67713 4.46759 4.72382 5.51769C3.77051 6.56779 3.25094 7.87116 3.25008 9.21457V11.1921C3.24905 13.2616 2.51064 15.2788 1.13851 16.9606C1.04719 17.0676 0.998522 17.198 1.00003 17.3318V20.4716C1.00003 20.6459 1.0788 20.813 1.21903 20.9362C1.35925 21.0595 1.54943 21.1287 1.74773 21.1287H18.2527C18.451 21.1287 18.6412 21.0595 18.7814 20.9362C18.9216 20.813 19.0004 20.6459 19.0004 20.4716V17.3805C19.0082 17.2384 18.9592 17.0985 18.8619 16.9849Z" fill="#C4C4C4"/>
</g>
<defs>
<filter id="filter0_d_2_3980" x="0" y="0" width="22.0012" height="27.1994" filterUnits="userSpaceOnUse" color-interpolation-filters="sRGB">
<feFlood flood-opacity="0" result="BackgroundImageFix"/>
<feColorMatrix in="SourceAlpha" type="matrix" values="0 0 0 0 0 0 0 0 0 0 0 0 0 0 0 0 0 0 127 0" result="hardAlpha"/>
<feOffset dx="1" dy="1"/>
<feGaussianBlur stdDeviation="1"/>
<feComposite in2="hardAlpha" operator="out"/>
<feColorMatrix type="matrix" values="0 0 0 0 0 0 0 0 0 0 0 0 0 0 0 0 0 0 0.5 0"/>
<feBlend mode="normal" in2="BackgroundImageFix" result="effect1_dropShadow_2_3980"/>
<feBlend mode="normal" in="SourceGraphic" in2="effect1_dropShadow_2_3980" result="shape"/>
</filter>
</defs>
</svg>
