<svg width="27" height="27" viewBox="0 0 27 27" fill="none" xmlns="http://www.w3.org/2000/svg">
<g clip-path="url(#clip0_2_4040)">
<path d="M13.5002 0.675293C6.05626 0.675293 0.000158352 6.12569 0.000158352 12.8253C0.000158352 15.1671 0.740858 17.4355 2.14576 19.3971C1.87981 22.3387 1.16701 24.5226 0.132008 25.5571C-0.00479164 25.6939 -0.0389916 25.9032 0.0474083 26.076C0.123908 26.2303 0.281408 26.3253 0.450158 26.3253C0.470858 26.3253 0.491558 26.3239 0.512708 26.3208C0.694958 26.2951 4.92856 25.6858 7.99081 23.9182C9.72961 24.6198 11.5818 24.9753 13.5002 24.9753C20.9441 24.9753 27.0002 19.5249 27.0002 12.8253C27.0002 6.12569 20.9441 0.675293 13.5002 0.675293ZM7.20016 14.6253C6.20746 14.6253 5.40016 13.818 5.40016 12.8253C5.40016 11.8326 6.20746 11.0253 7.20016 11.0253C8.19286 11.0253 9.00016 11.8326 9.00016 12.8253C9.00016 13.818 8.19286 14.6253 7.20016 14.6253ZM13.5002 14.6253C12.5075 14.6253 11.7002 13.818 11.7002 12.8253C11.7002 11.8326 12.5075 11.0253 13.5002 11.0253C14.4929 11.0253 15.3002 11.8326 15.3002 12.8253C15.3002 13.818 14.4929 14.6253 13.5002 14.6253ZM19.8002 14.6253C18.8075 14.6253 18.0002 13.818 18.0002 12.8253C18.0002 11.8326 18.8075 11.0253 19.8002 11.0253C20.7929 11.0253 21.6002 11.8326 21.6002 12.8253C21.6002 13.818 20.7929 14.6253 19.8002 14.6253Z" fill="#C4C4C4"/>
</g>
<defs>
<clipPath id="clip0_2_4040">
<rect width="27" height="27" fill="white" transform="translate(0.00012207 0.000305176)"/>
</clipPath>
</defs>
</svg>
