<svg width="19" height="18" viewBox="0 0 19 18" fill="none" xmlns="http://www.w3.org/2000/svg">
<path d="M11.4074 0.051107L6.29727 0.051107C6.22018 0.051107 6.14624 0.0780235 6.09173 0.125935C6.03722 0.173847 6.00659 0.238829 6.00659 0.306586V4.97164C6.00758 5.0162 6.02156 5.0598 6.04719 5.09826C6.07283 5.13672 6.10925 5.16876 6.153 5.19132C6.19674 5.21387 6.24634 5.22619 6.29704 5.22709C6.34775 5.22799 6.39787 5.21744 6.44261 5.19646L8.76804 4.06213C8.81259 4.04066 8.86257 4.02941 8.91338 4.02941C8.96418 4.02941 9.01417 4.04066 9.05872 4.06213L11.2679 5.18624C11.3124 5.20882 11.3629 5.22063 11.4142 5.22048C11.4656 5.22032 11.516 5.20821 11.5603 5.18536C11.6046 5.16251 11.6413 5.12975 11.6665 5.09041C11.6917 5.05107 11.7046 5.00656 11.7039 4.96142V0.306586C11.7039 0.272602 11.6962 0.238958 11.6812 0.207624C11.6663 0.17629 11.6443 0.147896 11.6167 0.124104C11.5891 0.100313 11.5564 0.0816023 11.5204 0.069068C11.4845 0.0565336 11.4461 0.0504273 11.4074 0.051107ZM17.2733 0.700024C17.0806 0.700024 16.8957 0.767315 16.7594 0.887094C16.6232 1.00687 16.5466 1.16933 16.5466 1.33872V13.3565C16.5466 13.5259 16.6232 13.6883 16.7594 13.8081C16.8957 13.9279 17.0806 13.9952 17.2733 13.9952C17.466 13.9952 17.6509 13.9279 17.7872 13.8081C17.9234 13.6883 18 13.5259 18 13.3565V1.33872C18 1.16933 17.9234 1.00687 17.7872 0.887094C17.6509 0.767315 17.466 0.700024 17.2733 0.700024V0.700024Z" fill="black"/>
<path d="M16.7734 15.3645H3.32659C3.22658 15.3645 3.12755 15.3472 3.03515 15.3136C2.94275 15.2799 2.85879 15.2306 2.78807 15.1685C2.71736 15.1063 2.66126 15.0325 2.62298 14.9513C2.58471 14.8701 2.56501 14.7831 2.56501 14.6952C2.56501 14.6073 2.58471 14.5202 2.62298 14.439C2.66126 14.3578 2.71736 14.284 2.78807 14.2218C2.85879 14.1597 2.94275 14.1104 3.03515 14.0767C3.12755 14.0431 3.22658 14.0258 3.32659 14.0258H14.5294C14.6836 14.0258 14.8314 13.972 14.9405 13.8761C15.0495 13.7803 15.1107 13.6504 15.1107 13.5148V0.510958C15.1107 0.375444 15.0495 0.245479 14.9405 0.149656C14.8314 0.053833 14.6836 0 14.5294 0L13.1457 0C13.1457 0 13.1457 0.0306574 13.1457 0.0510958V5.40594C13.1452 5.62973 13.0778 5.84947 12.9503 6.04317C12.8228 6.23686 12.6396 6.39771 12.419 6.50961C12.1989 6.62377 11.9479 6.68377 11.6923 6.68333C11.4376 6.68315 11.1873 6.62507 10.9656 6.51471L8.8902 5.45703L6.7101 6.52493C6.49054 6.63516 6.24207 6.69314 5.98922 6.69314C5.73636 6.69314 5.48789 6.63516 5.26833 6.52493C5.04896 6.41362 4.86683 6.25347 4.74028 6.06062C4.61373 5.86776 4.54722 5.64901 4.54745 5.42637V0.0510958C4.54745 0.0510958 4.54745 0.0153287 4.54745 0L2.60571 0C1.98896 0 1.39748 0.215332 0.961377 0.598624C0.525274 0.981917 0.280273 1.50177 0.280273 2.04383L0.280273 15.3287C0.280273 15.8708 0.525274 16.3907 0.961377 16.7739C1.39748 17.1572 1.98896 17.3726 2.60571 17.3726H16.7734C16.9415 17.4006 17.1145 17.3956 17.2801 17.3581C17.4457 17.3206 17.5999 17.2515 17.7316 17.1556C17.8634 17.0597 17.9694 16.9394 18.0422 16.8034C18.115 16.6673 18.1527 16.5189 18.1527 16.3685C18.1527 16.2182 18.115 16.0697 18.0422 15.9337C17.9694 15.7977 17.8634 15.6774 17.7316 15.5815C17.5999 15.4856 17.4457 15.4165 17.2801 15.3789C17.1145 15.3414 16.9415 15.3365 16.7734 15.3645V15.3645ZM5.4253 9.74397H12.983C13.1371 9.74397 13.285 9.7978 13.394 9.89363C13.5031 9.98945 13.5643 10.1194 13.5643 10.2549C13.5643 10.3904 13.5031 10.5204 13.394 10.6162C13.285 10.7121 13.1371 10.7659 12.983 10.7659H5.4253C5.27111 10.7659 5.12324 10.7121 5.01422 10.6162C4.90519 10.5204 4.84394 10.3904 4.84394 10.2549C4.84394 10.1194 4.90519 9.98945 5.01422 9.89363C5.12324 9.7978 5.27111 9.74397 5.4253 9.74397Z" fill="black"/>
</svg>
