<svg width="19" height="17" viewBox="0 0 19 17" fill="none" xmlns="http://www.w3.org/2000/svg">
<path d="M1.15228 1.02191C0.921011 1.02191 0.699216 1.10266 0.535683 1.2464C0.372149 1.39013 0.280273 1.58508 0.280273 1.78835L0.280273 14.5623C0.280273 14.7656 0.372149 14.9605 0.535683 15.1042C0.699216 15.248 0.921011 15.3287 1.15228 15.3287C1.38355 15.3287 1.60535 15.248 1.76888 15.1042C1.93242 14.9605 2.02429 14.7656 2.02429 14.5623V1.78835C2.02429 1.58508 1.93242 1.39013 1.76888 1.2464C1.60535 1.10266 1.38355 1.02191 1.15228 1.02191Z" fill="black"/>
<path d="M8.4193 4.68038L8.0356 5.43149H8.803L8.4193 4.68038ZM17.4303 0L4.64049 0C4.33212 0 4.03638 0.107665 3.81833 0.299312C3.60028 0.490958 3.47778 0.750888 3.47778 1.02192V15.3288C3.47778 15.5998 3.60028 15.8597 3.81833 16.0514C4.03638 16.243 4.33212 16.3507 4.64049 16.3507H17.4303C17.7387 16.3507 18.0344 16.243 18.2525 16.0514C18.4705 15.8597 18.593 15.5998 18.593 15.3288V1.02192C18.593 0.750888 18.4705 0.490958 18.2525 0.299312C18.0344 0.107665 17.7387 0 17.4303 0ZM5.72181 6.82641L7.75656 2.86648C7.81575 2.75596 7.9095 2.66252 8.02685 2.59707C8.1442 2.53163 8.28032 2.49688 8.4193 2.49688C8.55828 2.49688 8.6944 2.53163 8.81175 2.59707C8.92911 2.66252 9.02285 2.75596 9.08205 2.86648L11.1168 6.82641C11.1952 6.98091 11.2007 7.15646 11.1321 7.31453C11.0634 7.47259 10.9262 7.60025 10.7505 7.66949C10.6583 7.70953 10.5569 7.73051 10.454 7.73081C10.314 7.73005 10.1772 7.69403 10.0597 7.62702C9.94223 7.56 9.84909 7.46481 9.7913 7.35269L9.45992 6.70889H7.40193L7.07055 7.35269C7.03163 7.42914 6.97584 7.49804 6.90643 7.55542C6.83701 7.6128 6.75534 7.65751 6.66613 7.68697C6.57693 7.71643 6.48196 7.73006 6.38673 7.72706C6.2915 7.72405 6.19789 7.70449 6.11132 7.66949C6.0223 7.63712 5.94149 7.58952 5.87359 7.52945C5.80569 7.46938 5.75206 7.39805 5.71582 7.3196C5.67957 7.24115 5.66143 7.15714 5.66246 7.07247C5.66349 6.9878 5.68367 6.90416 5.72181 6.82641ZM12.7795 13.8623H6.96591C6.77318 13.8623 6.58835 13.795 6.45207 13.6752C6.31578 13.5555 6.23922 13.393 6.23922 13.2236C6.23922 13.0542 6.31578 12.8918 6.45207 12.772C6.58835 12.6522 6.77318 12.5849 6.96591 12.5849H12.7795C12.9722 12.5849 13.157 12.6522 13.2933 12.772C13.4296 12.8918 13.5062 13.0542 13.5062 13.2236C13.5062 13.393 13.4296 13.5555 13.2933 13.6752C13.157 13.795 12.9722 13.8623 12.7795 13.8623ZM15.6862 11.3075H6.96591C6.77318 11.3075 6.58835 11.2402 6.45207 11.1204C6.31578 11.0007 6.23922 10.8382 6.23922 10.6688C6.23922 10.4994 6.31578 10.337 6.45207 10.2172C6.58835 10.0974 6.77318 10.0301 6.96591 10.0301H15.6862C15.879 10.0301 16.0638 10.0974 16.2001 10.2172C16.3364 10.337 16.4129 10.4994 16.4129 10.6688C16.4129 10.8382 16.3364 11.0007 16.2001 11.1204C16.0638 11.2402 15.879 11.3075 15.6862 11.3075ZM15.6862 5.68697H14.6689V6.58115C14.6689 6.75054 14.5923 6.913 14.456 7.03278C14.3197 7.15255 14.1349 7.21985 13.9422 7.21985C13.7494 7.21985 13.5646 7.15255 13.4283 7.03278C13.292 6.913 13.2155 6.75054 13.2155 6.58115V5.68697H12.1981C12.0054 5.68697 11.8205 5.61968 11.6843 5.4999C11.548 5.38012 11.4714 5.21767 11.4714 5.04827C11.4714 4.87888 11.548 4.71642 11.6843 4.59664C11.8205 4.47686 12.0054 4.40958 12.1981 4.40958H13.2155V3.5154C13.2155 3.346 13.292 3.18354 13.4283 3.06376C13.5646 2.94398 13.7494 2.8767 13.9422 2.8767C14.1349 2.8767 14.3197 2.94398 14.456 3.06376C14.5923 3.18354 14.6689 3.346 14.6689 3.5154V4.40958H15.6862C15.879 4.40958 16.0638 4.47686 16.2001 4.59664C16.3364 4.71642 16.4129 4.87888 16.4129 5.04827C16.4129 5.21767 16.3364 5.38012 16.2001 5.4999C16.0638 5.61968 15.879 5.68697 15.6862 5.68697Z" fill="black"/>
</svg>
