<svg width="23" height="18" viewBox="0 0 23 18" fill="none" xmlns="http://www.w3.org/2000/svg">
<path d="M18.5585 0.000289917L16.2331 0.000289917C15.9247 0.000289917 15.629 0.107955 15.4109 0.299602C15.1929 0.491248 15.0704 0.751177 15.0704 1.02221C15.0704 1.29324 14.9479 1.55317 14.7298 1.74481C14.5118 1.93646 14.216 2.04412 13.9076 2.04412C13.5993 2.04412 13.3035 1.93646 13.0855 1.74481C12.8674 1.55317 12.7449 1.29324 12.7449 1.02221C12.7449 0.751177 12.6224 0.491248 12.4044 0.299602C12.1863 0.107955 11.8906 0.000289917 11.5822 0.000289917L8.67542 0.000289917C8.36705 0.000289917 8.07131 0.107955 7.85325 0.299602C7.6352 0.491248 7.5127 0.751177 7.5127 1.02221C7.5127 1.29324 7.3902 1.55317 7.17215 1.74481C6.9541 1.93646 6.65836 2.04412 6.34999 2.04412C6.04162 2.04412 5.74587 1.93646 5.52782 1.74481C5.30977 1.55317 5.18727 1.29324 5.18727 1.02221C5.18727 0.751177 5.06477 0.491248 4.84672 0.299602C4.62867 0.107955 4.33293 0.000289917 4.02456 0.000289917L1.69912 0.000289917C1.39075 0.000289917 1.09501 0.107955 0.876958 0.299602C0.658907 0.491248 0.536407 0.751177 0.536407 1.02221L0.536407 13.7962C0.536407 14.0672 0.658907 14.3271 0.876958 14.5188C1.09501 14.7104 1.39075 14.8181 1.69912 14.8181H10.5125C10.0023 13.7052 9.88669 12.4827 10.1808 11.311C10.4749 10.1393 11.1651 9.07307 12.1607 8.25214C13.1564 7.4312 14.411 6.89388 15.7602 6.71063C17.1094 6.52737 18.4901 6.70675 19.7212 7.22523V1.02221C19.7212 0.751177 19.5987 0.491248 19.3807 0.299602C19.1626 0.107955 18.8669 0.000289917 18.5585 0.000289917ZM4.02456 12.3553C3.79459 12.3553 3.56979 12.2953 3.37858 12.183C3.18737 12.0707 3.03836 11.9112 2.95035 11.7244C2.86235 11.5377 2.83931 11.3322 2.88418 11.134C2.92904 10.9358 3.03978 10.7537 3.20239 10.6107C3.365 10.4678 3.57218 10.3705 3.79773 10.3311C4.02327 10.2916 4.25706 10.3119 4.46952 10.3892C4.68197 10.4666 4.86355 10.5975 4.99131 10.7656C5.11908 10.9336 5.18727 11.1312 5.18727 11.3333C5.18727 11.6044 5.06477 11.8643 4.84672 12.0559C4.62867 12.2476 4.33293 12.3553 4.02456 12.3553ZM4.02456 9.28951C3.79459 9.28951 3.56979 9.22957 3.37858 9.11728C3.18737 9.00499 3.03836 8.8454 2.95035 8.65867C2.86235 8.47194 2.83931 8.26647 2.88418 8.06823C2.92904 7.87 3.03978 7.68791 3.20239 7.54499C3.365 7.40207 3.57218 7.30474 3.79773 7.26531C4.02327 7.22588 4.25706 7.24612 4.46952 7.32347C4.68197 7.40082 4.86355 7.53179 4.99131 7.69984C5.11908 7.8679 5.18727 8.06548 5.18727 8.26759C5.18727 8.53862 5.06477 8.79855 4.84672 8.9902C4.62867 9.18184 4.33293 9.28951 4.02456 9.28951ZM7.5127 12.3553C7.28274 12.3553 7.05794 12.2953 6.86673 12.183C6.67552 12.0707 6.5265 11.9112 6.4385 11.7244C6.3505 11.5377 6.32746 11.3322 6.37232 11.134C6.41719 10.9358 6.52793 10.7537 6.69054 10.6107C6.85315 10.4678 7.06033 10.3705 7.28588 10.3311C7.51142 10.2916 7.7452 10.3119 7.95766 10.3892C8.17012 10.4666 8.3517 10.5975 8.47946 10.7656C8.60722 10.9336 8.67542 11.1312 8.67542 11.3333C8.67542 11.6044 8.55292 11.8643 8.33487 12.0559C8.11682 12.2476 7.82107 12.3553 7.5127 12.3553ZM7.5127 9.28951C7.28274 9.28951 7.05794 9.22957 6.86673 9.11728C6.67552 9.00499 6.5265 8.8454 6.4385 8.65867C6.3505 8.47194 6.32746 8.26647 6.37232 8.06823C6.41719 7.87 6.52793 7.68791 6.69054 7.54499C6.85315 7.40207 7.06033 7.30474 7.28588 7.26531C7.51142 7.22588 7.7452 7.24612 7.95766 7.32347C8.17012 7.40082 8.3517 7.53179 8.47946 7.69984C8.60722 7.8679 8.67542 8.06548 8.67542 8.26759C8.67542 8.53862 8.55292 8.79855 8.33487 8.9902C8.11682 9.18184 7.82107 9.28951 7.5127 9.28951ZM7.5127 6.22376C7.28274 6.22376 7.05794 6.16382 6.86673 6.05153C6.67552 5.93924 6.5265 5.77965 6.4385 5.59292C6.3505 5.40619 6.32746 5.20072 6.37232 5.00248C6.41719 4.80425 6.52793 4.62216 6.69054 4.47924C6.85315 4.33632 7.06033 4.23899 7.28588 4.19956C7.51142 4.16013 7.7452 4.18037 7.95766 4.25772C8.17012 4.33507 8.3517 4.46604 8.47946 4.63409C8.60722 4.80215 8.67542 4.99973 8.67542 5.20184C8.67542 5.47287 8.55292 5.7328 8.33487 5.92445C8.11682 6.11609 7.82107 6.22376 7.5127 6.22376ZM11.0009 6.22376C10.7709 6.22376 10.5461 6.16382 10.3549 6.05153C10.1637 5.93924 10.0147 5.77965 9.92665 5.59292C9.83864 5.40619 9.81561 5.20072 9.86047 5.00248C9.90534 4.80425 10.0161 4.62216 10.1787 4.47924C10.3413 4.33632 10.5485 4.23899 10.774 4.19956C10.9996 4.16013 11.2334 4.18037 11.4458 4.25772C11.6583 4.33507 11.8398 4.46604 11.9676 4.63409C12.0954 4.80215 12.1636 4.99973 12.1636 5.20184C12.1636 5.47287 12.0411 5.7328 11.823 5.92445C11.605 6.11609 11.3092 6.22376 11.0009 6.22376Z" fill="white"/>
<path d="M16.8144 8.01212C15.7796 8.01212 14.768 8.28183 13.9075 8.78713C13.0471 9.29244 12.3765 10.0106 11.9805 10.8509C11.5844 11.6912 11.4808 12.6159 11.6827 13.5079C11.8846 14.4 12.3829 15.2193 13.1147 15.8625C13.8464 16.5056 14.7787 16.9436 15.7937 17.121C16.8086 17.2985 17.8606 17.2074 18.8167 16.8593C19.7728 16.5113 20.5899 15.9218 21.1649 15.1656C21.7398 14.4094 22.0467 13.5203 22.0467 12.6107C22.0467 11.3911 21.4954 10.2214 20.5142 9.35903C19.5329 8.49662 18.2021 8.01212 16.8144 8.01212ZM17.5411 12.8662C17.5411 13.0356 17.4646 13.1981 17.3283 13.3179C17.192 13.4376 17.0072 13.5049 16.8144 13.5049H13.9076C13.7149 13.5049 13.5301 13.4376 13.3938 13.3179C13.2575 13.1981 13.1809 13.0356 13.1809 12.8662C13.1809 12.6968 13.2575 12.5344 13.3938 12.4146C13.5301 12.2948 13.7149 12.2275 13.9076 12.2275H16.0877V9.80047C16.0877 9.63108 16.1643 9.46863 16.3006 9.34885C16.4369 9.22907 16.6217 9.16177 16.8144 9.16177C17.0072 9.16177 17.192 9.22907 17.3283 9.34885C17.4646 9.46863 17.5411 9.63108 17.5411 9.80047V12.8662Z" fill="white"/>
</svg>
