<svg id="Capa_1" enable-background="new 0 0 512 512" height="512" viewBox="0 0 512 512" width="512" xmlns="http://www.w3.org/2000/svg" xmlns:xlink="http://www.w3.org/1999/xlink"><linearGradient id="SVGID_1_" gradientUnits="userSpaceOnUse" x1="54.567" x2="417.674" y1="417.365" y2="54.259"><stop offset=".0485" stop-color="#d2deff"/><stop offset=".9993" stop-color="#dcfdee"/></linearGradient><g><g><path d="m397.503 156.857c-29.407-49.49 2.869-55.228 2.869-98.98 0-73.942-128.277-60.659-170.765-47.965-57.215 17.094-162.975 114.845-163.037 174.558-.108 103.643 100.697 95.753 93.321 221.249-2.779 47.279-43.899 67.254-22.747 93.92 37.247 46.958 169.987-46.56 164.966-167.774-1.889-45.599 98.98 27.973 142.014-43.035 31.225-51.521-15.228-79.14-46.621-131.973z" fill="url(#SVGID_1_)"/></g><g><g><g><path d="m429.74 240.204c-1.489-1.523-3.711-1.88-5.557-1.082 1.3-8.766 1.98-17.74 1.98-26.88 0-62.882-32.233-118.229-81.072-150.442-1.763-1.163-4.1-.939-5.594.555l-19.805 19.805c-21.734-12.329-46.858-19.375-73.631-19.375-25.128 0-48.801 6.21-69.585 17.166-.642-1.037-1.65-1.85-2.919-2.198-19.284-5.28-38.851-6.534-51.871-6.657-.016 0-.032 0-.048 0-2.739 0-4.973 2.208-4.999 4.953-.026 2.761 2.192 5.021 4.953 5.047 11.278.105 27.678 1.104 44.255 5.021-6.891 4.392-13.394 9.336-19.456 14.765-.743-.806-1.739-1.39-2.907-1.567-42.741-6.485-69.579-.936-77.613 16.053-7.775 16.441 3.87 39.636 33.669 67.276-1.922 9.568-2.936 19.465-2.936 29.599 0 26.773 7.046 51.897 19.375 73.631l-19.805 19.805c-1.494 1.494-1.718 3.83-.555 5.594 29.498 44.723 78.4 75.501 134.719 80.375v38.769h-81.805c-6.16 0-11.154 4.994-11.154 11.154v13.531c0 3.08 2.497 5.577 5.577 5.577h-16.731c-6.16 0-11.154 4.994-11.154 11.154v13.531c0 3.08 2.497 5.577 5.577 5.577h250.827c3.08 0 5.577-2.497 5.577-5.577v-13.531c0-6.16-4.994-11.154-11.154-11.154h-16.731c3.08 0 5.577-2.497 5.577-5.577v-13.531c0-6.16-4.994-11.154-11.154-11.154h-81.805v-38.757c41.003-3.513 77.989-20.636 106.448-46.865 7.576.905 15.563 1.458 23.768 1.458 12.187 0 24.858-1.222 37.366-4.326 2.68-.665 4.314-3.377 3.649-6.057-.665-2.681-3.375-4.313-6.057-3.648-16.573 4.113-33.664 4.624-49.423 3.351 5.375-5.73 10.378-11.811 14.97-18.21 5.799.532 11.242.804 16.306.804 24.676-.001 40.499-6.305 46.358-18.695 6.935-14.665-1.859-35.16-25.43-59.268zm-354.828-120.56c5.504-11.637 29.089-15.673 63.404-10.969-16.736 17.406-29.297 38.855-36.065 62.74-22.372-21.821-32.527-40.801-27.339-51.771zm371.218 175.551c-4.602 9.73-21.732 14.128-47.215 12.594 11.363-18.196 19.563-38.585 23.844-60.419 19.684 20.183 28.203 37.608 23.371 47.825z" fill="#2626bc" opacity=".1"/><g><path d="m230.338 350.713h31.448v75.364h-31.448z" fill="#ff5ba8"/><g><path d="m95.619 287.273c32.213 48.839 87.561 81.072 150.444 81.072 99.799-.001 180.101-80.304 180.101-180.102 0-62.882-32.233-118.229-81.072-150.442-1.763-1.163-4.1-.939-5.594.555l-243.324 243.323c-1.493 1.494-1.718 3.831-.555 5.594z" fill="#ff7eb8"/><g><g><path d="m382.461 306.12c-2.64 3.05-5.37 6.02-8.21 8.88-41.09-6.71-91.5-23.55-142.14-47.5-28.36-13.42-54.95-28.18-78.35-43.41l7.23-7.23c22.57 14.57 48.14 28.71 75.39 41.6 50.37 23.81 100.37 40.47 140.79 46.88 1.79.28 3.56.55 5.29.78z" fill="#ff5ba8"/></g><g><g><path d="m354.311 332.4c-3.71 2.78-7.53 5.42-11.45 7.92-19.65-4.55-33-10.15-34.17-10.65-2.54-1.08-3.73-4.01-2.64-6.55 1.08-2.54 4.01-3.73 6.55-2.65.32.14 17.51 7.32 41.71 11.93z" fill="#ff5ba8"/></g></g></g><circle cx="246.062" cy="188.243" fill="#8399fe" r="149.457"/><g><g><path d="m346.451 298.97c-3.03 2.75-6.18 5.38-9.43 7.88-32.64-8.75-68.71-22.23-104.91-39.35-51.2-24.22-96.63-52.85-127.93-80.64-2.57-2.28-5.03-4.54-7.36-6.77.23-4.34.65-8.63 1.25-12.86 3.83 3.96 8.09 8.02 12.75 12.16 30.6 27.16 75.2 55.25 125.56 79.07 38.25 18.08 76.28 32.04 110.07 40.51z" fill="#6583fe"/></g></g><path d="m381.239 252.07c-23.633 49.967-74.156 84.727-132.879 85.606l31.777-31.777c1.512-1.512 2.362-3.563 2.362-5.701v-7.069c0-2.138.849-4.188 2.36-5.7l14.905-14.911c1.511-1.512 2.36-3.562 2.36-5.7v-27.664c0-4.453 3.61-8.063 8.063-8.063h46.732c2.138 0 4.189.849 5.701 2.362z" fill="#01eca5"/><path d="m346.451 298.97c-3.03 2.75-6.18 5.38-9.43 7.88-17.08-4.58-35.1-10.45-53.59-17.47.37-.71.85-1.37 1.43-1.95l5.95-5.95c19.32 7.19 38.05 13.08 55.64 17.49z" fill="#00d890"/><path d="m395.519 188.243c0 4.596-.21 9.136-.613 13.627h-28.946c-4.453 0-8.063-3.61-8.063-8.063v-14.342c0-2.138-.85-4.189-2.362-5.701l-30.722-30.722c-1.512-1.512-3.563-2.362-5.701-2.362h-16.494c-2.138 0-4.189.85-5.701 2.362l-26.529 26.529c-1.512 1.512-2.362 3.563-2.362 5.701v32.53c0 2.139-.85 4.19-2.363 5.702l-21.182 21.175c-1.513 1.512-2.363 3.563-2.363 5.702v32.371c0 4.453-3.61 8.063-8.063 8.063h-7.174c-2.138 0-4.189-.849-5.701-2.362l-15.757-15.757c-1.512-1.512-2.362-3.563-2.362-5.701v-54.543c0-2.138-.85-4.189-2.362-5.701l-23.884-23.884c-1.512-1.512-2.362-3.563-2.362-5.701v-47.778c0-2.138.85-4.189 2.362-5.701l10.661-10.661c1.512-1.512 3.563-2.362 5.701-2.362h26.089c2.138 0 4.189-.849 5.701-2.361l22.401-22.395c1.512-1.512 3.563-2.361 5.701-2.361h33.751c4.453 0 8.063-3.61 8.063-8.063v-18.538c58.571 20.23 100.636 75.857 100.636 141.297z" fill="#01eca5"/><path d="m242.121 261.14v11c-3.34-1.51-6.67-3.06-10.01-4.64-9.92-4.69-19.62-9.55-29.05-14.53v-11.34c10.74 5.79 21.88 11.42 33.32 16.83 1.91.9 3.83 1.8 5.74 2.68z" fill="#00d890"/></g><g><circle cx="254.93" cy="119.376" fill="#00d890" r="7.5"/><circle cx="341.52" cy="261.917" fill="#00d890" r="7.5"/><circle cx="223.482" cy="175.92" fill="#00b574" r="7.5"/><circle cx="236.084" cy="199.945" fill="#00d890" r="7.5"/><g fill="#02ffb3"><circle cx="333.841" cy="114.01" r="7.5"/><circle cx="276.487" cy="98.382" r="7.5"/></g></g><g><path d="m371.475 466.94h-250.827c-3.08 0-5.577-2.497-5.577-5.577v-13.53c0-6.16 4.994-11.154 11.154-11.154h239.673c6.16 0 11.154 4.994 11.154 11.154v13.53c0 3.08-2.497 5.577-5.577 5.577z" fill="#ffc4df"/><path d="m349.168 436.679h-206.212c-3.08 0-5.577-2.497-5.577-5.577v-13.53c0-6.16 4.994-11.154 11.154-11.154h195.058c6.16 0 11.154 4.994 11.154 11.154v13.53c0 3.08-2.497 5.577-5.577 5.577z" fill="#ffa8cf"/><path d="m172.402 406.417h147.32v30.261h-147.32z" fill="#ff7eb8"/></g></g><g><g><path d="m392.001 322.253c-43.744 0-81.314-15.727-83.313-16.578-2.541-1.082-3.723-4.019-2.641-6.56 1.081-2.54 4.016-3.724 6.557-2.643.597.255 60.255 25.176 114.355 11.749 2.682-.667 5.392.969 6.057 3.648s-.969 5.392-3.649 6.057c-12.508 3.105-25.179 4.327-37.366 4.327z" fill="#2626bc"/></g><path d="m429.74 216.204c-.163-.167-.375-.25-.605-.297 1.342-9.075 2.026-18.316 2.026-27.667 0-62.408-31.147-120.208-83.32-154.616-3.742-2.464-8.742-1.955-11.876 1.2l-17.184 17.186c-21.684-11.621-46.444-18.224-72.719-18.224-27.124 0-52.631 7.037-74.808 19.367-18.527-4.767-37.065-5.938-49.566-6.056-.016 0-.032 0-.048 0-2.739 0-4.973 2.208-4.999 4.953-.026 2.761 2.192 5.021 4.953 5.047 9.739.091 23.299.85 37.492 3.575-6.327 4.327-12.314 9.114-17.919 14.309-41.386-5.933-67.406-.289-75.294 16.388-7.396 15.639 2.769 37.388 29.427 63.262-2.412 10.825-3.694 22.071-3.694 33.613 0 6.849.461 13.781 1.372 20.606.364 2.736 2.882 4.666 5.617 4.295 2.737-.365 4.66-2.88 4.295-5.617-.852-6.388-1.284-12.876-1.284-19.284 0-8.75.783-17.321 2.281-25.646.101.089.196.178.297.267 31.293 27.781 76.726 56.417 127.928 80.632 41.759 19.747 83.354 34.66 119.697 43.05-26.394 28.373-64.03 46.154-105.746 46.154-62.017 0-117.024-39.444-136.877-98.152-.885-2.616-3.722-4.02-6.338-3.135s-4.02 3.723-3.135 6.338c2.744 8.115 6.121 15.882 10.056 23.261l-17.133 17.132c-3.161 3.162-3.657 8.164-1.188 11.878 30.568 46.35 79.588 76.083 133.894 82.146v29.248h-76.809c-8.907 0-16.154 7.247-16.154 16.154v13.53c0 .195.019.385.029.577h-6.183c-8.907 0-16.154 7.246-16.154 16.153v13.531c0 5.832 4.745 10.576 10.577 10.576h250.827c5.832 0 10.577-4.744 10.577-10.576v-13.531c0-8.907-7.247-16.153-16.154-16.153h-6.183c.01-.192.029-.382.029-.577v-13.53c0-8.907-7.247-16.154-16.154-16.154h-76.81v-29.221c41.737-4.583 80.316-22.971 110.291-52.946 7.911-7.911 15.007-16.427 21.265-25.437 3.647.23 7.148.353 10.476.353 24.676-.001 40.499-6.305 46.358-18.695 6.935-14.664-1.859-35.159-25.43-59.267zm-87.029-173.983c49.134 32.579 78.45 87.13 78.45 146.02 0 35.037-10.352 67.699-28.147 95.102-5.01-.456-10.297-1.117-15.846-1.998-2.314-.367-4.663-.772-7.038-1.207 19.083-25.698 30.388-57.499 30.388-91.894 0-55.202-29.115-103.724-72.789-131.041zm-267.799 53.423c5.174-10.94 26.326-15.162 57.351-11.722-15.445 16.834-27.209 37.091-34.015 59.489-19.565-20.128-28.204-37.474-23.336-47.767zm161.474 138.811c-50.368-23.819-94.961-51.9-125.564-79.069-1.525-1.354-2.998-2.698-4.436-4.034 16.347-61.84 72.768-107.565 139.676-107.565 79.654 0 144.457 64.803 144.457 144.457 0 33.87-11.722 65.05-31.315 89.709-36.811-7.958-79.676-23.096-122.818-43.498zm113.358 183.116v13.53c0 .318-.259.577-.577.577h-48.103c-2.761 0-5 2.238-5 5s2.239 5 5 5h64.833c3.393 0 6.154 2.761 6.154 6.153v13.531c0 .317-.259.576-.577.576h-250.826c-.318 0-.577-.259-.577-.576v-13.531c0-3.393 2.761-6.153 6.154-6.153h146.03c2.761 0 5-2.238 5-5s-2.239-5-5-5h-129.299c-.318 0-.577-.259-.577-.577v-13.53c0-3.394 2.761-6.154 6.154-6.154h195.058c3.393 0 6.153 2.761 6.153 6.154zm-92.963-16.154h-21.44v-28.395c3.547.203 7.11.318 10.691.318h.029c3.591 0 7.164-.113 10.72-.313zm-10.721-38.077c-.011 0-.017 0-.027 0-58.866 0-113.404-29.312-145.995-78.456l14.906-14.906c27.755 44.554 76.932 72.722 131.118 72.722 46.718 0 88.654-20.851 117.001-53.733 4.266.849 8.451 1.604 12.538 2.252 3.754.596 7.373 1.09 10.885 1.505-31.951 42.83-83.003 70.616-140.426 70.616zm200.07-92.145c-4.246 8.976-19.157 13.413-41.451 12.843 10.486-17.353 17.999-36.302 22.284-56.209 16.669 18.277 23.639 33.91 19.167 43.366z" fill="#2626bc"/></g></g><g><path d="m348.225 162.42c0 11.755-15.893 32.75-23.944 42.631-2.357 2.892-6.764 2.892-9.12 0-8.051-9.882-23.944-30.877-23.944-42.631 0-15.742 12.762-28.504 28.504-28.504 15.743.001 28.504 12.762 28.504 28.504z" fill="#ff5ba8"/><circle cx="319.721" cy="160.806" fill="#fff" r="12.589"/></g><g><path d="m232.811 106.32c0 12.269-16.587 34.181-24.99 44.495-2.46 3.019-7.059 3.019-9.519 0-8.403-10.314-24.99-32.227-24.99-44.495 0-16.43 13.319-29.75 29.75-29.75s29.749 13.32 29.749 29.75z" fill="#ff5ba8"/><circle cx="203.061" cy="104.635" fill="#fff" r="13.139"/></g></g><g><path d="m409.542 383.807c-1.031 0-2.062-.318-2.939-.955l-3.859-2.804-3.859 2.804c-1.752 1.273-4.125 1.273-5.878 0-1.752-1.273-2.486-3.53-1.816-5.59l1.474-4.537-3.859-2.805c-1.752-1.273-2.486-3.53-1.816-5.59.669-2.061 2.589-3.455 4.755-3.455h4.771l1.474-4.537c.669-2.061 2.589-3.455 4.755-3.455s4.086 1.395 4.755 3.455l1.474 4.537h4.771c2.166 0 4.086 1.395 4.755 3.455s-.064 4.316-1.816 5.59l-3.859 2.805 1.474 4.537c.669 2.06-.064 4.316-1.816 5.59-.878.636-1.91.955-2.941.955z" fill="#01eca5"/></g><g><path d="m437.962 62.407c-1.031 0-2.062-.318-2.939-.955l-3.859-2.804-3.859 2.804c-1.752 1.273-4.125 1.273-5.878 0-1.752-1.273-2.486-3.53-1.816-5.59l1.474-4.536-3.859-2.805c-1.752-1.273-2.486-3.53-1.816-5.59.669-2.061 2.589-3.455 4.755-3.455h4.771l1.474-4.537c.669-2.061 2.589-3.455 4.755-3.455s4.086 1.395 4.755 3.455l1.474 4.537h4.771c2.166 0 4.086 1.395 4.755 3.455s-.064 4.316-1.816 5.59l-3.859 2.805 1.474 4.536c.669 2.06-.064 4.316-1.816 5.59-.878.637-1.91.955-2.941.955z" fill="#ff7eb8"/></g><g><path d="m68.563 252.54c-1.28 0-2.559-.488-3.536-1.465l-10.5-10.5c-1.953-1.952-1.953-5.118 0-7.07l10.5-10.5c1.953-1.953 5.118-1.953 7.071 0l10.5 10.5c1.953 1.952 1.953 5.118 0 7.07l-10.5 10.5c-.976.977-2.255 1.465-3.535 1.465zm-3.429-15.5 3.429 3.429 3.429-3.429-3.429-3.429z" fill="#8399fe"/></g><g><path d="m448.472 120.135c-1.28 0-2.559-.488-3.536-1.465l-10.5-10.5c-1.953-1.952-1.953-5.118 0-7.07l10.5-10.5c1.953-1.953 5.118-1.953 7.071 0l10.5 10.5c1.953 1.952 1.953 5.118 0 7.07l-10.5 10.5c-.976.976-2.255 1.465-3.535 1.465zm-3.428-15.5 3.429 3.429 3.429-3.429-3.429-3.429z" fill="#8399fe"/></g><g><path d="m63.528 323.588c-1.28 0-2.559-.488-3.536-1.465l-10.5-10.5c-1.953-1.952-1.953-5.118 0-7.07l10.5-10.5c1.953-1.953 5.118-1.953 7.071 0l10.5 10.5c1.953 1.952 1.953 5.118 0 7.07l-10.5 10.5c-.976.977-2.256 1.465-3.535 1.465zm-3.429-15.5 3.429 3.429 3.429-3.429-3.429-3.429z" fill="#01eca5"/></g></g></g></svg>