<svg width="24" height="17" viewBox="0 0 24 17" fill="none" xmlns="http://www.w3.org/2000/svg">
<path d="M3.0087 13.2847V9.93797L1.84597 9.35037V13.2541C1.53446 13.3634 1.27533 13.5638 1.11219 13.8214C0.949049 14.079 0.891867 14.3781 0.950267 14.6684C1.00867 14.9587 1.17909 15.2225 1.43283 15.4153C1.68658 15.6081 2.00816 15.7182 2.34345 15.727C2.67874 15.7359 3.00725 15.6429 3.27369 15.4638C3.54014 15.2847 3.72824 15.0304 3.80633 14.7437C3.88443 14.457 3.84775 14.1554 3.70248 13.8897C3.5572 13.6239 3.31219 13.4103 3.0087 13.2847V13.2847Z" fill="black"/>
<path d="M12.165 14.2096C11.7104 14.2103 11.2634 14.1063 10.8686 13.9081L4.47369 10.6635V13.2183C4.47369 13.2183 4.52601 13.2541 4.5609 13.2694L11.0314 16.5344C11.3849 16.7138 11.7859 16.8083 12.1941 16.8083C12.6023 16.8083 13.0033 16.7138 13.3568 16.5344L19.8273 13.2694C20.1813 13.0898 20.4752 12.8313 20.6793 12.52C20.8835 12.2087 20.9906 11.8557 20.99 11.4964V10.1219L13.4615 13.9234C13.065 14.1163 12.6181 14.2149 12.165 14.2096V14.2096ZM23.3968 5.67146L13.3219 0.587419C12.9684 0.408036 12.5674 0.313599 12.1592 0.313599C11.751 0.313599 11.35 0.408036 10.9965 0.587419L0.933232 5.67146C0.762375 5.76254 0.621113 5.8908 0.523076 6.04384C0.425039 6.19689 0.373535 6.36956 0.373535 6.54519C0.373535 6.72083 0.425039 6.8935 0.523076 7.04655C0.621113 7.19959 0.762375 7.32784 0.933232 7.41893L11.5953 12.7993C11.7721 12.889 11.9726 12.9362 12.1767 12.9362C12.3808 12.9362 12.5813 12.889 12.758 12.7993L23.3968 7.41893C23.5677 7.32784 23.709 7.19959 23.807 7.04655C23.905 6.8935 23.9565 6.72083 23.9565 6.54519C23.9565 6.36956 23.905 6.19689 23.807 6.04384C23.709 5.8908 23.5677 5.76254 23.3968 5.67146V5.67146Z" fill="black"/>
</svg>
