<svg width="27" height="27" viewBox="0 0 27 27" fill="none" xmlns="http://www.w3.org/2000/svg">
<g clip-path="url(#clip0_2_4014)">
<path d="M10.3624 21.4169C9.77992 21.4169 9.30774 21.8891 9.30774 22.4716V25.9456C9.30774 26.5281 9.77992 27.0003 10.3624 27.0003C10.9449 27.0003 11.4171 26.5281 11.4171 25.9456V22.4716C11.4171 21.8891 10.9449 21.4169 10.3624 21.4169Z" fill="#C4C4C4"/>
<path d="M12.4718 17.1917H11.4171V1.05499C11.4171 0.472489 10.9449 0.000305176 10.3624 0.000305176C9.77992 0.000305176 9.30774 0.472489 9.30774 1.05499V17.1917H8.25305C7.67055 17.1917 7.19836 17.6639 7.19836 18.2464C7.19836 18.8289 7.67055 19.3011 8.25305 19.3011H12.4718C13.0543 19.3011 13.5265 18.8289 13.5265 18.2464C13.5265 17.6639 13.0543 17.1917 12.4718 17.1917Z" fill="#C4C4C4"/>
<path d="M3.19055 7.60049C2.60805 7.60049 2.13586 8.07268 2.13586 8.65518V25.9456C2.13586 26.5281 2.60805 27.0003 3.19055 27.0003C3.77306 27.0003 4.24524 26.5281 4.24524 25.9456V8.65518C4.24524 8.07268 3.77306 7.60049 3.19055 7.60049Z" fill="#C4C4C4"/>
<path d="M5.29993 3.38817H4.24524V1.05499C4.24524 0.472489 3.77306 0.000305176 3.19055 0.000305176C2.60805 0.000305176 2.13586 0.472489 2.13586 1.05499V3.38817H1.08118C0.498673 3.38817 0.0264893 3.86036 0.0264893 4.44286C0.0264893 5.02536 0.498673 5.49755 1.08118 5.49755H5.29993C5.88243 5.49755 6.35461 5.02536 6.35461 4.44286C6.35461 3.86036 5.88243 3.38817 5.29993 3.38817Z" fill="#C4C4C4"/>
<path d="M23.8097 9.02673C23.2272 9.02673 22.755 9.49892 22.755 10.0814V25.9456C22.755 26.5281 23.2272 27.0003 23.8097 27.0003C24.3922 27.0003 24.8644 26.5281 24.8644 25.9456V10.0814C24.8644 9.49892 24.3922 9.02673 23.8097 9.02673Z" fill="#C4C4C4"/>
<path d="M25.9191 4.80557H24.8644V1.05499C24.8644 0.472489 24.3922 0.000305176 23.8097 0.000305176C23.2272 0.000305176 22.755 0.472489 22.755 1.05499V4.80557H21.7003C21.1178 4.80557 20.6456 5.27775 20.6456 5.86025C20.6456 6.44276 21.1178 6.91494 21.7003 6.91494H25.9191C26.5016 6.91494 26.9738 6.44276 26.9738 5.86025C26.9738 5.27775 26.5016 4.80557 25.9191 4.80557Z" fill="#C4C4C4"/>
<path d="M16.9542 16.7763C16.3717 16.7763 15.8995 17.2485 15.8995 17.831V25.9456C15.8995 26.5281 16.3717 27.0003 16.9542 27.0003C17.5367 27.0003 18.0089 26.5281 18.0089 25.9456V17.831C18.0089 17.2485 17.5367 16.7763 16.9542 16.7763Z" fill="#C4C4C4"/>
<path d="M19.0636 12.564H18.0089V1.05499C18.0089 0.472489 17.5367 0.000305176 16.9542 0.000305176C16.3717 0.000305176 15.8995 0.472489 15.8995 1.05499V12.564H14.8448C14.2623 12.564 13.7902 13.0361 13.7902 13.6186C13.7902 14.2011 14.2623 14.6733 14.8448 14.6733H19.0636C19.6461 14.6733 20.1183 14.2011 20.1183 13.6186C20.1183 13.0361 19.6461 12.564 19.0636 12.564Z" fill="#C4C4C4"/>
</g>
<defs>
<clipPath id="clip0_2_4014">
<rect width="27" height="27" fill="white" transform="translate(0.00012207 0.000305176)"/>
</clipPath>
</defs>
</svg>
