<svg width="56" height="25" viewBox="0 0 56 25" fill="none" xmlns="http://www.w3.org/2000/svg">
<path fill-rule="evenodd" clip-rule="evenodd" d="M27.7119 20.496L13.9831 15.9336L11.8664 15.2315V19.7356L13.9807 20.4376L27.7095 25L41.4406 20.4376L43.5526 19.7356V15.2315L41.4406 15.9336L27.7119 20.496ZM27.7119 0.67572L41.443 5.23808L55.1718 9.80045L41.443 14.3628L27.7119 18.9252L25.9744 18.3481L23.8198 19.0648V17.921L28.6221 16.3253L29.2478 16.1169C29.5101 16.373 29.8659 16.5405 30.2538 16.5903C30.6417 16.6401 31.0372 16.5692 31.3719 16.3898C31.7066 16.2104 31.9594 15.9339 32.0866 15.6079C32.2137 15.282 32.2073 14.9273 32.0683 14.6051C31.9293 14.283 31.6665 14.0136 31.3255 13.8438C30.9844 13.6739 30.5865 13.6142 30.2007 13.6749C29.8148 13.7356 29.4652 13.913 29.2124 14.1764C28.9596 14.4397 28.8196 14.7724 28.8164 15.117L22.5328 17.2065L19.4277 16.1648L17.3442 16.8586V15.7232L17.7068 15.6024L30.9805 11.1921C31.2428 11.4482 31.5986 11.6156 31.9865 11.6655C32.3744 11.7153 32.7699 11.6444 33.1046 11.465C33.4393 11.2856 33.6921 11.009 33.8193 10.6831C33.9464 10.3572 33.9399 10.0024 33.801 9.68028C33.662 9.35812 33.3992 9.08879 33.0582 8.91892C32.7171 8.74904 32.3192 8.6893 31.9334 8.75003C31.5475 8.81077 31.1979 8.98816 30.9451 9.2515C30.6923 9.51484 30.5522 9.84757 30.5491 10.1921L15.9884 15.0315L13.9831 14.3628L12.5775 13.8962L9.17138 15.0274V13.8837L10.8543 13.3253L19.4917 10.4546C19.7536 10.7117 20.1096 10.8803 20.498 10.931C20.8864 10.9818 21.2828 10.9115 21.6185 10.7325C21.9542 10.5535 22.2081 10.2769 22.3363 9.95063C22.4644 9.62438 22.4587 9.26903 22.3202 8.94609C22.1816 8.62316 21.9189 8.35297 21.5776 8.18232C21.2363 8.01166 20.8378 7.95129 20.4512 8.01165C20.0645 8.072 19.7141 8.24929 19.4605 8.51282C19.2069 8.77634 19.0662 9.10951 19.0626 9.45463L9.13346 12.7587L6.82716 11.9921L3.28831 13.1628V12.0191L8.09053 10.4233L20.902 6.16514C21.1639 6.42228 21.5199 6.59081 21.9083 6.64156C22.2968 6.69231 22.6931 6.62209 23.0288 6.44305C23.3646 6.264 23.6185 5.98741 23.7466 5.66117C23.8747 5.33493 23.869 4.97957 23.7305 4.65664C23.5919 4.3337 23.3293 4.06351 22.9879 3.89286C22.6466 3.72221 22.2481 3.66183 21.8615 3.72219C21.4749 3.78255 21.1244 3.95984 20.8708 4.22336C20.6173 4.48688 20.4765 4.82005 20.473 5.16517L3.38786 10.8421L0.251953 9.80045L13.9831 5.23808L27.7119 0.67572Z" fill="white"/>
</svg>
