<svg width="140" height="29" viewBox="0 0 140 29" fill="none" xmlns="http://www.w3.org/2000/svg">
<path fill-rule="evenodd" clip-rule="evenodd" d="M130.854 9.47449V16.726H132.924V0.608737H130.854V7.77058H120.273V0.61454L118.203 0.61454V16.7318H120.273V9.47449H130.854ZM113.612 14.1704L112.25 12.9964C111.376 13.7335 110.486 14.3054 109.579 14.7119C108.672 15.1185 107.589 15.3216 106.331 15.3212C105.361 15.3299 104.4 15.154 103.515 14.8054C102.665 14.4685 101.899 13.9864 101.263 13.3871C100.614 12.7728 100.107 12.0535 99.7695 11.2693C99.4065 10.4314 99.2244 9.54135 99.2325 8.64478C99.2236 7.75192 99.4057 6.86555 99.7695 6.03186C100.109 5.25199 100.616 4.53689 101.263 3.92566C101.91 3.31534 102.695 2.83024 103.568 2.50125C104.44 2.17226 105.381 2.00659 106.331 2.0148C107.588 2.0148 108.666 2.22196 109.566 2.63628C110.485 3.06357 111.336 3.59789 112.093 4.2248L113.507 2.88965C113.063 2.51319 112.591 2.16321 112.093 1.84203C111.595 1.52344 111.059 1.25324 110.495 1.03617C109.893 0.807361 109.265 0.634504 108.622 0.520415C107.876 0.391735 107.117 0.330172 106.356 0.336679C105.012 0.336679 103.772 0.555229 102.638 0.992327C101.532 1.41127 100.534 2.02194 99.7035 2.78779C98.8763 3.55818 98.2238 4.46008 97.7809 5.44519C96.8547 7.54065 96.8547 9.86496 97.7809 11.9604C98.2204 12.9414 98.8746 13.837 99.7064 14.5965C100.534 15.3456 101.522 15.9439 102.613 16.3572C103.731 16.787 104.954 17.0019 106.281 17.0019C107.047 17.0086 107.812 16.9392 108.56 16.7949C109.219 16.6634 109.86 16.4704 110.472 16.2192C111.061 15.9763 111.618 15.6791 112.136 15.3328C112.66 14.9787 113.154 14.5901 113.612 14.1704ZM92.6243 0.611316L79.3698 0.611316V16.7285H92.7542V15.0685H81.4405V9.42808H91.4456V7.77058H81.4405V2.26688L92.6243 2.26688V0.611316ZM68.3363 2.29138H74.4912V0.611316H60.1143V2.29138H66.2692V16.726H68.3385L68.3363 2.29138ZM55.9399 9.70529V0.615184L51.9056 0.615184V9.84261C51.9056 11.132 51.5564 12.099 50.8581 12.7437C50.1598 13.3884 49.1906 13.7107 47.9505 13.7107C46.7108 13.7107 45.7416 13.377 45.0428 12.7095C44.344 12.0421 43.9949 11.0482 43.9954 9.72786V0.611316H39.9611V9.8194C39.9611 12.1983 40.6682 13.9862 42.0824 15.1832C43.4966 16.3802 45.4365 16.9787 47.9021 16.9787C49.1246 16.9787 50.2337 16.8282 51.2293 16.5274C52.1826 16.2507 53.0514 15.7864 53.7694 15.1697C54.4677 14.5628 55.0056 13.8068 55.3832 12.9017C55.7607 11.9965 55.9463 10.9308 55.9399 9.70465V9.70529ZM31.4714 8.71376C31.4821 9.38315 31.3443 10.048 31.0658 10.671C30.8069 11.2373 30.4241 11.7533 29.9391 12.1899C29.4468 12.627 28.8524 12.9649 28.197 13.1802C27.477 13.4163 26.7135 13.5332 25.9451 13.5251H22.8277V3.81413H25.9451C26.7148 3.80577 27.4792 3.92701 28.197 4.17129C28.8498 4.39262 29.4424 4.73221 29.9361 5.16798C30.4262 5.61192 30.8094 6.13816 31.0628 6.71523C31.3389 7.33767 31.4775 8.00061 31.4714 8.66863V8.71376ZM35.6884 8.66799V8.62157C35.6996 7.53539 35.459 6.45858 34.9812 5.4568C34.52 4.4954 33.8366 3.62868 32.9744 2.91157C32.0809 2.1743 31.0308 1.59921 29.8841 1.21926C28.688 0.812244 27.374 0.608952 25.9422 0.609382L18.7912 0.609382V16.7266H25.9422C27.374 16.7266 28.688 16.5192 29.8841 16.1045C31.0297 15.7179 32.0792 15.1397 32.9744 14.4019C33.8375 13.6817 34.5201 12.811 34.9783 11.8457C35.4554 10.8394 35.6959 9.75872 35.6854 8.66863L35.6884 8.66799ZM14.203 16.7266V13.5721H4.24927V10.1882H12.8937V7.0337H4.24634V3.76513H14.0688V0.611316L0.265564 0.611316L0.265564 16.7285L14.203 16.7266Z" fill="white"/>
<path d="M3.01893 26.535V24.0642L4.96773 20.6712H3.75843L3.05373 22.1763C2.85363 22.6026 2.68833 22.968 2.54913 23.3421H2.53173C2.36643 22.9419 2.21853 22.6113 2.01843 22.1763L1.32243 20.6712H0.0957305L1.94883 24.0903L1.94883 26.535H3.01893ZM7.7448 20.5668C6.0918 20.5668 4.9521 21.837 4.9521 23.6466C4.9521 25.3605 5.9961 26.6307 7.6578 26.6307C9.2673 26.6307 10.4592 25.5084 10.4592 23.5422C10.4592 21.8631 9.45 20.5668 7.7448 20.5668ZM7.71 21.4281C8.7801 21.4281 9.3282 22.4721 9.3282 23.577C9.3282 24.8037 8.7453 25.7694 7.71 25.7694C6.6834 25.7694 6.0831 24.8211 6.0831 23.6205C6.0831 22.4112 6.6486 21.4281 7.71 21.4281ZM11.3736 20.6712V24.0294C11.3736 25.8738 12.2523 26.6307 13.6095 26.6307C15.0189 26.6307 15.9498 25.8303 15.9498 24.0207V20.6712H14.8797V24.0903C14.8797 25.2387 14.4186 25.7694 13.6443 25.7694C12.9222 25.7694 12.4437 25.2387 12.4437 24.0903V20.6712H11.3736ZM17.1766 26.535H18.238V24.1251H18.7774C19.3864 24.1425 19.6561 24.3861 19.8301 25.1517C19.9867 25.8825 20.1346 26.361 20.2216 26.535H21.3178C21.2047 26.3088 21.0481 25.6302 20.8567 24.8994C20.7175 24.3339 20.4652 23.925 20.0389 23.7684V23.7423C20.5957 23.5509 21.109 23.0376 21.109 22.2807C21.109 21.7761 20.9263 21.3672 20.6044 21.0975C20.2042 20.7669 19.6387 20.6277 18.7948 20.6277C18.1771 20.6277 17.5855 20.6799 17.1766 20.7582V26.535ZM18.238 21.489C18.3424 21.4629 18.5599 21.4368 18.8992 21.4368C19.5952 21.4368 20.0389 21.7413 20.0389 22.3764C20.0389 22.9593 19.5952 23.3421 18.8731 23.3421H18.238V21.489ZM28.629 23.2986H26.5584V24.1425H27.5937V25.6128C27.4545 25.6737 27.1761 25.7259 26.7846 25.7259C25.5666 25.7259 24.7488 24.9342 24.7488 23.6031C24.7488 22.2372 25.6275 21.4977 26.8803 21.4977C27.498 21.4977 27.8895 21.6021 28.2114 21.75L28.4463 20.8887C28.1766 20.7582 27.6111 20.6103 26.889 20.6103C24.9489 20.6103 23.6352 21.7935 23.6265 23.6553C23.6265 24.5427 23.9223 25.317 24.4443 25.8129C25.0011 26.3436 25.758 26.5959 26.7498 26.5959C27.5241 26.5959 28.2549 26.4045 28.629 26.2653V23.2986ZM32.7529 24.8733L33.2836 26.535H34.4407L32.5354 20.6712H31.1695L29.2903 26.535H30.3952L30.8998 24.8733H32.7529ZM31.0738 24.0642L31.5262 22.62C31.6219 22.272 31.7176 21.8631 31.8046 21.5238H31.822C31.909 21.8631 32.0047 22.2633 32.1178 22.62L32.5789 24.0642H31.0738ZM35.6734 26.535H36.7435V21.5673H38.4313V20.6712H34.003V21.5673H35.6734V26.535ZM42.4019 23.0637H40.1921V21.5499H42.5324V20.6712H39.122V26.535H42.6629V25.6563H40.1921V23.9337H42.4019V23.0637ZM46.1746 26.535H47.2447V21.5673H48.9325V20.6712H44.5042V21.5673H46.1746V26.535ZM51.865 20.5668C50.212 20.5668 49.0723 21.837 49.0723 23.6466C49.0723 25.3605 50.1163 26.6307 51.778 26.6307C53.3875 26.6307 54.5794 25.5084 54.5794 23.5422C54.5794 21.8631 53.5702 20.5668 51.865 20.5668ZM51.8302 21.4281C52.9003 21.4281 53.4484 22.4721 53.4484 23.577C53.4484 24.8037 52.8655 25.7694 51.8302 25.7694C50.8036 25.7694 50.2033 24.8211 50.2033 23.6205C50.2033 22.4112 50.7688 21.4281 51.8302 21.4281ZM57.3037 26.535H58.3738V24.0381H60.5314V23.1681H58.3738V21.5499H60.6967V20.6712H57.3037V26.535ZM61.7214 20.6712V24.0294C61.7214 25.8738 62.6001 26.6307 63.9573 26.6307C65.3667 26.6307 66.2976 25.8303 66.2976 24.0207V20.6712H65.2275V24.0903C65.2275 25.2387 64.7664 25.7694 63.9921 25.7694C63.27 25.7694 62.7915 25.2387 62.7915 24.0903V20.6712H61.7214ZM68.6468 26.535H69.7169V21.5673H71.4047V20.6712H66.9764V21.5673H68.6468V26.535ZM72.0867 20.6712V24.0294C72.0867 25.8738 72.9654 26.6307 74.3226 26.6307C75.732 26.6307 76.6629 25.8303 76.6629 24.0207V20.6712H75.5928V24.0903C75.5928 25.2387 75.1317 25.7694 74.3574 25.7694C73.6353 25.7694 73.1568 25.2387 73.1568 24.0903V20.6712H72.0867ZM77.8897 26.535H78.9511V24.1251H79.4905C80.0995 24.1425 80.3692 24.3861 80.5432 25.1517C80.6998 25.8825 80.8477 26.361 80.9347 26.535H82.0309C81.9178 26.3088 81.7612 25.6302 81.5698 24.8994C81.4306 24.3339 81.1783 23.925 80.752 23.7684V23.7423C81.3088 23.5509 81.8221 23.0376 81.8221 22.2807C81.8221 21.7761 81.6394 21.3672 81.3175 21.0975C80.9173 20.7669 80.3518 20.6277 79.5079 20.6277C78.8902 20.6277 78.2986 20.6799 77.8897 20.7582V26.535ZM78.9511 21.489C79.0555 21.4629 79.273 21.4368 79.6123 21.4368C80.3083 21.4368 80.752 21.7413 80.752 22.3764C80.752 22.9593 80.3083 23.3421 79.5862 23.3421H78.9511V21.489ZM86.1228 23.0637H83.913V21.5499H86.2533V20.6712H82.8429V26.535H86.3838V25.6563H83.913V23.9337H86.1228V23.0637ZM92.4014 23.0637H90.1916V21.5499H92.5319V20.6712H89.1215V26.535H92.6624V25.6563H90.1916V23.9337H92.4014V23.0637ZM93.599 26.5176C93.9557 26.5611 94.4255 26.5959 95.0432 26.5959C96.1829 26.5959 97.1138 26.3262 97.6967 25.7955C98.2535 25.2909 98.6102 24.5166 98.6102 23.4639C98.6102 22.4721 98.2622 21.7674 97.688 21.3063C97.1486 20.8539 96.4004 20.6277 95.3042 20.6277C94.6691 20.6277 94.0775 20.6799 93.599 20.7495V26.5176ZM94.6691 21.5238C94.8257 21.489 95.0606 21.4629 95.3999 21.4629C96.7397 21.4629 97.4879 22.2111 97.4792 23.4987C97.4792 24.9864 96.6527 25.7607 95.2607 25.752C95.0432 25.752 94.817 25.752 94.6691 25.7259V21.5238ZM99.5291 20.6712V24.0294C99.5291 25.8738 100.408 26.6307 101.765 26.6307C103.174 26.6307 104.105 25.8303 104.105 24.0207V20.6712H103.035V24.0903C103.035 25.2387 102.574 25.7694 101.8 25.7694C101.078 25.7694 100.599 25.2387 100.599 24.0903V20.6712H99.5291ZM109.36 25.5258C109.073 25.6476 108.621 25.7346 108.194 25.7346C106.898 25.7346 106.15 24.9168 106.15 23.6205C106.15 22.2111 107.011 21.4629 108.203 21.4629C108.682 21.4629 109.073 21.5673 109.351 21.6891L109.578 20.8365C109.36 20.7234 108.864 20.5755 108.16 20.5755C106.367 20.5755 105.019 21.7413 105.019 23.6727C105.019 25.4649 106.15 26.6307 108.012 26.6307C108.725 26.6307 109.282 26.4915 109.534 26.3697L109.36 25.5258ZM113.534 24.8733L114.065 26.535H115.222L113.316 20.6712H111.95L110.071 26.535H111.176L111.681 24.8733H113.534ZM111.855 24.0642L112.307 22.62C112.403 22.272 112.499 21.8631 112.586 21.5238H112.603C112.69 21.8631 112.786 22.2633 112.899 22.62L113.36 24.0642H111.855ZM116.454 26.535H117.524V21.5673H119.212V20.6712H114.784V21.5673H116.454V26.535ZM119.903 20.6712V26.535H120.973V20.6712H119.903ZM124.685 20.5668C123.032 20.5668 121.892 21.837 121.892 23.6466C121.892 25.3605 122.936 26.6307 124.598 26.6307C126.208 26.6307 127.399 25.5084 127.399 23.5422C127.399 21.8631 126.39 20.5668 124.685 20.5668ZM124.65 21.4281C125.72 21.4281 126.268 22.4721 126.268 23.577C126.268 24.8037 125.686 25.7694 124.65 25.7694C123.624 25.7694 123.023 24.8211 123.023 23.6205C123.023 22.4112 123.589 21.4281 124.65 21.4281ZM129.306 26.535V24.4383C129.306 23.4726 129.288 22.6983 129.245 21.9414L129.28 21.9327C129.567 22.5939 129.949 23.3073 130.324 23.9511L131.855 26.535H132.968V20.6712H131.977V22.7157C131.977 23.6118 131.994 24.3687 132.072 25.1517H132.055C131.785 24.5166 131.437 23.838 131.054 23.1855L129.541 20.6712H128.314V26.535H129.306Z" fill="white"/>
</svg>
