<svg width="22" height="19" viewBox="0 0 22 19" fill="none" xmlns="http://www.w3.org/2000/svg">
<path d="M3.37239 15.8281H1.25855C1.02365 15.8281 0.798379 15.9102 0.632281 16.0561C0.466182 16.2021 0.372865 16.4001 0.372865 16.6066C0.372865 16.813 0.466182 17.011 0.632281 17.157C0.798379 17.303 1.02365 17.385 1.25855 17.385H3.37239C3.48609 17.3837 3.59835 17.3624 3.7025 17.3223C3.80666 17.2822 3.90061 17.2241 3.97879 17.1515C4.05696 17.0789 4.11778 16.9933 4.15764 16.8997C4.19749 16.8061 4.21559 16.7064 4.21084 16.6066V16.6066C4.21559 16.5067 4.19749 16.407 4.15764 16.3134C4.11778 16.2198 4.05696 16.1342 3.97879 16.0616C3.90061 15.989 3.80666 15.931 3.7025 15.8909C3.59835 15.8508 3.48609 15.8294 3.37239 15.8281V15.8281ZM20.1532 0L1.84901 0C1.37921 0 0.928655 0.164027 0.596458 0.455996C0.264262 0.747965 0.0776367 1.14396 0.0776367 1.55687L0.0776367 11.936C0.0776367 12.3489 0.264262 12.7449 0.596458 13.0368C0.928655 13.3288 1.37921 13.4928 1.84901 13.4928H20.1532C20.623 13.4928 21.0735 13.3288 21.4057 13.0368C21.7379 12.7449 21.9246 12.3489 21.9246 11.936V1.55687C21.9246 1.14396 21.7379 0.747965 21.4057 0.455996C21.0735 0.164027 20.623 0 20.1532 0ZM11.0011 3.11373C11.4238 3.11373 11.8371 3.22391 12.1886 3.43034C12.5401 3.63676 12.8141 3.93016 12.9758 4.27344C13.1376 4.61671 13.18 4.99444 13.0975 5.35885C13.015 5.72327 12.8114 6.05801 12.5125 6.32074C12.2136 6.58346 11.8327 6.76239 11.4181 6.83487C11.0035 6.90736 10.5737 6.87016 10.1831 6.72797C9.79256 6.58578 9.45874 6.34499 9.22387 6.03606C8.989 5.72712 8.86364 5.36391 8.86364 4.99235C8.86364 4.49411 9.08884 4.01628 9.48969 3.66397C9.89054 3.31166 10.4342 3.11373 11.0011 3.11373V3.11373ZM14.5911 10.431C14.5959 10.5499 14.5471 10.6657 14.4553 10.7531C14.3636 10.8406 14.2362 10.8927 14.101 10.8981H7.9012C7.76597 10.8927 7.63863 10.8406 7.54686 10.7531C7.45509 10.6657 7.40631 10.5499 7.41112 10.431V9.98989C7.40322 9.79632 7.43882 9.60327 7.51588 9.4218C7.59294 9.24032 7.70994 9.07398 7.8602 8.93228C8.01046 8.79058 8.19103 8.6763 8.39157 8.59597C8.59212 8.51565 8.80872 8.47086 9.02897 8.46416H12.9732C13.1935 8.47086 13.4101 8.51565 13.6106 8.59597C13.8112 8.6763 13.9917 8.79058 14.142 8.93228C14.2922 9.07398 14.4093 9.24032 14.4863 9.4218C14.5634 9.60327 14.599 9.79632 14.5911 9.98989V10.431ZM20.7436 15.8281H12.1348C12.0211 15.8294 11.9088 15.8508 11.8047 15.8909C11.7005 15.931 11.6066 15.989 11.5284 16.0616C11.4502 16.1342 11.3894 16.2198 11.3495 16.3134C11.3097 16.407 11.2916 16.5067 11.2963 16.6066C11.2932 16.7056 11.3125 16.8041 11.3531 16.8965C11.3936 16.9889 11.4547 17.0733 11.5327 17.1448C11.6107 17.2162 11.7041 17.2734 11.8075 17.3128C11.9109 17.3523 12.0221 17.3733 12.1348 17.3746H20.7436C20.9785 17.3746 21.2038 17.2926 21.3699 17.1466C21.536 17.0006 21.6293 16.8026 21.6293 16.5962C21.6293 16.3897 21.536 16.1917 21.3699 16.0458C21.2038 15.8998 20.9785 15.8178 20.7436 15.8178V15.8281Z" fill="black"/>
<path d="M7.75354 18.1635C8.73184 18.1635 9.5249 17.4664 9.5249 16.6066C9.5249 15.7467 8.73184 15.0497 7.75354 15.0497C6.77524 15.0497 5.98218 15.7467 5.98218 16.6066C5.98218 17.4664 6.77524 18.1635 7.75354 18.1635Z" fill="black"/>
</svg>
