<svg width="44" height="44" viewBox="0 0 44 44" fill="none" xmlns="http://www.w3.org/2000/svg">
<g clip-path="url(#clip0_2_3990)">
<path d="M4.78913 35.0751H39.2112C41.6323 31.6462 43.055 27.4622 43.055 22.9454C43.055 11.3172 33.6285 1.89059 22.0002 1.89059C10.3719 1.89059 0.945312 11.3172 0.945312 22.9454C0.945312 27.4622 2.36809 31.6462 4.78913 35.0751Z" fill="#FFC839"/>
<path d="M38.8118 34.1053C37.5024 31.4865 35.2042 30.7553 34.1572 30.5542C34.1572 30.5542 31.4791 30.0653 29.1129 29.1032C29.0401 29.3358 28.8815 29.5423 28.6487 29.6677C27.0345 30.5381 24.8572 31.2522 22.0574 31.2522C21.4872 31.2522 20.9442 31.2212 20.4251 31.1667C20.4385 31.1968 20.4512 31.2268 20.4654 31.2572C19.8891 31.3301 18.0434 31.6106 16.2187 32.3934C13.295 33.6474 11.7496 35.6121 11.7496 38.0751V41.3398C14.7831 43.0342 18.2787 44.0003 22.0002 44.0003C29.1118 44.0003 35.3993 40.474 39.2112 35.0751C39.0909 34.7235 38.9583 34.3983 38.8118 34.1053Z" fill="#72AAFC"/>
<path d="M14.9881 29.062C12.5979 30.0513 9.84326 30.5542 9.84326 30.5542C8.79611 30.7553 6.49805 31.4865 5.18862 34.1053C5.0421 34.3983 4.90958 34.7235 4.78918 35.0751C6.63461 37.6888 9.06019 39.8635 11.8786 41.4119C11.8786 40.5285 11.8786 39.4326 11.8786 38.0751C11.8786 32.1873 20.6606 31.3644 20.6606 31.3644C20.6296 31.3029 20.601 31.2424 20.5734 31.1825C18.4744 30.9833 16.782 30.3773 15.4649 29.6668C15.2187 29.5339 15.0544 29.3111 14.9881 29.062Z" fill="#548BED"/>
<path d="M29.2411 28.3697L27.591 25.7193C27.3588 25.3463 26.9124 25.1692 26.4863 25.2763C25.1984 25.6004 23.6867 25.8451 22.0574 25.8451C21.8876 25.8451 21.7195 25.8418 21.5523 25.8367V27.2466C21.3033 27.37 20.5447 27.8082 20.2111 28.7063C19.9362 29.4465 20.0218 30.3039 20.4654 31.2572C20.3768 31.2683 20.2579 31.2845 20.1141 31.3067C20.7269 31.3815 21.3736 31.424 22.0574 31.424C24.9498 31.424 27.1991 30.6864 28.8667 29.7872C29.3772 29.512 29.5476 28.862 29.2411 28.3697Z" fill="#548BED"/>
<path d="M17.6275 25.2756C17.2013 25.1682 16.7549 25.3453 16.5226 25.7184L14.8726 28.3687C14.5661 28.861 14.7365 29.5108 15.2468 29.7862C16.6356 30.5353 18.4292 31.1707 20.6599 31.363C19.1595 28.3763 21.6812 27.3289 21.6812 27.3289V25.8403C20.1954 25.8062 18.8162 25.575 17.6275 25.2756Z" fill="#3E7FDD"/>
<path d="M29.6197 24.2878C29.0397 22.2564 28.7992 20.6706 28.7472 19.4452C28.3067 21.0348 27.731 22.4423 27.0297 23.6422C26.6251 24.3347 26.1229 24.9548 25.5397 25.4922C24.6683 30.5755 26.2976 34.4048 27.5798 36.4974C27.85 36.9383 28.57 36.7534 28.563 36.2442C28.5053 32.03 31.1814 29.7576 29.6197 24.2878Z" fill="#45304C"/>
<path d="M22.0565 3.38452C23.4079 3.38452 24.5544 3.64466 25.5195 4.04547C25.5468 3.8693 25.5611 3.68874 25.5611 3.50492C25.561 1.56935 23.992 0.000305176 22.0565 0.000305176C20.121 0.000305176 18.5519 1.56935 18.5519 3.50492C18.5519 3.68874 18.5662 3.86921 18.5935 4.04547C19.5586 3.64466 20.705 3.38452 22.0565 3.38452Z" fill="#56415E"/>
<path d="M22.0565 2.64202C20.6791 1.26462 22.0565 0.000305176 22.0565 0.000305176C20.121 0.000305176 18.5519 1.56935 18.5519 3.50492C18.5519 3.68874 18.5662 3.86921 18.5935 4.04547C19.5586 3.64466 20.705 3.38461 22.0565 3.38461V2.64202Z" fill="#45304C"/>
<path d="M17.981 4.55474C19.0624 3.99683 20.4071 3.60969 22.0565 3.60969C23.7059 3.60969 25.0505 3.99683 26.1319 4.55483C26.3239 4.65391 26.5093 4.76168 26.6891 4.87606C25.6037 3.51515 23.9325 2.64203 22.0565 2.64203C20.1804 2.64203 18.5092 3.51507 17.4238 4.87597C17.6035 4.76159 17.789 4.65383 17.981 4.55474Z" fill="#D3DCFB"/>
<path d="M15.2077 14.3377C15.3058 14.0169 15.4399 13.7391 15.6213 13.5347C15.7846 13.3507 15.887 13.123 15.8944 12.8795C15.9368 11.4568 16.4836 6.84745 21.735 8.86054C21.9413 8.9396 22.1717 8.9396 22.378 8.86054C27.6294 6.84745 28.1762 11.4568 28.2186 12.8795C28.226 13.123 28.3284 13.3507 28.4917 13.5347C28.6731 13.7391 28.8072 14.0169 28.9053 14.3377V14.3376C29.1714 14.1602 29.5845 14.0379 29.9578 14.0467L29.9579 14.0456V10.5925C29.9579 7.97581 28.4992 5.55074 26.1319 4.32948C25.0506 3.77158 23.7059 3.38443 22.0565 3.38443C20.4071 3.38443 19.0624 3.77158 17.9811 4.32948C15.6139 5.55074 14.1552 7.97581 14.1552 10.5925V14.0456L14.1552 14.0467C14.5285 14.038 14.9417 14.1603 15.2077 14.3377Z" fill="#56415E"/>
<path d="M22.0565 3.38452C20.4071 3.38452 19.0624 3.77167 17.9811 4.32958C15.6139 5.55083 14.1552 7.9759 14.1552 10.5926V14.0457L14.1552 14.0468C14.5286 14.038 14.9417 14.1604 15.2077 14.3377C15.3058 14.0169 15.4399 13.7391 15.6213 13.5347C15.7846 13.3507 15.887 13.123 15.8944 12.8795C15.936 11.4841 16.4634 7.02397 21.4384 8.75269C21.4176 8.72554 21.3977 8.69821 21.3752 8.67139C19.041 5.89304 22.0565 3.38452 22.0565 3.38452Z" fill="#45304C"/>
<path d="M15.1426 18.4401C15.1426 18.4401 14.7141 15.7278 15.2077 14.1125C14.7598 13.814 13.8945 13.6682 13.5054 14.0487C12.7085 14.8276 13.2924 16.0039 13.5718 16.7469C13.6575 16.9751 13.7129 17.2058 13.7379 17.437C13.7923 17.9393 14.0646 18.6745 15.1939 18.6572C15.1768 18.5849 15.1593 18.5136 15.1426 18.4401Z" fill="#FC9460"/>
<path d="M30.6076 14.0487C30.2184 13.6682 29.3531 13.814 28.9053 14.1125C29.3989 15.7278 28.9703 18.4401 28.9703 18.4401C28.9537 18.5136 28.9362 18.5849 28.9191 18.6572C30.0484 18.6746 30.3207 17.9394 30.3751 17.437C30.4002 17.2058 30.4555 16.9751 30.5413 16.7469C30.8206 16.0039 31.4044 14.8276 30.6076 14.0487Z" fill="#FFAA7B"/>
<path d="M28.5338 13.2722C28.3711 13.0888 28.2816 12.8745 28.2749 12.6526C28.2498 11.808 28.0365 9.7409 26.6039 8.78691C25.5877 8.11024 24.1591 8.11729 22.3579 8.80805C22.1635 8.88256 21.9494 8.88256 21.7551 8.80805C21.5368 8.72435 21.3241 8.65113 21.1167 8.58745C19.6585 9.56525 19.4409 11.6734 19.4152 12.5356C19.4084 12.7626 19.317 12.9816 19.1504 13.1691C18.2331 14.2029 18.434 17.2233 18.648 18.4667C19.122 20.559 19.8086 22.3833 20.6885 23.8892C21.4162 25.1346 22.4503 26.1528 23.7089 26.8777C25.1069 26.1621 26.2485 25.0919 27.0298 23.7547C27.89 22.2826 28.5615 20.4986 29.026 18.4488C29.227 17.1706 29.4412 14.2947 28.5338 13.2722Z" fill="#FFC7AB"/>
<path d="M20.7594 23.7548C19.899 22.2823 19.2275 20.4984 18.7641 18.4525C18.5547 17.2365 18.3584 14.2831 19.2554 13.2721C19.4182 13.0888 19.5077 12.8746 19.5143 12.6526C19.5395 11.808 19.7528 9.74072 21.1854 8.78681C21.247 8.74573 21.3103 8.7074 21.375 8.6714C19.7522 8.12088 18.4526 8.15869 17.509 8.78681C16.0764 9.7408 15.8632 11.808 15.838 12.6526C15.8314 12.8746 15.7419 13.0888 15.5791 13.2721C14.682 14.283 14.8784 17.2365 15.0878 18.4525C15.5513 20.4984 16.2227 22.2823 17.0831 23.7548C17.9565 25.2497 19.2794 26.4123 20.9084 27.1171C21.6381 27.4327 22.4748 27.4328 23.2043 27.1171C23.4413 27.0146 23.6709 26.9012 23.8945 26.7797C22.5812 26.0658 21.5058 25.0322 20.7594 23.7548Z" fill="#FFAA7B"/>
<path d="M34.9018 6.30667C33.5247 7.42996 32.1384 9.23267 32.9554 11.6239C34.4136 15.8918 30.6007 21.7207 34.8848 26.0048C37.406 28.526 40.4196 28.4057 42.4733 27.8798C42.8535 26.2971 43.0551 24.6449 43.0551 22.9455C43.055 16.1788 39.8623 10.1586 34.9018 6.30667Z" fill="#FFDD40"/>
<path d="M9.09855 6.30667C10.4757 7.42996 11.8619 9.23267 11.0449 11.6239C9.58675 15.8918 13.3997 21.7207 9.11556 26.0048C6.59441 28.526 3.58076 28.4057 1.52702 27.8798C1.14684 26.2971 0.945312 24.6449 0.945312 22.9455C0.945312 16.1788 4.13806 10.1586 9.09855 6.30667Z" fill="#FFDD40"/>
<path d="M36.2759 38.42C35.8521 36.7241 34.8012 35.7405 33.9492 35.2018C33.412 34.8622 32.7115 35.2445 32.7115 35.8801V41.075C33.9934 40.3159 35.1877 39.4246 36.2759 38.42Z" fill="#548BED"/>
<path d="M27.2328 27.3538C27.2328 29.6537 27.6122 31.8967 29.2481 32.1747C29.8903 29.9576 30.6143 27.771 29.6198 24.2878C29.5958 24.2038 29.5733 24.1217 29.5504 24.0392C28.4873 24.6092 27.2328 25.6438 27.2328 27.3538Z" fill="#56415E"/>
</g>
<defs>
<clipPath id="clip0_2_3990">
<rect width="44" height="44" fill="white" transform="translate(0.00012207 0.000305176)"/>
</clipPath>
</defs>
</svg>
